<svg width="109" height="105" viewBox="0 0 109 105" fill="none" xmlns="http://www.w3.org/2000/svg">
<path d="M2.14712 73.7714C1.42376 73.1746 1.84575 72 2.7835 72H68.6407C68.873 72 69.098 72.0808 69.2771 72.2286L106.853 103.229C107.576 103.825 107.154 105 106.216 105H40.3593C40.127 105 39.902 104.919 39.7229 104.771L2.14712 73.7714Z" fill="#4983F1"/>
<path d="M32.7828 86.3928V86.1216H33.0158C33.0865 85.8155 33.1437 85.3681 33.1701 84.814C33.2062 84.0547 33.1822 83.158 33.0853 82.2859L33.0837 82.2722L33.083 82.2584C33.0341 81.3782 32.9363 80.5487 32.8273 79.9069C32.7727 79.5855 32.7163 79.317 32.6635 79.1158C32.6422 79.0346 32.6235 78.9725 32.6083 78.9264C32.0359 78.6965 30.993 78.285 29.8772 78.0276L29.854 78.0222L29.8315 78.0147C29.2435 77.8187 28.6581 77.6481 28.1621 77.5271C27.8335 77.447 27.5625 77.3933 27.3621 77.3652C27.1102 78.2269 26.8914 79.0644 26.7656 79.8294C26.6204 80.7132 26.61 81.442 26.7734 81.9784C27.1756 83.1794 28.1002 84.169 29.3103 84.9401C30.3484 85.6016 31.5715 86.0855 32.7828 86.3928Z" fill="#EFF5FF" stroke="#DBE7FF"/>
<path d="M73.0157 87.3978C72.063 90.5748 69.026 92.1121 66.5384 93.3559C65.4277 93.9112 64.4296 94.4126 63.6787 94.9992C63.093 95.4568 62.6969 95.9364 62.5174 96.4945C66.139 96.424 70.5909 95.6955 76.2151 93.5395L76.215 93.5395L76.2232 93.5365C77.2329 93.1694 78.1643 92.5227 79.0157 91.5768C79.3776 91.1721 79.4122 90.9044 79.3602 90.7099C79.2959 90.4699 79.0554 90.1545 78.4838 89.7675C77.4286 89.0531 75.5757 88.3075 73.0157 87.3978Z" fill="#EFF5FF" stroke="#DBE7FF"/>
<path d="M43.7601 32.3332V6.88871L19.587 6.98463C19.3315 12.2679 19.6367 17.3815 20.504 22.8746L20.5044 22.8773C21.2161 27.5538 22.7347 33.1084 24.3329 38.9542C25.0775 41.6776 25.8393 44.4642 26.5449 47.2546C28.7497 55.9744 30.4037 64.7321 29.0844 71.4422C28.8974 72.5576 28.3865 74.0641 27.8588 75.5651C28.5133 75.7075 29.4058 75.9306 30.2802 76.1493L30.3104 76.1568L30.3185 76.1588L30.3265 76.1611C31.0343 76.3633 31.7452 76.5917 32.3334 76.8091C32.8042 76.983 33.2442 77.1667 33.532 77.3394H33.6895L33.8359 77.4858C34.0196 77.6696 34.1496 77.9555 34.2483 78.2263C34.355 78.5187 34.454 78.8779 34.5439 79.2761C34.7241 80.0741 34.8765 81.068 34.9778 82.0808C35.0799 83.1019 35.1059 84.1511 35.0543 85.0531C35.0192 85.6679 34.9465 86.252 34.8203 86.7182C34.8405 86.7194 34.8601 86.7201 34.8795 86.7201H34.893L34.9065 86.7208C40.5643 87.0266 44.3959 89.323 48.1512 91.5737L48.1846 91.5938C51.8224 93.7741 55.3969 95.9083 60.5955 96.3594C60.8434 95.235 61.5096 94.3698 62.3651 93.6589C63.3016 92.8807 64.5002 92.2586 65.6919 91.6628L65.6918 91.6627L65.6991 91.6592C68.1871 90.465 70.5269 89.1702 71.2906 86.7871C70.9347 86.6593 70.5474 86.5301 70.1518 86.3983C69.1205 86.0713 67.3007 85.0184 65.1469 83.486C62.9714 81.9381 60.4051 79.8647 57.8739 77.4529C52.8316 72.6483 47.8488 66.4253 46.4671 60.2871C44.3597 51.1545 43.7601 41.6326 43.7601 32.3332Z" fill="#EFF5FF" stroke="#DBE7FF"/>
<path d="M43.7603 0.5H20.161C19.9973 2.05975 19.8399 3.6046 19.7432 5.08636L43.7603 4.99067V0.5Z" fill="#CFE0FF" stroke="#B4CEFF"/>
</svg>
