<svg width="109" height="105" viewBox="0 0 109 105" fill="none" xmlns="http://www.w3.org/2000/svg">
<path d="M2.14712 73.7714C1.42376 73.1746 1.84575 72 2.7835 72H68.6407C68.873 72 69.098 72.0808 69.2771 72.2286L106.853 103.229C107.576 103.825 107.154 105 106.216 105H40.3593C40.127 105 39.902 104.919 39.7229 104.771L2.14712 73.7714Z" fill="#4983F1"/>
<path d="M77.1998 95.7696L77.3767 96.2373L77.1998 95.7696ZM81.2922 89.2078L81.6903 88.9052L81.2922 89.2078ZM58.5986 78H58.0986L59.0656 77.8213L58.5986 78ZM25.0222 83.1506L24.5345 83.2605L25.0222 83.1506ZM51.111 94.7601L50.8725 95.1996L51.111 94.7601ZM26.0453 79.6173L26.2911 80.0527L26.0453 79.6173ZM37.2993 79.3031L37.3536 79.8002L37.2993 79.3031ZM77.5407 95.0961C77.7955 94.9897 78.0883 95.1099 78.1948 95.3647C78.3013 95.6194 78.1811 95.9123 77.9263 96.0188L77.5407 95.0961ZM80.9995 94.1583C80.7966 94.3455 80.4802 94.3328 80.293 94.1298C80.1057 93.9269 80.1185 93.6105 80.3214 93.4233L80.9995 94.1583ZM80.9995 92.6497C81.1548 92.4214 81.4658 92.3621 81.6941 92.5173C81.9225 92.6726 81.9818 92.9836 81.8265 93.212L80.9995 92.6497ZM82.0434 89.446C82.1766 89.6879 82.0886 89.992 81.8467 90.1252C81.6048 90.2584 81.3007 90.1703 81.1675 89.9285L82.0434 89.446ZM80.6209 89.2945C80.3854 89.1502 80.3115 88.8423 80.4558 88.6069C80.6001 88.3715 80.908 88.2976 81.1434 88.4419L80.6209 89.2945ZM77.9984 87.2442C78.2628 87.3237 78.4128 87.6025 78.3333 87.867C78.2538 88.1314 77.9749 88.2814 77.7105 88.2019L77.9984 87.2442ZM76.6745 87.898C76.4092 87.8217 76.2559 87.5446 76.3323 87.2793C76.4086 87.0139 76.6856 86.8607 76.951 86.937L76.6745 87.898ZM73.8312 86.0503C74.0966 86.1266 74.2499 86.4036 74.1735 86.669C74.0972 86.9344 73.8202 87.0876 73.5548 87.0113L73.8312 86.0503ZM72.5124 86.7078C72.2475 86.6297 72.0962 86.3516 72.1743 86.0868C72.2525 85.8219 72.5306 85.6706 72.7954 85.7487L72.5124 86.7078ZM69.7151 84.7846C69.9769 84.8724 70.1179 85.1558 70.03 85.4176C69.9422 85.6794 69.6588 85.8205 69.397 85.7326L69.7151 84.7846ZM68.3661 85.3768C68.1059 85.2843 67.97 84.9984 68.0625 84.7382C68.155 84.478 68.4409 84.342 68.7011 84.4345L68.3661 85.3768ZM65.7189 83.2561C65.9713 83.3681 66.0851 83.6635 65.9731 83.9159C65.8611 84.1684 65.5657 84.2822 65.3133 84.1702L65.7189 83.2561ZM64.3156 83.7067C64.0674 83.5857 63.9641 83.2864 64.0851 83.0382C64.206 82.7899 64.5053 82.6867 64.7535 82.8076L64.3156 83.7067ZM62.0188 81.2227C62.2444 81.3819 62.2983 81.6939 62.1391 81.9195C61.9799 82.1451 61.6679 82.199 61.4423 82.0398L62.0188 81.2227ZM60.5529 81.3579C60.3411 81.1807 60.3132 80.8653 60.4904 80.6536C60.6676 80.4418 60.983 80.4138 61.1947 80.5911L60.5529 81.3579ZM59.2635 78.2709C59.3868 78.518 59.2864 78.8182 59.0393 78.9415C58.7922 79.0647 58.4919 78.9644 58.3686 78.7172L59.2635 78.2709ZM58.0865 78.5302C57.8105 78.5409 57.5782 78.3258 57.5676 78.0499C57.5569 77.7739 57.772 77.5416 58.0479 77.5309L58.0865 78.5302ZM54.8514 77.6445C55.1274 77.6342 55.3594 77.8496 55.3697 78.1255C55.38 78.4015 55.1647 78.6335 54.8888 78.6438L54.8514 77.6445ZM53.8217 78.6849C53.5458 78.6959 53.3132 78.4811 53.3023 78.2052C53.2913 77.9293 53.5061 77.6967 53.782 77.6857L53.8217 78.6849ZM50.5795 77.8258C50.8553 77.8126 51.0897 78.0254 51.1029 78.3012C51.1162 78.5771 50.9033 78.8114 50.6275 78.8247L50.5795 77.8258ZM49.564 78.8774C49.2882 78.8915 49.0532 78.6794 49.0391 78.4036C49.025 78.1278 49.2371 77.8928 49.5129 77.8787L49.564 78.8774ZM46.3092 78.059C46.5848 78.042 46.822 78.2516 46.839 78.5272C46.856 78.8028 46.6464 79.0401 46.3708 79.0571L46.3092 78.059ZM45.3079 79.1248C45.0324 79.1429 44.7943 78.9342 44.7762 78.6586C44.7581 78.3831 44.9668 78.145 45.2424 78.1269L45.3079 79.1248ZM42.0413 78.3587C42.3165 78.3368 42.5575 78.5422 42.5794 78.8174C42.6013 79.0927 42.3959 79.3336 42.1207 79.3555L42.0413 78.3587ZM41.0596 79.4429C40.7845 79.4663 40.5424 79.2623 40.519 78.9871C40.4956 78.712 40.6997 78.4699 40.9748 78.4465L41.0596 79.4429ZM37.7763 78.7491C38.051 78.7203 38.297 78.9195 38.3259 79.1941C38.3548 79.4687 38.1556 79.7148 37.8809 79.7437L37.7763 78.7491ZM36.8726 79.8473C36.5975 79.8712 36.3551 79.6675 36.3312 79.3924C36.3074 79.1173 36.511 78.8749 36.7861 78.851L36.8726 79.8473ZM34.008 78.933C34.2841 78.9383 34.5036 79.1665 34.4982 79.4426C34.4929 79.7187 34.2648 79.9382 33.9887 79.9328L34.008 78.933ZM33.033 79.9026C32.7571 79.8908 32.5431 79.6576 32.5549 79.3817C32.5667 79.1058 32.7999 78.8917 33.0758 78.9035L33.033 79.9026ZM30.2571 78.7352C30.5327 78.7519 30.7426 78.9889 30.7259 79.2645C30.7092 79.5402 30.4722 79.75 30.1965 79.7333L30.2571 78.7352ZM29.2641 79.6857C28.9882 79.6752 28.7729 79.443 28.7834 79.1671C28.7939 78.8912 29.026 78.6759 29.302 78.6864L29.2641 79.6857ZM26.3123 78.9534C26.5733 78.8632 26.858 79.0016 26.9482 79.2626C27.0385 79.5236 26.9 79.8083 26.639 79.8985L26.3123 78.9534ZM26.1386 80.2265C25.9883 80.4581 25.6786 80.524 25.447 80.3737C25.2153 80.2234 25.1494 79.9137 25.2998 79.6821L26.1386 80.2265ZM24.5058 82.654C24.5197 82.3782 24.7546 82.1659 25.0304 82.1799C25.3062 82.1938 25.5184 82.4287 25.5045 82.7045L24.5058 82.654ZM25.6433 83.4283C25.7597 83.6787 25.651 83.9761 25.4006 84.0925C25.1502 84.2089 24.8528 84.1002 24.7364 83.8498L25.6433 83.4283ZM27.1718 86.1683C26.9332 86.0293 26.8525 85.7232 26.9915 85.4846C27.1305 85.246 27.4366 85.1653 27.6752 85.3043L27.1718 86.1683ZM28.5558 85.7739C28.8036 85.8959 28.9056 86.1956 28.7836 86.4433C28.6617 86.6911 28.362 86.7931 28.1142 86.6711L28.5558 85.7739ZM31.0321 87.8905C30.7728 87.7953 30.6398 87.508 30.735 87.2488C30.8301 86.9896 31.1174 86.8565 31.3766 86.9517L31.0321 87.8905ZM32.3437 87.2966C32.6045 87.3872 32.7425 87.6721 32.6519 87.933C32.5613 88.1938 32.2764 88.3318 32.0155 88.2412L32.3437 87.2966ZM34.9811 89.219C34.718 89.1353 34.5725 88.8541 34.6561 88.591C34.7398 88.3278 35.0209 88.1823 35.2841 88.266L34.9811 89.219ZM36.2711 88.5779C36.5345 88.6608 36.6809 88.9416 36.598 89.205C36.5151 89.4684 36.2343 89.6147 35.9709 89.5318L36.2711 88.5779ZM38.935 90.4662C38.6719 90.3823 38.5267 90.101 38.6106 89.8379C38.6945 89.5749 38.9758 89.4296 39.2388 89.5135L38.935 90.4662ZM40.2281 89.8314C40.4907 89.9166 40.6347 90.1986 40.5495 90.4613C40.4643 90.7239 40.1823 90.8679 39.9197 90.7827L40.2281 89.8314ZM42.8558 91.77C42.5952 91.6786 42.4582 91.3932 42.5497 91.1326C42.6412 90.8721 42.9265 90.735 43.1871 90.8265L42.8558 91.77ZM44.1684 91.1772C44.4279 91.2716 44.5617 91.5585 44.4673 91.818C44.3729 92.0775 44.086 92.2113 43.8265 92.1169L44.1684 91.1772ZM46.7045 93.2325C46.4494 93.1266 46.3285 92.834 46.4344 92.579C46.5402 92.3239 46.8328 92.203 47.0878 92.3089L46.7045 93.2325ZM48.0501 92.7187C48.3032 92.8293 48.4186 93.1241 48.3079 93.3771C48.1973 93.6302 47.9025 93.7456 47.6495 93.635L48.0501 92.7187ZM50.423 94.9597C50.1784 94.8315 50.0841 94.5293 50.2124 94.2847C50.3406 94.0402 50.6429 93.9459 50.8874 94.0741L50.423 94.9597ZM51.7824 94.5541C52.0258 94.6844 52.1175 94.9875 51.9871 95.2309C51.8567 95.4743 51.5537 95.566 51.3103 95.4356L51.7824 94.5541ZM53.9427 96.7765C53.6937 96.6572 53.5885 96.3587 53.7077 96.1096C53.827 95.8605 54.1256 95.7553 54.3746 95.8746L53.9427 96.7765ZM55.2511 96.2833C55.5026 96.3973 55.6141 96.6936 55.5001 96.9452C55.3861 97.1967 55.0898 97.3081 54.8383 97.1942L55.2511 96.2833ZM57.5946 98.3105C57.334 98.2191 57.1968 97.9338 57.2882 97.6732C57.3796 97.4126 57.6649 97.2755 57.9255 97.3668L57.5946 98.3105ZM58.8348 97.6662C59.0987 97.7473 59.247 98.027 59.1659 98.291C59.0849 98.555 58.8052 98.7032 58.5412 98.6222L58.8348 97.6662ZM61.4677 99.2993C61.1946 99.258 61.0068 99.0031 61.0481 98.7301C61.0895 98.4571 61.3443 98.2692 61.6173 98.3106L61.4677 99.2993ZM62.56 98.4264C62.8349 98.4523 63.0368 98.6962 63.0108 98.9711C62.9849 99.246 62.7411 99.4479 62.4661 99.422L62.56 98.4264ZM65.4768 99.4514C65.2013 99.471 64.9621 99.2637 64.9424 98.9883C64.9227 98.7128 65.1301 98.4736 65.4055 98.4539L65.4768 99.4514ZM66.3551 98.3626C66.6293 98.3296 66.8782 98.5252 66.9112 98.7994C66.9441 99.0735 66.7486 99.3225 66.4744 99.3554L66.3551 98.3626ZM69.412 98.8208C69.1433 98.8845 68.8739 98.7182 68.8103 98.4495C68.7466 98.1808 68.9129 97.9114 69.1816 97.8477L69.412 98.8208ZM70.1166 97.6123C70.3834 97.5413 70.6573 97.7001 70.7283 97.9669C70.7993 98.2338 70.6406 98.5077 70.3737 98.5787L70.1166 97.6123ZM73.2116 97.726C72.9494 97.8125 72.6667 97.6699 72.5802 97.4077C72.4938 97.1454 72.6363 96.8627 72.8985 96.7763L73.2116 97.726ZM73.8183 96.4661C74.0794 96.3762 74.364 96.515 74.4539 96.776C74.5438 97.0371 74.405 97.3217 74.1439 97.4116L73.8183 96.4661ZM76.9123 96.4122C76.6537 96.5091 76.3655 96.378 76.2686 96.1194C76.1717 95.8608 76.3028 95.5727 76.5614 95.4758L76.9123 96.4122ZM77.0229 95.302C77.2015 95.2344 77.374 95.1658 77.5407 95.0961L77.9263 96.0188C77.7487 96.093 77.5656 96.1659 77.3767 96.2373L77.0229 95.302ZM80.3214 93.4233C80.6021 93.1644 80.8259 92.9052 80.9995 92.6497L81.8265 93.212C81.6052 93.5375 81.3296 93.8538 80.9995 94.1583L80.3214 93.4233ZM81.1675 89.9285C81.0899 89.7876 80.9988 89.648 80.8941 89.5103L81.6903 88.9052C81.8227 89.0794 81.9409 89.2599 82.0434 89.446L81.1675 89.9285ZM80.8941 89.5103C80.8623 89.4685 80.7833 89.394 80.6209 89.2945L81.1434 88.4419C81.3523 88.5699 81.5505 88.7212 81.6903 88.9052L80.8941 89.5103ZM77.7105 88.2019C77.3822 88.1032 77.0361 88.002 76.6745 87.898L76.951 86.937C77.3149 87.0417 77.6651 87.144 77.9984 87.2442L77.7105 88.2019ZM73.5548 87.0113C73.2122 86.9128 72.8642 86.8117 72.5124 86.7078L72.7954 85.7487C73.1446 85.8518 73.4903 85.9522 73.8312 86.0503L73.5548 87.0113ZM69.397 85.7326C69.0529 85.6172 68.7088 85.4986 68.3661 85.3768L68.7011 84.4345C69.0377 84.5542 69.3761 84.6708 69.7151 84.7846L69.397 85.7326ZM65.3133 84.1702C64.9751 84.0201 64.6421 83.8657 64.3156 83.7067L64.7535 82.8076C65.0685 82.9611 65.3907 83.1105 65.7189 83.2561L65.3133 84.1702ZM61.4423 82.0398C61.1313 81.8203 60.834 81.5932 60.5529 81.3579L61.1947 80.5911C61.4528 80.8071 61.728 81.0175 62.0188 81.2227L61.4423 82.0398ZM58.3686 78.7172C58.2809 78.5413 58.2017 78.3618 58.1316 78.1787L59.0656 77.8213C59.1237 77.9732 59.1897 78.123 59.2635 78.2709L58.3686 78.7172ZM59.0986 78C59.0986 78.2702 58.8993 78.4009 58.8738 78.4178C58.8201 78.4533 58.7719 78.4699 58.7562 78.4752C58.7181 78.4881 58.6859 78.4937 58.6764 78.4954C58.6505 78.4999 58.6259 78.5025 58.6115 78.5038C58.5785 78.507 58.5364 78.5097 58.4903 78.5123C58.3958 78.5176 58.2592 78.5235 58.0865 78.5302L58.0479 77.5309C58.2202 77.5243 58.3493 77.5187 58.4342 77.5139C58.4778 77.5115 58.5039 77.5096 58.5166 77.5083C58.5251 77.5075 58.5177 77.508 58.5034 77.5105C58.4997 77.5111 58.4719 77.5158 58.4366 77.5277C58.4224 77.5325 58.3753 77.5486 58.3223 77.5836C58.2952 77.6015 58.2466 77.6373 58.2011 77.6968C58.1529 77.7599 58.0986 77.8637 58.0986 78H59.0986ZM54.8888 78.6438C54.5509 78.6565 54.1946 78.6701 53.8217 78.6849L53.782 77.6857C54.1557 77.6709 54.5128 77.6572 54.8514 77.6445L54.8888 78.6438ZM50.6275 78.8247C50.2797 78.8414 49.9249 78.8589 49.564 78.8774L49.5129 77.8787C49.8749 77.8602 50.2307 77.8426 50.5795 77.8258L50.6275 78.8247ZM46.3708 79.0571C46.0191 79.0788 45.6646 79.1013 45.3079 79.1248L45.2424 78.1269C45.6004 78.1034 45.9562 78.0807 46.3092 78.059L46.3708 79.0571ZM42.1207 79.3555C41.7669 79.3837 41.413 79.4128 41.0596 79.4429L40.9748 78.4465C41.3301 78.4163 41.6858 78.387 42.0413 78.3587L42.1207 79.3555ZM37.8809 79.7437C37.7045 79.7622 37.5287 79.7811 37.3536 79.8002L37.2451 78.8061C37.4215 78.7868 37.5986 78.7678 37.7763 78.7491L37.8809 79.7437ZM37.3536 79.8002C37.1926 79.8178 37.0322 79.8334 36.8726 79.8473L36.7861 78.851C36.9386 78.8378 37.0916 78.8228 37.2451 78.8061L37.3536 79.8002ZM33.9887 79.9328C33.6645 79.9266 33.3457 79.916 33.033 79.9026L33.0758 78.9035C33.3819 78.9166 33.6928 78.9269 34.008 78.933L33.9887 79.9328ZM30.1965 79.7333C29.8722 79.7136 29.5613 79.6969 29.2641 79.6857L29.302 78.6864C29.6097 78.6981 29.9288 78.7152 30.2571 78.7352L30.1965 79.7333ZM26.639 79.8985C26.5093 79.9434 26.3937 79.9948 26.2911 80.0527L25.7996 79.1819C25.9613 79.0906 26.133 79.0154 26.3123 78.9534L26.639 79.8985ZM26.2911 80.0527C26.2714 80.0639 26.2158 80.1075 26.1386 80.2265L25.2998 79.6821C25.4211 79.4951 25.5832 79.304 25.7996 79.1819L26.2911 80.0527ZM25.5045 82.7045C25.4998 82.7981 25.499 82.8765 25.5011 82.9382C25.5022 82.9689 25.504 82.9933 25.506 83.0119C25.5069 83.0211 25.5079 83.0281 25.5087 83.0333C25.5095 83.0384 25.51 83.0408 25.51 83.0408L24.5345 83.2605C24.4963 83.0911 24.495 82.8671 24.5058 82.654L25.5045 82.7045ZM25.51 83.0408C25.5394 83.171 25.5836 83.3 25.6433 83.4283L24.7364 83.8498C24.6483 83.6602 24.5802 83.4638 24.5345 83.2605L25.51 83.0408ZM27.6752 85.3043C27.9469 85.4626 28.2409 85.6189 28.5558 85.7739L28.1142 86.6711C27.7817 86.5075 27.4668 86.3402 27.1718 86.1683L27.6752 85.3043ZM31.3766 86.9517C31.6903 87.0668 32.0129 87.1817 32.3437 87.2966L32.0155 88.2412C31.68 88.1247 31.3519 88.0079 31.0321 87.8905L31.3766 86.9517ZM35.2841 88.266C35.6089 88.3692 35.9381 88.4731 36.2711 88.5779L35.9709 89.5318C35.6374 89.4268 35.3072 89.3226 34.9811 89.219L35.2841 88.266ZM39.2388 89.5135C39.5668 89.6181 39.8967 89.724 40.2281 89.8314L39.9197 90.7827C39.5901 90.6758 39.2618 90.5704 38.935 90.4662L39.2388 89.5135ZM43.1871 90.8265C43.5143 90.9414 43.8415 91.0582 44.1684 91.1772L43.8265 92.1169C43.5034 91.9993 43.1797 91.8838 42.8558 91.77L43.1871 90.8265ZM47.0878 92.3089C47.4104 92.4428 47.7313 92.5793 48.0501 92.7187L47.6495 93.635C47.3368 93.4982 47.0216 93.3641 46.7045 93.2325L47.0878 92.3089ZM50.8874 94.0741C51.0424 94.1554 51.1964 94.2376 51.3495 94.3207L50.8725 95.1996C50.7237 95.1188 50.5738 95.0389 50.423 94.9597L50.8874 94.0741ZM51.3495 94.3207C51.4951 94.3996 51.6393 94.4774 51.7824 94.5541L51.3103 95.4356C51.1655 95.3581 51.0196 95.2794 50.8725 95.1996L51.3495 94.3207ZM54.3746 95.8746C54.6718 96.0169 54.9638 96.1531 55.2511 96.2833L54.8383 97.1942C54.5442 97.0609 54.2458 96.9216 53.9427 96.7765L54.3746 95.8746ZM57.9255 97.3668C58.2327 97.4746 58.5356 97.5743 58.8348 97.6662L58.5412 98.6222C58.2288 98.5262 57.9136 98.4224 57.5946 98.3105L57.9255 97.3668ZM61.6173 98.3106C61.9323 98.3582 62.2462 98.3968 62.56 98.4264L62.4661 99.422C62.1335 99.3906 61.801 99.3498 61.4677 99.2993L61.6173 98.3106ZM65.4055 98.4539C65.7185 98.4315 66.0347 98.4011 66.3551 98.3626L66.4744 99.3554C66.1386 99.3958 65.8064 99.4278 65.4768 99.4514L65.4055 98.4539ZM69.1816 97.8477C69.4878 97.7752 69.7992 97.6967 70.1166 97.6123L70.3737 98.5787C70.0481 98.6653 69.7277 98.7461 69.412 98.8208L69.1816 97.8477ZM72.8985 96.7763C73.1996 96.677 73.5061 96.5736 73.8183 96.4661L74.1439 97.4116C73.8278 97.5205 73.5172 97.6253 73.2116 97.726L72.8985 96.7763ZM76.5614 95.4758C76.7139 95.4186 76.8677 95.3607 77.0229 95.302L77.3767 96.2373C77.2206 96.2964 77.0658 96.3546 76.9123 96.4122L76.5614 95.4758Z" fill="white"/>
<rect x="25" y="76" width="22" height="5" fill="#4983F1"/>
<path d="M32.7833 86.3928V86.1216H33.0163C33.087 85.8155 33.1442 85.3681 33.1706 84.814C33.2067 84.0547 33.1826 83.158 33.0857 82.2859L33.0842 82.2722L33.0835 82.2584C33.0346 81.3782 32.9368 80.5487 32.8278 79.9069C32.7732 79.5855 32.7168 79.317 32.664 79.1158C32.6427 79.0346 32.624 78.9725 32.6088 78.9264C32.0364 78.6965 30.9934 78.285 29.8777 78.0276L29.8545 78.0222L29.832 78.0147C29.2439 77.8187 28.6585 77.6481 28.1626 77.5271C27.834 77.447 27.563 77.3933 27.3626 77.3652C27.1107 78.2269 26.8919 79.0644 26.7661 79.8294C26.6209 80.7132 26.6105 81.442 26.7739 81.9784C27.1761 83.1794 28.1007 84.169 29.3108 84.9401C30.3489 85.6016 31.572 86.0855 32.7833 86.3928Z" fill="#EFF5FF" stroke="#DBE7FF"/>
<path d="M73.0157 87.3978C72.063 90.5748 69.026 92.1121 66.5384 93.3559C65.4277 93.9112 64.4296 94.4126 63.6787 94.9992C63.093 95.4568 62.6969 95.9364 62.5174 96.4945C66.139 96.424 70.5909 95.6955 76.2151 93.5395L76.215 93.5395L76.2232 93.5365C77.2329 93.1694 78.1643 92.5227 79.0157 91.5768C79.3776 91.1721 79.4122 90.9044 79.3602 90.7099C79.2959 90.4699 79.0554 90.1545 78.4838 89.7675C77.4286 89.0531 75.5757 88.3075 73.0157 87.3978Z" fill="#EFF5FF" stroke="#DBE7FF"/>
<path d="M43.7601 32.3332V6.88871L19.587 6.98463C19.3315 12.2679 19.6367 17.3815 20.504 22.8746L20.5044 22.8773C21.2161 27.5538 22.7347 33.1084 24.3329 38.9542C25.0775 41.6776 25.8393 44.4642 26.5449 47.2546C28.7497 55.9744 30.4037 64.7321 29.0844 71.4422C28.8974 72.5576 28.3865 74.0641 27.8588 75.5651C28.5133 75.7075 29.4058 75.9306 30.2802 76.1493L30.3104 76.1568L30.3185 76.1588L30.3265 76.1611C31.0343 76.3633 31.7452 76.5917 32.3334 76.8091C32.8042 76.983 33.2442 77.1667 33.532 77.3394H33.6895L33.8359 77.4858C34.0196 77.6696 34.1496 77.9555 34.2483 78.2263C34.355 78.5187 34.454 78.8779 34.5439 79.2761C34.7241 80.0741 34.8765 81.068 34.9778 82.0808C35.0799 83.1019 35.1059 84.1511 35.0543 85.0531C35.0192 85.6679 34.9465 86.252 34.8203 86.7182C34.8405 86.7194 34.8601 86.7201 34.8795 86.7201H34.893L34.9065 86.7208C40.5643 87.0266 44.3959 89.323 48.1512 91.5737L48.1846 91.5938C51.8224 93.7741 55.3969 95.9083 60.5955 96.3594C60.8434 95.235 61.5096 94.3698 62.3651 93.6589C63.3016 92.8807 64.5002 92.2586 65.6919 91.6628L65.6918 91.6627L65.6991 91.6592C68.1871 90.465 70.5269 89.1702 71.2906 86.7871C70.9347 86.6593 70.5474 86.5301 70.1518 86.3983C69.1205 86.0713 67.3007 85.0184 65.1469 83.486C62.9714 81.9381 60.4051 79.8647 57.8739 77.4529C52.8316 72.6483 47.8488 66.4253 46.4671 60.2871C44.3597 51.1545 43.7601 41.6326 43.7601 32.3332Z" fill="#EFF5FF" stroke="#DBE7FF"/>
<path d="M43.7603 0.5H20.161C19.9973 2.05975 19.8399 3.6046 19.7432 5.08636L43.7603 4.99067V0.5Z" fill="#CFE0FF" stroke="#DBE7FF"/>
</svg>
