<svg width="30" height="30" viewBox="0 0 30 30" fill="none" xmlns="http://www.w3.org/2000/svg">
<path fill-rule="evenodd" clip-rule="evenodd" d="M15 26.5C21.3513 26.5 26.5 21.3513 26.5 15C26.5 8.64873 21.3513 3.5 15 3.5C8.64873 3.5 3.5 8.64873 3.5 15C3.5 21.3513 8.64873 26.5 15 26.5ZM15 28C22.1797 28 28 22.1797 28 15C28 7.8203 22.1797 2 15 2C7.8203 2 2 7.8203 2 15C2 22.1797 7.8203 28 15 28Z" fill="#FDFDFF"/>
<path fill-rule="evenodd" clip-rule="evenodd" d="M15 14.5C16.933 14.5 18.5 12.933 18.5 11C18.5 9.067 16.933 7.5 15 7.5C13.067 7.5 11.5 9.067 11.5 11C11.5 12.933 13.067 14.5 15 14.5ZM15 16C17.7614 16 20 13.7614 20 11C20 8.23858 17.7614 6 15 6C12.2386 6 10 8.23858 10 11C10 13.7614 12.2386 16 15 16Z" fill="#FDFDFF"/>
<path fill-rule="evenodd" clip-rule="evenodd" d="M14.9999 18.75C11.409 18.75 8.35209 21.0446 7.21919 24.2499L5.80493 23.7501C7.14304 19.9642 10.7535 17.25 14.9999 17.25C19.2463 17.25 22.8568 19.9642 24.1949 23.7501L22.7807 24.2499C21.6477 21.0446 18.5908 18.75 14.9999 18.75Z" fill="#FDFDFF"/>
</svg>
