<svg width="10" height="6" viewBox="0 0 10 6" fill="none" xmlns="http://www.w3.org/2000/svg">
<path fill-rule="evenodd" clip-rule="evenodd" d="M9.47994 4.57714L5.44694 0.520135C5.38828 0.460995 5.31849 0.414055 5.2416 0.382022C5.16471 0.349988 5.08224 0.333496 4.99894 0.333496C4.91564 0.333496 4.83317 0.349988 4.75628 0.382022C4.67939 0.414055 4.6096 0.460995 4.55094 0.520135L0.51794 4.57714C0.398861 4.69703 0.332031 4.85915 0.332031 5.02813C0.332031 5.19712 0.398861 5.35924 0.51794 5.47914C0.576548 5.53855 0.646376 5.58572 0.723369 5.61792C0.800362 5.65012 0.882985 5.6667 0.96644 5.6667C1.04989 5.6667 1.13252 5.65012 1.20951 5.61792C1.2865 5.58572 1.35633 5.53855 1.41494 5.47914L4.99894 1.87213L8.58394 5.48013C8.6426 5.53927 8.71239 5.58621 8.78928 5.61825C8.86617 5.65028 8.94864 5.66677 9.03194 5.66677C9.11524 5.66677 9.19771 5.65028 9.2746 5.61825C9.35149 5.58621 9.42128 5.53927 9.47994 5.48013C9.59902 5.36024 9.66585 5.19812 9.66585 5.02913C9.66585 4.86015 9.59902 4.69803 9.47994 4.57814V4.57714Z" fill="#6B26FD"/>
</svg>
