<svg width="14" height="8" viewBox="0 0 14 8" fill="none" xmlns="http://www.w3.org/2000/svg">
<g clip-path="url(#clip0)">
<path fill-rule="evenodd" clip-rule="evenodd" d="M13.7219 1.63318L7.67189 7.72018C7.58393 7.80895 7.47926 7.87942 7.36392 7.92751C7.24858 7.97559 7.12485 8.00035 6.99989 8.00035C6.87492 8.00035 6.7512 7.97559 6.63585 7.92751C6.52051 7.87942 6.41584 7.80895 6.32789 7.72018L0.277886 1.63318C0.0992679 1.45334 -0.000976562 1.21016 -0.000976562 0.956685C-0.000976562 0.703213 0.0992679 0.460028 0.277886 0.280185C0.365859 0.191264 0.470592 0.120673 0.586026 0.0724953C0.70146 0.0243181 0.825302 -0.000488281 0.950386 -0.000488281C1.07547 -0.000488281 1.19931 0.0243181 1.31475 0.0724953C1.43018 0.120673 1.53491 0.191264 1.62289 0.280185L6.99989 5.69019L12.3769 0.280185C12.4649 0.191264 12.5696 0.120673 12.685 0.0724953C12.8005 0.0243181 12.9243 -0.000488281 13.0494 -0.000488281C13.1745 -0.000488281 13.2983 0.0243181 13.4137 0.0724953C13.5292 0.120673 13.6339 0.191264 13.7219 0.280185C13.9005 0.460028 14.0007 0.703213 14.0007 0.956685C14.0007 1.21016 13.9005 1.45334 13.7219 1.63318V1.63318Z" fill="#FDFDFF"/>
</g>
<defs>
<clipPath id="clip0">
<rect width="14" height="8" fill="white"/>
</clipPath>
</defs>
</svg>
