<svg width="14" height="20" viewBox="0 0 14 20" fill="none" xmlns="http://www.w3.org/2000/svg">
<path fill-rule="evenodd" clip-rule="evenodd" d="M7.53995 14.7781C8.04777 14.6469 8.49032 14.3351 8.78465 13.9009C9.07898 13.4668 9.20488 12.9403 9.13876 12.42C9.07264 11.8996 8.81904 11.4213 8.42548 11.0746C8.03193 10.7279 7.52544 10.5366 7.00095 10.5366C6.47646 10.5366 5.96997 10.7279 5.57642 11.0746C5.18287 11.4213 4.92926 11.8996 4.86314 12.42C4.79703 12.9403 4.92293 13.4668 5.21726 13.9009C5.51159 14.3351 5.95413 14.6469 6.46195 14.7781V16.4621H7.53995V14.7781ZM6.99995 13.8461C7.15429 13.8507 7.30797 13.8242 7.45189 13.7683C7.59581 13.7123 7.72705 13.6281 7.83782 13.5205C7.9486 13.413 8.03666 13.2843 8.0968 13.1421C8.15693 12.9999 8.18792 12.847 8.18792 12.6926C8.18792 12.5382 8.15693 12.3854 8.0968 12.2432C8.03666 12.101 7.9486 11.9723 7.83782 11.8647C7.72705 11.7571 7.59581 11.6729 7.45189 11.617C7.30797 11.5611 7.15429 11.5346 6.99995 11.5391C6.6999 11.548 6.41511 11.6734 6.206 11.8887C5.99689 12.1041 5.87992 12.3924 5.87992 12.6926C5.87992 12.9928 5.99689 13.2812 6.206 13.4965C6.41511 13.7119 6.6999 13.8373 6.99995 13.8461V13.8461Z" fill="#DFDEDD"/>
<path fill-rule="evenodd" clip-rule="evenodd" d="M11.8081 7.34579V5.69179C11.7898 4.42877 11.2753 3.22365 10.3757 2.33693C9.47613 1.45021 8.26371 0.953125 7.00056 0.953125C5.73741 0.953125 4.525 1.45021 3.6254 2.33693C2.7258 3.22365 2.21128 4.42877 2.19306 5.69179V7.34579H1.03906C0.773846 7.34579 0.519492 7.45114 0.331956 7.63868C0.144419 7.82622 0.0390625 8.08057 0.0390625 8.34579V18.1158C0.0390625 18.381 0.144419 18.6354 0.331956 18.8229C0.519492 19.0104 0.773846 19.1158 1.03906 19.1158H12.9621C13.2273 19.1158 13.4816 19.0104 13.6692 18.8229C13.8567 18.6354 13.9621 18.381 13.9621 18.1158V8.34579C13.9621 8.08057 13.8567 7.82622 13.6692 7.63868C13.4816 7.45114 13.2273 7.34579 12.9621 7.34579H11.8081ZM10.8081 5.69179C10.7919 4.69266 10.3836 3.73994 9.67132 3.0391C8.95904 2.33827 7.99982 1.94549 7.00056 1.94549C6.00131 1.94549 5.04209 2.33827 4.32981 3.0391C3.61752 3.73994 3.20926 4.69266 3.19306 5.69179V7.34579H10.8081V5.69179ZM1.04006 18.1158V8.34579H12.9631V18.1158H1.04006Z" fill="#DFDEDD"/>
</svg>
