<svg width="6" height="10" viewBox="0 0 6 10" fill="none" xmlns="http://www.w3.org/2000/svg">
<path fill-rule="evenodd" clip-rule="evenodd" d="M1.4219 9.6092L5.4799 5.4602C5.59976 5.33668 5.6668 5.17132 5.6668 4.9992C5.6668 4.82708 5.59976 4.66173 5.4799 4.5382L1.4219 0.390203C1.36336 0.329781 1.29326 0.28174 1.21579 0.248932C1.13832 0.216125 1.05504 0.199219 0.970905 0.199219C0.88677 0.199219 0.803493 0.216125 0.726019 0.248932C0.648545 0.28174 0.578453 0.329781 0.519905 0.390203C0.400045 0.51373 0.333008 0.679083 0.333008 0.851203C0.333008 1.02332 0.400045 1.18868 0.519905 1.3122L4.1269 5.0002L0.519905 8.6872C0.400045 8.81073 0.333008 8.97608 0.333008 9.1482C0.333008 9.32032 0.400045 9.48568 0.519905 9.6092C0.578453 9.66962 0.648545 9.71767 0.726019 9.75047C0.803493 9.78328 0.88677 9.80019 0.970905 9.80019C1.05504 9.80019 1.13832 9.78328 1.21579 9.75047C1.29326 9.71767 1.36336 9.66962 1.4219 9.6092V9.6092Z" fill="#A8A69F"/>
</svg>
