<svg width="30" height="30" viewBox="0 0 30 30" fill="none" xmlns="http://www.w3.org/2000/svg">
<path d="M2 28H28L25.5 2H4.5L2 28Z" fill="#454545"/>
<path fill-rule="evenodd" clip-rule="evenodd" d="M11.0267 11.3993C11.6048 11.0998 11.9999 10.496 11.9999 9.8C11.9999 8.80589 11.194 8 10.1999 8C9.20579 8 8.3999 8.80589 8.3999 9.8C8.3999 10.6136 8.93969 11.3011 9.68067 11.524C9.85174 12.6889 10.2937 13.7543 10.9989 14.5962C11.9365 15.7155 13.3089 16.4 14.9999 16.4C16.6909 16.4 18.0633 15.7155 19.0009 14.5962C19.7061 13.7543 20.1481 12.6888 20.3191 11.524C21.0601 11.3011 21.5999 10.6136 21.5999 9.8C21.5999 8.80589 20.794 8 19.7999 8C18.8058 8 17.9999 8.80589 17.9999 9.8C17.9999 10.496 18.395 11.0998 18.9731 11.3993C18.8262 12.3272 18.4739 13.1336 17.9607 13.7463C17.2813 14.5573 16.2912 15.0667 14.9999 15.0667C13.7085 15.0667 12.7185 14.5573 12.0391 13.7463C11.5259 13.1336 11.1736 12.3272 11.0267 11.3993ZM10.1999 10.4C10.5313 10.4 10.7999 10.1314 10.7999 9.8C10.7999 9.46863 10.5313 9.2 10.1999 9.2C9.86853 9.2 9.5999 9.46863 9.5999 9.8C9.5999 10.1314 9.86853 10.4 10.1999 10.4ZM19.7999 10.4C20.1313 10.4 20.3999 10.1314 20.3999 9.8C20.3999 9.46863 20.1313 9.2 19.7999 9.2C19.4685 9.2 19.1999 9.46863 19.1999 9.8C19.1999 10.1314 19.4685 10.4 19.7999 10.4Z" fill="#FDFDFF"/>
<path fill-rule="evenodd" clip-rule="evenodd" d="M4.34638 2H25.6536L28 28H2L4.34638 2ZM5.85604 3.625L3.80295 26.375H26.197L24.144 3.625H5.85604Z" fill="#FDFDFF"/>
</svg>
