<svg width="15" height="15" xmlns="http://www.w3.org/2000/svg">

 <g>
  <title>Layer 1</title>
  <path id="svg_1" fill="#ffffff" d="m12.17,3a0.782,0.782 0 0 0 -0.55,0.257c-1.957,2.063 -3.439,3.776 -5.28,5.748l-2.023,-1.8a0.762,0.762 0 0 0 -0.882,-0.108a0.807,0.807 0 0 0 -0.244,0.203a0.854,0.854 0 0 0 -0.188,0.613c0.008,0.11 0.037,0.217 0.085,0.315a0.836,0.836 0 0 0 0.193,0.258l2.597,2.312c0.153,0.138 0.35,0.21 0.551,0.201a0.781,0.781 0 0 0 0.535,-0.247c2.147,-2.264 3.678,-4.077 5.792,-6.306a0.854,0.854 0 0 0 0.228,-0.438a0.881,0.881 0 0 0 -0.048,-0.498a0.83,0.83 0 0 0 -0.308,-0.38a0.77,0.77 0 0 0 -0.459,-0.13l0.001,0z"/>
 </g>
</svg>