<svg width="30" height="30" viewBox="0 0 30 30" fill="none" xmlns="http://www.w3.org/2000/svg">
<path d="M3.5 9V26.5H20.5V20.5H26.5L27 3.5H9V9H3.5Z" fill="#454545"/>
<path fill-rule="evenodd" clip-rule="evenodd" d="M2.5 10.098C2.5 9.15046 3.26814 8.38232 4.21569 8.38232H19.902C20.8495 8.38232 21.6176 9.15046 21.6176 10.098V25.7843C21.6176 26.7319 20.8495 27.5 19.902 27.5H4.21569C3.26814 27.5 2.5 26.7319 2.5 25.7843V10.098ZM4.21569 9.85291C4.08032 9.85291 3.97059 9.96265 3.97059 10.098V25.7843C3.97059 25.9197 4.08032 26.0294 4.21569 26.0294H19.902C20.0373 26.0294 20.1471 25.9197 20.1471 25.7843V10.098C20.1471 9.96265 20.0373 9.85291 19.902 9.85291H4.21569Z" fill="#FDFDFF"/>
<path fill-rule="evenodd" clip-rule="evenodd" d="M8.38232 4.21569C8.38232 3.26814 9.15046 2.5 10.098 2.5H25.7843C26.7319 2.5 27.5 3.26814 27.5 4.21569V19.902C27.5 20.8495 26.7319 21.6176 25.7843 21.6176H20.8824V20.1471H25.7843C25.9197 20.1471 26.0294 20.0373 26.0294 19.902V4.21569C26.0294 4.08032 25.9197 3.97059 25.7843 3.97059H10.098C9.96265 3.97059 9.85291 4.08032 9.85291 4.21569V9.11765H8.38232V4.21569Z" fill="#FDFDFF"/>
</svg>
