<svg width="10" height="8" viewBox="0 0 10 8" fill="none" xmlns="http://www.w3.org/2000/svg">
<g clip-path="url(#clip0)">
<path d="M9.17001 0.000108303C9.06582 0.00406431 8.96347 0.0288424 8.86901 0.0729813C8.77455 0.11712 8.68989 0.179727 8.62001 0.257108C6.66301 2.32011 5.18101 4.03311 3.34001 6.00511L1.31701 4.20511C1.19976 4.09712 1.0516 4.02861 0.893378 4.00924C0.735158 3.98986 0.574845 4.0206 0.435006 4.09711C0.341036 4.14796 0.258099 4.21696 0.191006 4.30011C0.0511 4.47227 -0.0163238 4.69211 0.00300608 4.91311C0.0110061 5.02311 0.0400061 5.13011 0.0880061 5.22811C0.135002 5.32581 0.200552 5.41344 0.281006 5.48611L2.87801 7.79811C3.03101 7.93611 3.22801 8.00811 3.42901 7.99911C3.63275 7.98979 3.82477 7.90114 3.96401 7.75211C6.11001 5.48811 7.64201 3.67511 9.75601 1.44611C9.87348 1.32574 9.95279 1.17337 9.98401 1.00811C10.0164 0.840955 9.99974 0.667995 9.93601 0.510108C9.87384 0.355378 9.76651 0.22296 9.62801 0.130108C9.49266 0.0392134 9.33192 -0.00631125 9.16901 0.000108303H9.17001Z" fill="white"/>
</g>
<defs>
<clipPath id="clip0">
<rect width="10" height="8" fill="white"/>
</clipPath>
</defs>
</svg>
