<svg width="23" height="23" viewBox="0 0 23 23" fill="none" xmlns="http://www.w3.org/2000/svg">
<path d="M21.89 3.76298L19.234 1.10998C18.644 0.51998 17.684 0.51998 17.094 1.10998L2.89497 15.32C2.4496 15.7658 2.11408 16.3091 1.91497 16.907L1.90197 16.945L0.667969 22.335L6.06197 21.103L6.10097 21.091C6.69946 20.8919 7.24346 20.5564 7.68997 20.111L21.89 5.90198C22.175 5.61698 22.333 5.23698 22.332 4.83298C22.332 4.42898 22.175 4.04998 21.889 3.76398L21.89 3.76298ZM2.91797 20.084L3.42297 17.883L5.12297 19.581L2.91797 20.084ZM6.67097 18.735L4.26897 16.337L16.008 4.59198L18.408 6.99198L6.67197 18.734L6.67097 18.735ZM19.605 5.79498L17.204 3.39498L18.164 2.43398L20.566 4.83298L19.606 5.79398L19.605 5.79498Z" fill="#FDFDFF"/>
</svg>
