<svg width="30" height="30" viewBox="0 0 30 30" fill="none" xmlns="http://www.w3.org/2000/svg">
<mask id="mask0" mask-type="alpha" maskUnits="userSpaceOnUse" x="0" y="0" width="30" height="30">
<path d="M15 30C23.2843 30 30 23.2843 30 15C30 6.71573 23.2843 0 15 0C6.71573 0 0 6.71573 0 15C0 23.2843 6.71573 30 15 30Z" fill="white"/>
</mask>
<g mask="url(#mask0)">
<path d="M17.2899 30.5934V18.3751H21.0553L21.6191 14.0032H17.2899V11.212C17.2899 9.94622 17.6414 9.08363 19.4565 9.08363L21.7715 9.08262V5.17231C21.3712 5.11904 19.9969 5 18.3981 5C15.0603 5 12.7751 7.03743 12.7751 10.779V14.0032H9V18.3751H12.7751V30.5934H17.2899Z" fill="white"/>
</g>
</svg>
