<svg width="30" height="30" viewBox="0 0 30 30" fill="none" xmlns="http://www.w3.org/2000/svg">
<path d="M7 26H5V11H7V26Z" fill="#FDFDFF"/>
<path d="M16 19H14V4H16V19Z" fill="#FDFDFF"/>
<path d="M25 10H23V4H25V10Z" fill="#FDFDFF"/>
<path d="M25 26H23V16H25V26Z" fill="#FDFDFF"/>
<path fill-rule="evenodd" clip-rule="evenodd" d="M6 10.2C7.21503 10.2 8.2 9.21503 8.2 8C8.2 6.78497 7.21503 5.8 6 5.8C4.78497 5.8 3.8 6.78497 3.8 8C3.8 9.21503 4.78497 10.2 6 10.2ZM6 12C8.20914 12 10 10.2091 10 8C10 5.79086 8.20914 4 6 4C3.79086 4 2 5.79086 2 8C2 10.2091 3.79086 12 6 12Z" fill="#FDFDFF"/>
<path fill-rule="evenodd" clip-rule="evenodd" d="M15 24.2C16.215 24.2 17.2 23.215 17.2 22C17.2 20.785 16.215 19.8 15 19.8C13.785 19.8 12.8 20.785 12.8 22C12.8 23.215 13.785 24.2 15 24.2ZM15 26C17.2091 26 19 24.2091 19 22C19 19.7909 17.2091 18 15 18C12.7909 18 11 19.7909 11 22C11 24.2091 12.7909 26 15 26Z" fill="#FDFDFF"/>
<path fill-rule="evenodd" clip-rule="evenodd" d="M24 15.2C25.215 15.2 26.2 14.215 26.2 13C26.2 11.785 25.215 10.8 24 10.8C22.785 10.8 21.8 11.785 21.8 13C21.8 14.215 22.785 15.2 24 15.2ZM24 17C26.2091 17 28 15.2091 28 13C28 10.7909 26.2091 9 24 9C21.7909 9 20 10.7909 20 13C20 15.2091 21.7909 17 24 17Z" fill="#FDFDFF"/>
</svg>
