<svg width="17" height="30" viewBox="0 0 17 30" fill="none" xmlns="http://www.w3.org/2000/svg">
<path fill-rule="evenodd" clip-rule="evenodd" d="M3.40193 0.597145L16.0829 13.5601C16.4571 13.9461 16.6663 14.4626 16.6663 15.0001C16.6663 15.5377 16.4571 16.0542 16.0829 16.4401L3.40193 29.4031C3.21902 29.5919 3.00004 29.742 2.75799 29.8445C2.51595 29.947 2.25578 29.9998 1.99293 29.9998C1.73008 29.9998 1.46991 29.947 1.22787 29.8445C0.985828 29.742 0.766848 29.5919 0.583933 29.4031C0.210034 29.017 0.000976563 28.5006 0.000976562 27.9631C0.000976562 27.4257 0.210034 26.9093 0.583933 26.5231L11.8559 15.0001L0.583933 3.47714C0.210034 3.09103 0.000976563 2.57462 0.000976562 2.03714C0.000976562 1.49967 0.210034 0.983259 0.583933 0.597145C0.766848 0.408381 0.985828 0.258295 1.22787 0.1558C1.46991 0.053304 1.73008 0.000488281 1.99293 0.000488281C2.25578 0.000488281 2.51595 0.053304 2.75799 0.1558C3.00004 0.258295 3.21902 0.408381 3.40193 0.597145V0.597145Z" fill="#FDFDFF"/>
</svg>
