<svg width="17" height="30" viewBox="0 0 17 30" fill="none" xmlns="http://www.w3.org/2000/svg">
<g clip-path="url(#clip0)">
<path fill-rule="evenodd" clip-rule="evenodd" d="M13.2651 29.4031L0.583104 16.4401C0.208972 16.0542 -0.000244141 15.5377 -0.000244141 15.0001C-0.000244141 14.4626 0.208972 13.9461 0.583104 13.5601L13.2651 0.597145C13.448 0.408381 13.667 0.258295 13.909 0.1558C14.1511 0.053304 14.4113 0.000488281 14.6741 0.000488281C14.937 0.000488281 15.1971 0.053304 15.4392 0.1558C15.6812 0.258295 15.9002 0.408381 16.0831 0.597145C16.457 0.983259 16.6661 1.49967 16.6661 2.03714C16.6661 2.57462 16.457 3.09103 16.0831 3.47714L4.8101 15.0001L16.0821 26.5231C16.456 26.9093 16.6651 27.4257 16.6651 27.9631C16.6651 28.5006 16.456 29.017 16.0821 29.4031C15.8992 29.5919 15.6802 29.742 15.4382 29.8445C15.1961 29.947 14.936 29.9998 14.6731 29.9998C14.4103 29.9998 14.1501 29.947 13.908 29.8445C13.666 29.742 13.447 29.5919 13.2641 29.4031H13.2651Z" fill="#DFDEDD"/>
</g>
<defs>
<clipPath id="clip0">
<rect width="17" height="30" fill="white"/>
</clipPath>
</defs>
</svg>
