<svg width="30" height="30" viewBox="0 0 30 30" fill="none" xmlns="http://www.w3.org/2000/svg">
<path d="M15.3 12.8562V18H23.8075C23.4638 20.2062 21.2375 24.4675 15.3 24.4675C10.1813 24.4675 6.0013 20.2312 6.0013 15C6.0013 9.76875 10.1825 5.5325 15.3 5.5325C18.2125 5.5325 20.1638 6.76875 21.2813 7.84375L25.3488 3.92125C22.7363 1.4825 19.3488 0 15.3 0C7.0063 0 0.300049 6.70625 0.300049 15C0.300049 23.2938 7.0063 30 15.3 30C23.9575 30 29.7 23.9138 29.7 15.3425C29.7 14.3575 29.5938 13.605 29.4638 12.8562H15.3Z" fill="white"/>
</svg>
