<svg width="30" height="30" viewBox="0 0 30 30" fill="none" xmlns="http://www.w3.org/2000/svg">
<path d="M12.5832 3.2684C12.7425 2.91054 13.2575 2.91053 13.4168 3.2684L16.7739 10.8104C16.8405 10.96 16.9843 11.0621 17.1494 11.0769L25.5855 11.8339C25.9856 11.8698 26.1458 12.362 25.8414 12.6206L19.4888 18.0199C19.3609 18.1285 19.3046 18.298 19.3424 18.4601L21.2036 26.4496C21.2927 26.8325 20.8751 27.1355 20.5308 26.9377L13.2292 22.7431C13.0875 22.6617 12.9125 22.6617 12.7708 22.7431L5.46919 26.9377C5.12489 27.1355 4.70725 26.8325 4.79645 26.4496L6.65764 18.4601C6.69542 18.298 6.63907 18.1285 6.51124 18.0199L0.158567 12.6206C-0.145752 12.362 0.0143545 11.8698 0.414499 11.8339L8.8506 11.0769C9.01567 11.0621 9.15952 10.96 9.22613 10.8104L12.5832 3.2684Z" fill="black"/>
<path fill-rule="evenodd" clip-rule="evenodd" d="M9.13976 11.0044C9.12644 11.0343 9.09767 11.0548 9.06465 11.0577L0.414499 11.8339C0.0143545 11.8698 -0.145752 12.362 0.158567 12.6206L6.6775 18.1612C6.70306 18.1829 6.71433 18.2168 6.70678 18.2492L4.79645 26.4496C4.70725 26.8325 5.12489 27.1355 5.46919 26.9377L12.9542 22.6378C12.9825 22.6215 13.0175 22.6215 13.0458 22.6378L20.5308 26.9377C20.8751 27.1355 21.2927 26.8325 21.2036 26.4496L19.2932 18.2492C19.2857 18.2168 19.2969 18.1829 19.3225 18.1612L25.8414 12.6206C26.1458 12.362 25.9856 11.8698 25.5855 11.8339L16.9353 11.0577C16.9023 11.0548 16.8736 11.0343 16.8602 11.0044L13.4168 3.2684C13.2575 2.91053 12.7425 2.91053 12.5832 3.2684L9.13976 11.0044ZM13 6.35193L10.6402 11.6535C10.3871 12.2221 9.84043 12.6101 9.21317 12.6664L3.34168 13.1933L7.74737 16.9377C8.23314 17.3506 8.44726 17.9945 8.30371 18.6108L7.00496 24.1859L12.1292 21.2421C12.6674 20.933 13.3326 20.933 13.8708 21.2421L18.995 24.1859L17.6963 18.6108C17.5527 17.9945 17.7669 17.3506 18.2526 16.9377L22.6583 13.1933L16.7868 12.6664C16.1596 12.6101 15.6129 12.2221 15.3598 11.6535L13 6.35193Z" fill="#FDFDFF"/>
</svg>
