<svg width="30" height="30" viewBox="0 0 30 30" fill="none" xmlns="http://www.w3.org/2000/svg">
<path fill-rule="evenodd" clip-rule="evenodd" d="M6 4.75C5.30964 4.75 4.75 5.30964 4.75 6V24C4.75 24.6904 5.30964 25.25 6 25.25H24C24.6904 25.25 25.25 24.6904 25.25 24V16H26.75V24C26.75 25.5188 25.5188 26.75 24 26.75H6C4.48122 26.75 3.25 25.5188 3.25 24V6C3.25 4.48122 4.48122 3.25 6 3.25H14V4.75H6Z" fill="#FDFDFF"/>
<path fill-rule="evenodd" clip-rule="evenodd" d="M21.7574 2.69673L26.5303 7.4697C26.8232 7.76259 26.8232 8.23747 26.5303 8.53036L21.7574 13.3033C21.4645 13.5962 20.9896 13.5962 20.6967 13.3033C20.4038 13.0104 20.4038 12.5355 20.6967 12.2426L24.1893 8.75003H17C15.8812 8.75003 15.092 9.02756 14.5254 9.40532C13.9541 9.7862 13.5638 10.2994 13.2958 10.8354C13.0263 11.3744 12.8879 11.9224 12.8179 12.342C12.7832 12.5501 12.7662 12.7218 12.7579 12.8386C12.7537 12.8969 12.7517 12.9411 12.7508 12.9688C12.7503 12.9827 12.7501 12.9924 12.7501 12.9978L12.75 13.0007C12.75 13.0007 12.75 13 12 13L12.75 13.0007V21H11.25V13H12C11.25 13 11.25 13 11.25 13V12.9983V12.9961V12.9904L11.2502 12.9736C11.2505 12.9599 11.2509 12.9416 11.2516 12.9189C11.2532 12.8734 11.2561 12.8102 11.2617 12.7317C11.2729 12.5751 11.2949 12.3562 11.3383 12.0954C11.4246 11.5776 11.5987 10.8756 11.9542 10.1646C12.3112 9.45065 12.8584 8.71386 13.6933 8.15724C14.533 7.59749 15.6188 7.25003 17 7.25003H24.1893L20.6967 3.75739C20.4038 3.46449 20.4038 2.98962 20.6967 2.69673C20.9896 2.40383 21.4645 2.40383 21.7574 2.69673ZM12.75 13.0007V13.002V13.0007Z" fill="#FDFDFF"/>
</svg>
