<svg width="30" height="30" viewBox="0 0 30 30" fill="none" xmlns="http://www.w3.org/2000/svg">
<path fill-rule="evenodd" clip-rule="evenodd" d="M3.23864 11.3889L8.42386 6.2371C8.74205 5.92097 9.25794 5.92097 9.57614 6.2371L14.7614 11.3889C15.0795 11.705 15.0795 12.2176 14.7614 12.5337C14.4432 12.8499 13.9273 12.8499 13.6091 12.5337L9.81478 8.76389V23H8.18522V8.76389L4.39091 12.5337C4.07272 12.8499 3.55683 12.8499 3.23864 12.5337C2.92045 12.2176 2.92045 11.705 3.23864 11.3889Z" fill="#FDFDFF"/>
<path fill-rule="evenodd" clip-rule="evenodd" d="M26.7614 18.6111L21.5761 23.7629C21.2579 24.079 20.7421 24.079 20.4239 23.7629L15.2386 18.6111C14.9205 18.295 14.9205 17.7824 15.2386 17.4663C15.5568 17.1501 16.0727 17.1501 16.3909 17.4663L20.1852 21.2361V7H21.8148V21.2361L25.6091 17.4663C25.9273 17.1501 26.4432 17.1501 26.7614 17.4663C27.0795 17.7824 27.0795 18.295 26.7614 18.6111Z" fill="#FDFDFF"/>
</svg>
