<svg width="21" height="12" viewBox="0 0 21 12" fill="none" xmlns="http://www.w3.org/2000/svg">
<g clip-path="url(#clip0)">
<path fill-rule="evenodd" clip-rule="evenodd" d="M0.417889 9.54983L9.49189 0.419832C9.62389 0.286798 9.78092 0.181209 9.95392 0.109153C10.1269 0.0370974 10.3125 0 10.4999 0C10.6873 0 10.8729 0.0370974 11.0459 0.109153C11.2189 0.181209 11.3759 0.286798 11.5079 0.419832L20.5819 9.54983C21.1389 10.1108 21.1389 11.0198 20.5819 11.5798C20.4499 11.7129 20.2929 11.8185 20.1199 11.8905C19.9469 11.9626 19.7613 11.9997 19.5739 11.9997C19.3865 11.9997 19.2009 11.9626 19.0279 11.8905C18.8549 11.8185 18.6979 11.7129 18.5659 11.5798L10.4999 3.46383L2.43389 11.5798C2.30189 11.7129 2.14486 11.8185 1.97186 11.8905C1.79885 11.9626 1.6133 11.9997 1.42589 11.9997C1.23848 11.9997 1.05292 11.9626 0.879922 11.8905C0.706918 11.8185 0.54989 11.7129 0.417889 11.5798C0.150052 11.3099 -0.000244141 10.9451 -0.000244141 10.5648C-0.000244141 10.1846 0.150052 9.81975 0.417889 9.54983V9.54983Z" fill="#DFDEDD"/>
</g>
<defs>
<clipPath id="clip0">
<rect width="21" height="12" fill="white"/>
</clipPath>
</defs>
</svg>
