<svg width="21" height="12" viewBox="0 0 21 12" fill="none" xmlns="http://www.w3.org/2000/svg">
<g clip-path="url(#clip0)">
<path fill-rule="evenodd" clip-rule="evenodd" d="M0.417889 2.44983L9.49189 11.5798C10.0489 12.1398 10.9519 12.1398 11.5079 11.5798L20.5819 2.44983C20.8497 2.17992 21 1.81508 21 1.43483C21 1.05458 20.8497 0.689745 20.5819 0.419832C20.4499 0.286798 20.2929 0.181209 20.1199 0.109153C19.9469 0.0370974 19.7613 0 19.5739 0C19.3865 0 19.2009 0.0370974 19.0279 0.109153C18.8549 0.181209 18.6979 0.286798 18.5659 0.419832L10.6219 8.41283H10.3779L2.43389 0.419832C2.30189 0.286798 2.14486 0.181209 1.97186 0.109153C1.79885 0.0370974 1.6133 0 1.42589 0C1.23848 0 1.05292 0.0370974 0.879922 0.109153C0.706918 0.181209 0.54989 0.286798 0.417889 0.419832C0.150052 0.689745 -0.000244141 1.05458 -0.000244141 1.43483C-0.000244141 1.81508 0.150052 2.17992 0.417889 2.44983V2.44983Z" fill="#FDFDFF"/>
</g>
<defs>
<clipPath id="clip0">
<rect width="21" height="12" fill="white"/>
</clipPath>
</defs>
</svg>
