<svg width="20" height="20" viewBox="0 0 20 20" fill="none" xmlns="http://www.w3.org/2000/svg">
<path fill-rule="evenodd" clip-rule="evenodd" d="M9.99993 17.6C10.998 17.6 11.9862 17.4034 12.9083 17.0215C13.8304 16.6395 14.6682 16.0797 15.3739 15.374C16.0797 14.6683 16.6395 13.8305 17.0214 12.9084C17.4034 11.9863 17.5999 10.998 17.5999 10C17.5999 9.00195 17.4034 8.01368 17.0214 7.0916C16.6395 6.16953 16.0797 5.33171 15.3739 4.62598C14.6682 3.92026 13.8304 3.36045 12.9083 2.97851C11.9862 2.59658 10.998 2.4 9.99993 2.4C7.98429 2.4 6.05119 3.20071 4.62592 4.62598C3.20064 6.05126 2.39993 7.98435 2.39993 10C2.39993 12.0156 3.20064 13.9487 4.62592 15.374C6.05119 16.7993 7.98429 17.6 9.99993 17.6V17.6ZM9.99993 18.667C11.1459 18.6793 12.2829 18.4642 13.3451 18.0342C14.4074 17.6042 15.3738 16.9678 16.1885 16.1618C17.0032 15.3558 17.65 14.3963 18.0914 13.3387C18.5327 12.2811 18.76 11.1465 18.76 10.0005C18.76 8.8545 18.5327 7.71987 18.0914 6.66229C17.65 5.6047 17.0032 4.64516 16.1885 3.83918C15.3738 3.03319 14.4074 2.39678 13.3451 1.96677C12.2829 1.53676 11.1459 1.32169 9.99993 1.334C7.71756 1.35851 5.53699 2.28238 3.9317 3.905C2.32642 5.52762 1.42603 7.71799 1.42603 10.0005C1.42603 12.283 2.32642 14.4734 3.9317 16.096C5.53699 17.7186 7.71756 18.6425 9.99993 18.667V18.667Z" fill="#FDFDFF"/>
<path d="M10.496 7.77004C10.3857 7.77152 10.2763 7.74935 10.1752 7.70502C10.0741 7.66069 9.98368 7.59523 9.91002 7.51304C9.75091 7.3452 9.66464 7.12125 9.67002 6.89004C9.67002 6.64504 9.75002 6.43804 9.91002 6.26704C9.98215 6.1823 10.072 6.11446 10.1733 6.06831C10.2746 6.02217 10.3847 5.99887 10.496 6.00004C10.726 6.00004 10.921 6.08904 11.082 6.26704C11.249 6.43704 11.332 6.64504 11.332 6.89004C11.3344 7.00537 11.3135 7.11999 11.2706 7.22704C11.2276 7.33409 11.1635 7.43137 11.082 7.51304C11.0083 7.59505 10.9178 7.66033 10.8167 7.70448C10.7157 7.74864 10.6063 7.77065 10.496 7.76904V7.77004ZM9.78502 14C9.45002 14 9.17802 13.889 8.96902 13.666C8.76702 13.444 8.66602 13.11 8.66602 12.665C8.66602 12.479 8.69402 12.238 8.75002 11.942L9.46002 8.37004H10.967L10.214 12.153C10.1854 12.2695 10.1713 12.3891 10.172 12.509C10.172 12.657 10.203 12.765 10.266 12.832C10.336 12.892 10.447 12.921 10.601 12.921C10.7159 12.923 10.8298 12.9001 10.935 12.854C10.907 13.224 10.782 13.51 10.559 13.711C10.343 13.904 10.085 14 9.78502 14V14Z" fill="#FDFDFF"/>
</svg>
