<svg width="30" height="30" viewBox="0 0 30 30" fill="none" xmlns="http://www.w3.org/2000/svg">
<path fill-rule="evenodd" clip-rule="evenodd" d="M27 4.5H3V6H4.1877L5.91452 26.6825C6.00489 27.6978 6.81632 28.5 7.72915 28.5H22.0312C22.9441 28.5 23.7555 27.6978 23.8459 26.6825L25.8015 6H27V4.5ZM22.4642 26.2406C22.4279 26.6451 22.0946 27 21.75 27H8.25C7.90542 27 7.57188 26.6449 7.53761 26.2629L5.8169 6H24.4109L22.4642 26.2406Z" fill="#FDFDFF"/>
<path d="M10.5 9H12V24H10.5V9Z" fill="#FDFDFF"/>
<path d="M18 9H19.5V24H18V9Z" fill="#FDFDFF"/>
<path d="M14.25 9H15.75V24H14.25V9Z" fill="#FDFDFF"/>
<path fill-rule="evenodd" clip-rule="evenodd" d="M19.5 2.25011C19.5 2.66423 19.2308 3 18.8986 3H11.1014C10.7692 3 10.5 2.66423 10.5 2.25011C10.5 1.83577 10.7692 1.5 11.1014 1.5H18.8988C19.2308 1.5 19.5 1.83577 19.5 2.25011Z" fill="#FDFDFF"/>
</svg>
