<svg width="30" height="30" viewBox="0 0 30 30" fill="none" xmlns="http://www.w3.org/2000/svg">
<path fill-rule="evenodd" clip-rule="evenodd" d="M15 26.5C21.351 26.5 26.5 21.351 26.5 15C26.5 8.649 21.351 3.5 15 3.5C8.649 3.5 3.5 8.649 3.5 15C3.5 21.351 8.649 26.5 15 26.5ZM15 28C22.18 28 28 22.18 28 15C28 7.82 22.18 2 15 2C7.82 2 2 7.82 2 15C2 22.18 7.82 28 15 28Z" fill="#FDFDFF"/>
<path fill-rule="evenodd" clip-rule="evenodd" d="M14.9999 14.5C15.4596 14.5 15.9147 14.4095 16.3393 14.2336C16.764 14.0577 17.1498 13.7999 17.4748 13.4749C17.7998 13.1499 18.0576 12.764 18.2335 12.3394C18.4094 11.9148 18.4999 11.4596 18.4999 11C18.4999 10.5404 18.4094 10.0852 18.2335 9.66061C18.0576 9.23597 17.7998 8.85013 17.4748 8.52513C17.1498 8.20012 16.764 7.94231 16.3393 7.76642C15.9147 7.59053 15.4596 7.5 14.9999 7.5C14.0717 7.5 13.1814 7.86875 12.5251 8.52513C11.8687 9.1815 11.4999 10.0717 11.4999 11C11.4999 11.9283 11.8687 12.8185 12.5251 13.4749C13.1814 14.1313 14.0717 14.5 14.9999 14.5ZM14.9999 16C16.326 16 17.5978 15.4732 18.5355 14.5355C19.4731 13.5979 19.9999 12.3261 19.9999 11C19.9999 9.67392 19.4731 8.40215 18.5355 7.46447C17.5978 6.52678 16.326 6 14.9999 6C13.6738 6 12.4021 6.52678 11.4644 7.46447C10.5267 8.40215 9.99993 9.67392 9.99993 11C9.99993 12.3261 10.5267 13.5979 11.4644 14.5355C12.4021 15.4732 13.6738 16 14.9999 16V16ZM14.9999 18.75C13.2937 18.7502 11.6295 19.2792 10.2362 20.2641C8.84299 21.249 7.78923 22.6415 7.21993 24.25L5.80493 23.75C6.47777 21.8491 7.72322 20.2034 9.36988 19.0395C11.0165 17.8756 12.9835 17.2506 14.9999 17.2506C17.0164 17.2506 18.9833 17.8756 20.63 19.0395C22.2766 20.2034 23.5221 21.8491 24.1949 23.75L22.7809 24.25C22.2116 22.6414 21.1577 21.2488 19.7642 20.2638C18.3708 19.2789 16.7063 18.75 14.9999 18.75V18.75Z" fill="#FDFDFF"/>
</svg>
