<svg width="30" height="30" viewBox="0 0 30 30" fill="none" xmlns="http://www.w3.org/2000/svg">
<path d="M9.4344 27.3766C20.7552 27.3766 26.9472 17.9974 26.9472 9.86376C26.9472 9.59736 26.9472 9.33216 26.9292 9.06816C28.1338 8.19685 29.1736 7.11802 30 5.88216C28.8767 6.37992 27.685 6.70635 26.4648 6.85056C27.7497 6.08134 28.7113 4.87149 29.1708 3.44616C27.9626 4.16311 26.6408 4.66838 25.2624 4.94016C24.3344 3.95338 23.107 3.29996 21.7702 3.08102C20.4335 2.86207 19.0618 3.0898 17.8675 3.72898C16.6731 4.36815 15.7228 5.38313 15.1634 6.61685C14.6041 7.85056 14.4669 9.23424 14.7732 10.5538C12.3261 10.4311 9.93216 9.79516 7.74677 8.68727C5.56138 7.57938 3.6334 6.02429 2.088 4.12296C1.30091 5.47795 1.05984 7.08199 1.41387 8.60849C1.76791 10.135 2.69043 11.4692 3.9936 12.3394C3.01409 12.3103 2.05594 12.0461 1.2 11.569C1.2 11.5942 1.2 11.6206 1.2 11.647C1.20039 13.068 1.69231 14.4452 2.59234 15.5449C3.49236 16.6446 4.74508 17.3992 6.138 17.6806C5.23184 17.9277 4.2811 17.9638 3.3588 17.7862C3.75211 19.0092 4.51784 20.0787 5.54888 20.8451C6.57993 21.6115 7.82474 22.0364 9.1092 22.0606C6.92968 23.7735 4.23727 24.7034 1.4652 24.7006C0.975484 24.6996 0.486245 24.67 0 24.6118C2.81476 26.4181 6.0899 27.3762 9.4344 27.3718" fill="white"/>
</svg>
