<svg width="30" height="30" viewBox="0 0 30 30" fill="none" xmlns="http://www.w3.org/2000/svg">
<path fill-rule="evenodd" clip-rule="evenodd" d="M2 4H8.47431V10.2152H2V4ZM3.33597 5.28251V8.93274H7.13834V5.28251H3.33597Z" fill="#FDFDFF"/>
<path fill-rule="evenodd" clip-rule="evenodd" d="M2 11.8926H8.47431V18.1078H2V11.8926ZM3.33597 13.1751V16.8253H7.13834V13.1751H3.33597Z" fill="#FDFDFF"/>
<path fill-rule="evenodd" clip-rule="evenodd" d="M2 19.7847H8.47431V25.9999H2V19.7847ZM3.33597 21.0672V24.7174H7.13834V21.0672H3.33597Z" fill="#FDFDFF"/>
<path fill-rule="evenodd" clip-rule="evenodd" d="M10.2212 4H27.9999V10.2152H10.2212V4ZM11.5572 5.28251V8.93274H26.6639V5.28251H11.5572Z" fill="#FDFDFF"/>
<path fill-rule="evenodd" clip-rule="evenodd" d="M10.2212 11.8926H27.9999V18.1078H10.2212V11.8926ZM11.5572 13.1751V16.8253H26.6639V13.1751H11.5572Z" fill="#FDFDFF"/>
<path fill-rule="evenodd" clip-rule="evenodd" d="M10.2212 19.7847H27.9999V25.9999H10.2212V19.7847ZM11.5572 21.0672V24.7174H26.6639V21.0672H11.5572Z" fill="#FDFDFF"/>
</svg>
