<svg width="14" height="20" viewBox="0 0 14 20" fill="none" xmlns="http://www.w3.org/2000/svg">
<path fill-rule="evenodd" clip-rule="evenodd" d="M7.5402 14.7781C8.04802 14.6469 8.49056 14.3351 8.78489 13.9009C9.07922 13.4668 9.20512 12.9403 9.139 12.42C9.07288 11.8996 8.81928 11.4213 8.42573 11.0746C8.03217 10.7279 7.52569 10.5366 7.0012 10.5366C6.47671 10.5366 5.97022 10.7279 5.57666 11.0746C5.18311 11.4213 4.92951 11.8996 4.86339 12.42C4.79727 12.9403 4.92317 13.4668 5.2175 13.9009C5.51183 14.3351 5.95438 14.6469 6.4622 14.7781V16.4621H7.5402V14.7781ZM7.0002 13.8461C7.15453 13.8507 7.30821 13.8242 7.45214 13.7683C7.59606 13.7123 7.72729 13.6281 7.83807 13.5205C7.94884 13.413 8.03691 13.2843 8.09704 13.1421C8.15718 12.9999 8.18816 12.847 8.18816 12.6926C8.18816 12.5382 8.15718 12.3854 8.09704 12.2432C8.03691 12.101 7.94884 11.9723 7.83807 11.8647C7.72729 11.7571 7.59606 11.6729 7.45214 11.617C7.30821 11.5611 7.15453 11.5346 7.0002 11.5391C6.70015 11.548 6.41535 11.6734 6.20624 11.8887C5.99713 12.1041 5.88016 12.3924 5.88016 12.6926C5.88016 12.9928 5.99713 13.2812 6.20624 13.4965C6.41535 13.7119 6.70015 13.8373 7.0002 13.8461V13.8461Z" fill="#D5EBA2"/>
<path fill-rule="evenodd" clip-rule="evenodd" d="M11.8081 7.34579V5.69179C11.7898 4.42877 11.2753 3.22365 10.3757 2.33693C9.47613 1.45021 8.26371 0.953125 7.00056 0.953125C5.73741 0.953125 4.525 1.45021 3.6254 2.33693C2.7258 3.22365 2.21128 4.42877 2.19306 5.69179V7.34579H1.03906C0.773846 7.34579 0.519492 7.45114 0.331956 7.63868C0.144419 7.82622 0.0390625 8.08057 0.0390625 8.34579V18.1158C0.0390625 18.381 0.144419 18.6354 0.331956 18.8229C0.519492 19.0104 0.773846 19.1158 1.03906 19.1158H12.9621C13.2273 19.1158 13.4816 19.0104 13.6692 18.8229C13.8567 18.6354 13.9621 18.381 13.9621 18.1158V8.34579C13.9621 8.08057 13.8567 7.82622 13.6692 7.63868C13.4816 7.45114 13.2273 7.34579 12.9621 7.34579H11.8081ZM10.8081 5.69179C10.7919 4.69266 10.3836 3.73994 9.67132 3.0391C8.95904 2.33827 7.99982 1.94549 7.00056 1.94549C6.00131 1.94549 5.04209 2.33827 4.32981 3.0391C3.61752 3.73994 3.20926 4.69266 3.19306 5.69179V7.34579H10.8081V5.69179ZM1.04006 18.1158V8.34579H12.9631V18.1158H1.04006Z" fill="#D5EBA2"/>
</svg>
