<svg width="30" height="30" viewBox="0 0 30 30" fill="none" xmlns="http://www.w3.org/2000/svg">
<path fill-rule="evenodd" clip-rule="evenodd" d="M2 4.85728C2 4.06831 2.6467 3.42871 3.44444 3.42871H26.5556C27.3533 3.42871 28 4.0683 28 4.85728V25.5715C28 26.3605 27.3533 27.0001 26.5556 27.0001H3.44445C2.6467 27.0001 2 26.3605 2 25.5715V4.85728ZM3.44444 4.85728V25.5715H26.5556V4.85728H3.44444Z" fill="#D5EBA2"/>
<path fill-rule="evenodd" clip-rule="evenodd" d="M4.88892 11.4285C4.88892 10.9551 5.27694 10.5713 5.75559 10.5713H9.80003C10.2786 10.5713 10.6667 10.9551 10.6667 11.4285V15.4285C10.6667 15.9019 10.2786 16.2856 9.80003 16.2856H5.75559C5.27694 16.2856 4.88892 15.9019 4.88892 15.4285V11.4285ZM6.33336 11.9999V14.857H9.22225V11.9999H6.33336Z" fill="#D5EBA2"/>
<path fill-rule="evenodd" clip-rule="evenodd" d="M12.1111 11.4285C12.1111 10.9551 12.4991 10.5713 12.9778 10.5713H17.0222C17.5009 10.5713 17.8889 10.9551 17.8889 11.4285V15.4285C17.8889 15.9019 17.5009 16.2856 17.0222 16.2856H12.9778C12.4991 16.2856 12.1111 15.9019 12.1111 15.4285V11.4285ZM13.5556 11.9999V14.857H16.4444V11.9999H13.5556Z" fill="#D5EBA2"/>
<path fill-rule="evenodd" clip-rule="evenodd" d="M19.3333 11.4285C19.3333 10.9551 19.7214 10.5713 20.2 10.5713H24.2444C24.7231 10.5713 25.1111 10.9551 25.1111 11.4285V15.4285C25.1111 15.9019 24.7231 16.2856 24.2444 16.2856H20.2C19.7214 16.2856 19.3333 15.9019 19.3333 15.4285V11.4285ZM20.7778 11.9999V14.857H23.6667V11.9999H20.7778Z" fill="#D5EBA2"/>
<path fill-rule="evenodd" clip-rule="evenodd" d="M4.88892 18.5715C4.88892 18.0981 5.27694 17.7144 5.75559 17.7144H9.80003C10.2786 17.7144 10.6667 18.0981 10.6667 18.5715V22.5715C10.6667 23.0449 10.2786 23.4287 9.80003 23.4287H5.75559C5.27694 23.4287 4.88892 23.0449 4.88892 22.5715V18.5715ZM6.33336 19.143V22.0001H9.22225V19.143H6.33336Z" fill="#D5EBA2"/>
<path fill-rule="evenodd" clip-rule="evenodd" d="M12.1111 18.5715C12.1111 18.0981 12.4991 17.7144 12.9778 17.7144H17.0222C17.5009 17.7144 17.8889 18.0981 17.8889 18.5715V22.5715C17.8889 23.0449 17.5009 23.4287 17.0222 23.4287H12.9778C12.4991 23.4287 12.1111 23.0449 12.1111 22.5715V18.5715ZM13.5556 19.143V22.0001H16.4444V19.143H13.5556Z" fill="#D5EBA2"/>
<path fill-rule="evenodd" clip-rule="evenodd" d="M19.3333 18.5715C19.3333 18.0981 19.7214 17.7144 20.2 17.7144H24.2444C24.7231 17.7144 25.1111 18.0981 25.1111 18.5715V22.5715C25.1111 23.0449 24.7231 23.4287 24.2444 23.4287H20.2C19.7214 23.4287 19.3333 23.0449 19.3333 22.5715V18.5715ZM20.7778 19.143V22.0001H23.6667V19.143H20.7778Z" fill="#D5EBA2"/>
<path fill-rule="evenodd" clip-rule="evenodd" d="M26.5555 9.14293H3.44434V7.71436H26.5555V9.14293Z" fill="#D5EBA2"/>
<path fill-rule="evenodd" clip-rule="evenodd" d="M7.7777 2V6.28571H6.33325V2H7.7777Z" fill="#D5EBA2"/>
<path fill-rule="evenodd" clip-rule="evenodd" d="M9.94444 2V6.28571H8.5V2H9.94444Z" fill="#D5EBA2"/>
<path fill-rule="evenodd" clip-rule="evenodd" d="M23.6667 2V6.28571H22.2222V2H23.6667Z" fill="#D5EBA2"/>
<path fill-rule="evenodd" clip-rule="evenodd" d="M21.5001 2V6.28571H20.0557V2H21.5001Z" fill="#D5EBA2"/>
</svg>
