<svg width="30" height="30" viewBox="0 0 30 30" fill="none" xmlns="http://www.w3.org/2000/svg">
<path d="M23.3386 7.00132C22.923 7.01521 22.5289 7.19902 22.24 7.51373C18.3259 11.642 15.3623 15.0668 11.6792 19.0094L7.63461 15.4096C7.47477 15.2664 7.2897 15.1577 7.08996 15.0897C6.89021 15.0218 6.67971 14.9959 6.47047 15.0136C6.26123 15.0313 6.05734 15.0922 5.87046 15.1928C5.68358 15.2934 5.51736 15.4318 5.38129 15.6C5.24522 15.7682 5.14196 15.963 5.07742 16.1733C5.01288 16.3835 4.98832 16.605 5.00514 16.8252C5.02195 17.0454 5.07982 17.26 5.17543 17.4567C5.27104 17.6534 5.40253 17.8283 5.56238 17.9715L10.7554 22.596C11.0617 22.8719 11.4558 23.0157 11.8586 22.9986C12.2614 22.9816 12.6432 22.8049 12.9275 22.5041C17.2215 17.9752 20.2841 14.351 24.512 9.89166C24.745 9.65491 24.9041 9.34926 24.9683 9.01519C25.0325 8.68113 24.9987 8.33444 24.8715 8.02102C24.7442 7.70761 24.5295 7.44228 24.2558 7.26018C23.982 7.07808 23.6622 6.9878 23.3386 7.00132Z" fill="#D5EBA2"/>
</svg>
