<svg width="10" height="8" viewBox="0 0 10 8" fill="none" xmlns="http://www.w3.org/2000/svg">
<g clip-path="url(#clip0)">
<path d="M9.16976 0.000108303C9.06557 0.00406431 8.96323 0.0288424 8.86877 0.0729813C8.77431 0.11712 8.68964 0.179727 8.61976 0.257108C6.66276 2.32011 5.18076 4.03311 3.33976 6.00511L1.31676 4.20511C1.19952 4.09712 1.05135 4.02861 0.893134 4.00924C0.734913 3.98986 0.574601 4.0206 0.434762 4.09711C0.340792 4.14796 0.257855 4.21696 0.190762 4.30011C0.0508559 4.47227 -0.0165679 4.69211 0.00276194 4.91311C0.0107619 5.02311 0.0397619 5.13011 0.0877619 5.22811C0.134757 5.32581 0.200308 5.41344 0.280762 5.48611L2.87776 7.79811C3.03076 7.93611 3.22776 8.00811 3.42876 7.99911C3.63251 7.98979 3.82452 7.90114 3.96376 7.75211C6.10976 5.48811 7.64176 3.67511 9.75576 1.44611C9.87323 1.32574 9.95255 1.17337 9.98376 1.00811C10.0162 0.840955 9.99949 0.667995 9.93576 0.510108C9.8736 0.355378 9.76627 0.22296 9.62776 0.130108C9.49241 0.0392134 9.33167 -0.00631125 9.16876 0.000108303H9.16976Z" fill="#D5EBA2"/>
</g>
<defs>
<clipPath id="clip0">
<rect width="10" height="8" fill="white"/>
</clipPath>
</defs>
</svg>
