<svg width="30" height="30" viewBox="0 0 30 30" fill="none" xmlns="http://www.w3.org/2000/svg">
<path fill-rule="evenodd" clip-rule="evenodd" d="M15 26.4C21.296 26.4 26.4 21.296 26.4 15C26.4 8.70395 21.296 3.6 15 3.6C8.70395 3.6 3.6 8.70395 3.6 15C3.6 21.296 8.70395 26.4 15 26.4ZM15 28C22.1797 28 28 22.1797 28 15C28 7.8203 22.1797 2 15 2C7.8203 2 2 7.8203 2 15C2 22.1797 7.8203 28 15 28Z" fill="#D5EBA2"/>
<path d="M16.6575 17.9695C16.6575 17.5096 16.5333 17.1451 16.2847 16.8759C16.0415 16.6011 15.6255 16.3488 15.0365 16.1188C14.4475 15.8889 13.9395 15.6618 13.5127 15.4374C13.0858 15.2075 12.7183 14.9467 12.4103 14.6551C12.1077 14.3579 11.87 14.0102 11.6971 13.612C11.5296 13.2138 11.4458 12.7399 11.4458 12.1903C11.4458 11.2426 11.7376 10.4658 12.3212 9.86015C12.9048 9.25447 13.6802 8.90116 14.6474 8.80021V7H15.9443V8.82545C16.9007 8.96565 17.6491 9.38065 18.1895 10.0705C18.7298 10.7546 19 11.6435 19 12.7371H16.6575C16.6575 12.0641 16.5225 11.5622 16.2523 11.2313C15.9875 10.8948 15.6309 10.7266 15.1824 10.7266C14.7393 10.7266 14.3961 10.8584 14.153 11.122C13.9098 11.38 13.7882 11.7389 13.7882 12.1987C13.7882 12.625 13.9071 12.9671 14.1449 13.225C14.3826 13.483 14.823 13.7466 15.4661 14.0158C16.1145 14.285 16.6467 14.5401 17.0628 14.7813C17.4789 15.0168 17.8301 15.286 18.1165 15.5889C18.4029 15.8861 18.6217 16.2282 18.7731 16.6151C18.9244 16.9965 19 17.4423 19 17.9527C19 18.9061 18.7136 19.68 18.1408 20.2744C17.5681 20.8689 16.7791 21.2194 15.7741 21.326V23H14.4853V21.3344C13.3776 21.211 12.5184 20.8044 11.9078 20.1146C11.3026 19.4192 11 18.4967 11 17.347H13.3425C13.3425 18.0144 13.4938 18.5275 13.7964 18.8864C14.1044 19.2397 14.5447 19.4164 15.1175 19.4164C15.593 19.4164 15.9686 19.2874 16.2442 19.0294C16.5198 18.7659 16.6575 18.4125 16.6575 17.9695Z" fill="#D5EBA2"/>
</svg>
