<svg width="25" height="25" viewBox="0 0 25 25" fill="none" xmlns="http://www.w3.org/2000/svg">
<path d="M24.9069 12.38C24.7109 12.078 19.9799 5 12.4999 5C6.08192 5 0.362917 12.037 0.122917 12.337C0.0434407 12.4383 0.000244141 12.5633 0.000244141 12.692C0.000244141 12.8207 0.0434407 12.9457 0.122917 13.047C0.362917 13.347 6.08292 20.385 12.4999 20.385C18.9179 20.385 24.6369 13.347 24.8769 13.047C24.951 12.9529 24.9937 12.838 24.9991 12.7183C25.0045 12.5987 24.9722 12.4804 24.9069 12.38V12.38ZM12.4999 19.286C7.35492 19.286 2.46292 14.11 1.21992 12.692C2.46192 11.274 7.34892 6.1 12.4999 6.1C18.5199 6.1 22.7689 11.268 23.8059 12.664C22.6079 14.036 17.6889 19.287 12.4999 19.287V19.286Z" fill="#D5EBA2"/>
<path d="M12.4999 7.88477C11.2251 7.88609 10.003 8.39307 9.10159 9.29446C8.2002 10.1958 7.69322 11.418 7.69189 12.6928C7.69348 13.9673 8.20058 15.1893 9.10194 16.0904C10.0033 16.9916 11.2253 17.4984 12.4999 17.4998C13.7745 17.4984 14.9965 16.9916 15.8979 16.0904C16.7992 15.1893 17.3063 13.9673 17.3079 12.6928C17.3066 11.418 16.7996 10.1958 15.8982 9.29446C14.9968 8.39307 13.7746 7.88609 12.4999 7.88477V7.88477ZM12.4999 16.2978C11.544 16.2967 10.6276 15.9166 9.95159 15.2408C9.27559 14.565 8.89522 13.6486 8.89389 12.6928C8.89495 11.7367 9.27521 10.8201 9.95124 10.1441C10.6273 9.46808 11.5438 9.08782 12.4999 9.08677C13.4559 9.08782 14.3725 9.46808 15.0486 10.1441C15.7246 10.8201 16.1048 11.7367 16.1059 12.6928C16.1046 13.6486 15.7242 14.565 15.0482 15.2408C14.3722 15.9166 13.4558 16.2967 12.4999 16.2978V16.2978Z" fill="#D5EBA2"/>
<path d="M12.5 16.2979C11.5442 16.2969 10.6277 15.9167 9.95174 15.2409C9.27574 14.5651 8.89537 13.6488 8.89404 12.6929C8.8951 11.7369 9.27536 10.8203 9.95139 10.1443C10.6274 9.46823 11.544 9.08797 12.5 9.08691C13.4561 9.08797 14.3727 9.46823 15.0487 10.1443C15.7247 10.8203 16.105 11.7369 16.106 12.6929C16.1047 13.6488 15.7243 14.5651 15.0483 15.2409C14.3723 15.9167 13.4559 16.2969 12.5 16.2979V16.2979Z" fill="#454545"/>
<path fill-rule="evenodd" clip-rule="evenodd" d="M12.4999 7.88477C11.2251 7.88609 10.003 8.39307 9.10159 9.29446C8.2002 10.1958 7.69322 11.418 7.69189 12.6928C7.69348 13.9673 8.20058 15.1893 9.10194 16.0904C10.0033 16.9916 11.2253 17.4984 12.4999 17.4998C13.7745 17.4984 14.9965 16.9916 15.8979 16.0904C16.7992 15.1893 17.3063 13.9673 17.3079 12.6928C17.3066 11.418 16.7996 10.1958 15.8982 9.29446C14.9968 8.39307 13.7746 7.88609 12.4999 7.88477V7.88477ZM8.89389 12.6928C8.89522 13.6486 9.27559 14.565 9.95159 15.2408C10.6276 15.9166 11.544 16.2967 12.4999 16.2978C13.4558 16.2967 14.3722 15.9166 15.0482 15.2408C15.7242 14.565 16.1046 13.6486 16.1059 12.6928C16.1048 11.7367 15.7246 10.8201 15.0486 10.1441C14.3725 9.46808 13.4559 9.08782 12.4999 9.08677C11.5438 9.08782 10.6273 9.46808 9.95124 10.1441C9.27521 10.8201 8.89495 11.7367 8.89389 12.6928V12.6928Z" fill="#D5EBA2"/>
</svg>
