<svg width="17" height="30" viewBox="0 0 17 30" fill="none" xmlns="http://www.w3.org/2000/svg">
<g clip-path="url(#clip0)">
<path fill-rule="evenodd" clip-rule="evenodd" d="M3.40098 0.597145L16.083 13.5601C16.4569 13.9463 16.6659 14.4627 16.6659 15.0001C16.6659 15.5376 16.4569 16.054 16.083 16.4401L3.39998 29.4031C3.21706 29.5919 2.99808 29.742 2.75604 29.8445C2.514 29.947 2.25383 29.9998 1.99098 29.9998C1.72813 29.9998 1.46796 29.947 1.22592 29.8445C0.983875 29.742 0.764895 29.5919 0.581979 29.4031C0.208081 29.017 -0.000976562 28.5006 -0.000976562 27.9631C-0.000976563 27.4257 0.208081 26.9093 0.581979 26.5231L11.855 15.0001L0.582979 3.47714C0.20908 3.09103 2.34374e-05 2.57462 2.34374e-05 2.03714C2.34374e-05 1.49967 0.20908 0.983259 0.582979 0.597145C0.765895 0.408381 0.984875 0.258295 1.22692 0.1558C1.46896 0.053304 1.72913 0.000488281 1.99198 0.000488281C2.25483 0.000488281 2.515 0.053304 2.75704 0.1558C2.99908 0.258295 3.21806 0.408381 3.40098 0.597145V0.597145Z" fill="#D5EBA2"/>
</g>
<defs>
<clipPath id="clip0">
<rect width="17" height="30" fill="white"/>
</clipPath>
</defs>
</svg>
