<svg width="30" height="30" viewBox="0 0 30 30" fill="none" xmlns="http://www.w3.org/2000/svg">
<path fill-rule="evenodd" clip-rule="evenodd" d="M15.013 1.8501C12.3276 1.8501 10.1034 2.62345 7.87795 4.0651C5.64826 5.50948 3.9097 7.56292 2.88287 9.96628C1.85601 12.3697 1.58726 15.0146 2.11082 17.5664C2.63436 20.1182 3.92652 22.4614 5.82312 24.3002C7.71375 26.1331 9.73202 27.3891 12.3686 27.8976C14.9979 28.4046 17.7233 28.1444 20.2003 27.1497C22.687 26.1511 24.3803 24.4601 25.8638 22.3076C27.3543 20.145 28.1501 17.6019 28.1501 15C28.1476 11.5116 26.7172 8.1678 24.1744 5.70262C21.6356 3.24127 18.6119 1.85248 15.013 1.8501ZM15.6216 7.73627V3.31303C17.3624 3.62413 18.9535 5.25794 19.9731 7.72808L15.6216 7.73627ZM14.4044 7.73656H10.0563C11.1073 5.27781 12.6362 3.63174 14.4044 3.32143V7.73656ZM18.5023 3.52726C20.938 4.24592 22.8016 5.70822 24.3635 7.71877H21.2648C20.7021 6.1246 19.7536 4.68783 18.5023 3.52726ZM8.77037 7.73656H5.62393C7.19516 5.72117 9.08676 4.25746 11.5353 3.54271C10.2829 4.70369 9.33338 6.14132 8.77037 7.73656ZM3.10157 14.3877C3.2002 12.4542 3.78569 10.5727 4.80769 8.90797H8.38952C7.8501 10.6887 7.56018 12.5318 7.52765 14.3877H3.10157ZM22.4983 14.3877C22.4658 12.5318 22.1759 10.6887 21.6364 8.90797H25.1655C26.1967 10.5704 26.7913 12.452 26.898 14.3877H22.4983ZM8.7441 14.3877C8.76794 12.5305 9.06268 10.6858 9.61967 8.90835L14.4044 8.92522V14.3877H8.7441ZM15.6216 14.3877V8.92575H20.4062C20.9615 10.6976 21.2562 12.5363 21.2817 14.3877H15.6216ZM4.99742 21.3768C3.85589 19.6354 3.20272 17.6363 3.1013 15.5769H7.5289C7.58036 17.5491 7.92972 19.5032 8.56569 21.3768H4.99742ZM9.81731 21.3768C9.15387 19.5084 8.79245 17.552 8.74572 15.5769H14.4044V21.3768H9.81731ZM15.6308 21.3768V15.5769H21.28C21.2305 17.5525 20.8661 19.5089 20.1997 21.3768H15.6308ZM21.4691 21.3768C22.1022 19.5027 22.4486 17.5487 22.4973 15.5769H26.8897C26.7883 17.6363 26.1351 19.6354 24.9936 21.3768H21.4691ZM14.4136 26.3944C12.7804 26.1107 11.364 24.7246 10.3241 22.566H14.4136V26.3944ZM15.6308 26.3938V22.566H19.7197C18.6789 24.7147 17.2328 26.1082 15.6308 26.3938ZM12.0431 26.5806C9.53717 25.9646 7.55035 24.5682 5.88552 22.5837H9.01264C9.63173 24.1621 10.6813 25.5425 12.0431 26.5806ZM17.9412 26.6053C19.3188 25.5643 20.3802 24.1746 21.0042 22.5837H24.1065C22.4381 24.5834 20.4612 25.9891 17.9412 26.6053Z" fill="#D5EBA2"/>
</svg>
