<svg width="30" height="30" viewBox="0 0 30 30" fill="none" xmlns="http://www.w3.org/2000/svg">
<path fill-rule="evenodd" clip-rule="evenodd" d="M3.79995 4.8002H15.5V3.2002H3.49995C2.78198 3.2002 2.19995 3.78223 2.19995 4.5002V26.5002C2.19995 27.2182 2.78197 27.8002 3.49995 27.8002H26.5C27.218 27.8002 27.7999 27.2182 27.7999 26.5002V15.0002H26.2V26.2002H3.79995V4.8002Z" fill="#D5EBA2"/>
<path fill-rule="evenodd" clip-rule="evenodd" d="M27.9719 9.85474L27.9999 1.88269C28.0016 1.39348 27.6064 0.998293 27.1172 1.00001L19.1452 1.02796C18.656 1.02968 18.258 1.42765 18.2563 1.91685C18.2546 2.40606 18.6498 2.80125 19.139 2.79953L24.9725 2.77908L14.3906 13.361L15.6389 14.6093L26.2208 4.02737L26.2004 9.86095C26.1987 10.3501 26.5939 10.7453 27.0831 10.7436C27.5723 10.7419 27.9702 10.3439 27.9719 9.85474Z" fill="#D5EBA2"/>
</svg>
