<svg width="20" height="20" viewBox="0 0 20 20" fill="none" xmlns="http://www.w3.org/2000/svg">
<path fill-rule="evenodd" clip-rule="evenodd" d="M10.539 14.7778C11.0469 14.6467 11.4895 14.3349 11.7839 13.9008C12.0784 13.4667 12.2044 12.9401 12.1383 12.4197C12.0722 11.8994 11.8187 11.421 11.4251 11.0742C11.0315 10.7274 10.525 10.5361 10.0005 10.5361C9.47593 10.5361 8.9694 10.7274 8.57584 11.0742C8.18227 11.421 7.92869 11.8994 7.86262 12.4197C7.79656 12.9401 7.92255 13.4667 8.21699 13.9008C8.51142 14.3349 8.95407 14.6467 9.46196 14.7778V16.4618H10.539V14.7778ZM9.99996 13.8458C10.1543 13.8503 10.308 13.8238 10.4519 13.7679C10.5958 13.712 10.7271 13.6278 10.8378 13.5202C10.9486 13.4126 11.0367 13.2839 11.0968 13.1417C11.1569 12.9995 11.1879 12.8467 11.1879 12.6923C11.1879 12.5379 11.1569 12.385 11.0968 12.2428C11.0367 12.1006 10.9486 11.9719 10.8378 11.8643C10.7271 11.7568 10.5958 11.6725 10.4519 11.6166C10.308 11.5607 10.1543 11.5342 9.99996 11.5388C9.69992 11.5476 9.41512 11.673 9.20601 11.8884C8.9969 12.1037 8.87993 12.3921 8.87993 12.6923C8.87993 12.9924 8.9969 13.2808 9.20601 13.4962C9.41512 13.7115 9.69992 13.8369 9.99996 13.8458V13.8458Z" fill="#D5EBA2"/>
<path fill-rule="evenodd" clip-rule="evenodd" d="M14.808 7.34579V5.69179C14.808 4.41663 14.3015 3.19369 13.3998 2.29202C12.4981 1.39034 11.2752 0.883789 10 0.883789C8.72488 0.883789 7.50194 1.39034 6.60027 2.29202C5.69859 3.19369 5.19204 4.41663 5.19204 5.69179V7.34579H4.04004C3.77482 7.34579 3.52047 7.45115 3.33293 7.63868C3.1454 7.82622 3.04004 8.08057 3.04004 8.34579V18.1158C3.04004 18.381 3.1454 18.6354 3.33293 18.8229C3.52047 19.0104 3.77482 19.1158 4.04004 19.1158H15.963C16.2283 19.1158 16.4826 19.0104 16.6701 18.8229C16.8577 18.6354 16.963 18.381 16.963 18.1158V8.34579C16.963 8.08057 16.8577 7.82622 16.6701 7.63868C16.4826 7.45115 16.2283 7.34579 15.963 7.34579H14.809H14.808ZM13.808 5.69179C13.808 4.68184 13.4068 3.71326 12.6927 2.99913C11.9786 2.28499 11.01 1.88379 10 1.88379C8.99009 1.88379 8.02151 2.28499 7.30738 2.99913C6.59324 3.71326 6.19204 4.68184 6.19204 5.69179V7.34579H13.808V5.69179ZM4.03804 18.1158V8.34579H15.962V18.1158H4.03904H4.03804Z" fill="#D5EBA2"/>
</svg>
