<svg width="30" height="30" viewBox="0 0 30 30" fill="none" xmlns="http://www.w3.org/2000/svg">
<path d="M27 6H3V24H27V6Z" fill="#454545"/>
<path fill-rule="evenodd" clip-rule="evenodd" d="M2.25 6.75C2.25 5.92157 2.92157 5.25 3.75 5.25H26.25C27.0784 5.25 27.75 5.92157 27.75 6.75V23.25C27.75 24.0784 27.0784 24.75 26.25 24.75H3.75C2.92157 24.75 2.25 24.0784 2.25 23.25V6.75ZM26.25 6.75H3.75V23.25H26.25V6.75Z" fill="#D5EBA2"/>
<path fill-rule="evenodd" clip-rule="evenodd" d="M15 14.8124L3.45005 6.1499L2.55005 7.3499L14.28 16.1474C14.7067 16.4674 15.2933 16.4674 15.72 16.1474L27.4501 7.3499L26.55 6.1499L15 14.8124Z" fill="#D5EBA2"/>
</svg>
