<svg width="27" height="16" viewBox="0 0 27 16" fill="none" xmlns="http://www.w3.org/2000/svg">
<path fill-rule="evenodd" clip-rule="evenodd" d="M20.343 15.0698L26.707 8.70585C26.8945 8.51832 26.9998 8.26401 26.9998 7.99885C26.9998 7.73368 26.8945 7.47937 26.707 7.29185L20.343 0.927847C20.2508 0.832337 20.1404 0.756154 20.0184 0.703745C19.8964 0.651336 19.7652 0.62375 19.6324 0.622596C19.4996 0.621443 19.3679 0.646744 19.245 0.697025C19.1222 0.747306 19.0105 0.821559 18.9166 0.915452C18.8227 1.00934 18.7485 1.121 18.6982 1.24389C18.6479 1.36679 18.6226 1.49847 18.6237 1.63125C18.6249 1.76403 18.6525 1.89525 18.7049 2.01725C18.7573 2.13926 18.8335 2.2496 18.929 2.34185L23.586 6.99985H0V8.99985H23.586L18.929 13.6568C18.7468 13.8454 18.646 14.0981 18.6483 14.3602C18.6506 14.6224 18.7558 14.8733 18.9412 15.0587C19.1266 15.2441 19.3774 15.3492 19.6396 15.3515C19.9018 15.3538 20.1544 15.253 20.343 15.0708V15.0698Z" fill="#D5EBA2"/>
</svg>
