<svg width="19" height="10" viewBox="0 0 19 10" fill="none" xmlns="http://www.w3.org/2000/svg">
<path fill-rule="evenodd" clip-rule="evenodd" d="M13.895 9.71508L18.138 5.47208C18.263 5.347 18.3332 5.17741 18.3332 5.00058C18.3332 4.82375 18.263 4.65415 18.138 4.52908L13.895 0.287078C13.8337 0.222658 13.76 0.171163 13.6785 0.135622C13.5969 0.10008 13.5091 0.0812123 13.4201 0.0801277C13.3312 0.0790431 13.2429 0.0957638 13.1605 0.129306C13.0781 0.162848 13.0033 0.212533 12.9404 0.275438C12.8775 0.338342 12.8278 0.413195 12.7942 0.49559C12.7607 0.577984 12.744 0.666257 12.7451 0.75521C12.7461 0.844164 12.765 0.932002 12.8006 1.01355C12.8361 1.09511 12.8876 1.16873 12.952 1.23008L16.057 4.33408H0.333008V5.66808H16.057L12.952 8.77208C12.8876 8.83343 12.8361 8.90705 12.8006 8.9886C12.765 9.07015 12.7461 9.15799 12.7451 9.24695C12.744 9.3359 12.7607 9.42417 12.7942 9.50657C12.8278 9.58896 12.8775 9.66381 12.9404 9.72672C13.0033 9.78962 13.0781 9.83931 13.1605 9.87285C13.2429 9.90639 13.3312 9.92311 13.4201 9.92203C13.5091 9.92094 13.5969 9.90208 13.6785 9.86654C13.76 9.83099 13.8337 9.7795 13.895 9.71508V9.71508Z" fill="#D5EBA2"/>
</svg>
