<svg width="30" height="30" viewBox="0 0 30 30" fill="none" xmlns="http://www.w3.org/2000/svg">
<path fill-rule="evenodd" clip-rule="evenodd" d="M19.4138 21.1667C17.4737 22.7226 15.0104 23.6534 12.3297 23.6534C6.07248 23.6534 1 18.5823 1 12.3267C1 6.07114 6.07248 1 12.3297 1C18.5869 1 23.6594 6.07114 23.6594 12.3267C23.6594 15.0105 22.7258 17.4763 21.1654 19.4172L29 27.2496L27.2492 29L19.4138 21.1667ZM21.5995 12.3267C21.5995 17.4449 17.4493 21.594 12.3297 21.594C7.21016 21.594 3.05995 17.4449 3.05995 12.3267C3.05995 7.20851 7.21016 3.0594 12.3297 3.0594C17.4493 3.0594 21.5995 7.20851 21.5995 12.3267Z" fill="#D5EBA2"/>
</svg>
