<svg width="30" height="30" viewBox="0 0 30 30" fill="none" xmlns="http://www.w3.org/2000/svg">
<path d="M24.1754 16.175C24.2268 15.8 24.2525 15.4125 24.2525 15C24.2525 14.6 24.2268 14.2 24.1626 13.825L26.7713 11.85C27.0026 11.675 27.0668 11.3375 26.9255 11.0875L24.4581 6.9375C24.3039 6.6625 23.9827 6.575 23.6999 6.6625L20.6286 7.8625C19.9861 7.3875 19.305 6.9875 18.5468 6.6875L18.0842 3.5125C18.0328 3.2125 17.7758 3 17.4673 3H12.5327C12.2242 3 11.9801 3.2125 11.9287 3.5125L11.4661 6.6875C10.7079 6.9875 10.0139 7.4 9.38424 7.8625L6.31292 6.6625C6.0302 6.5625 5.70893 6.6625 5.55472 6.9375L3.10024 11.0875C2.94603 11.35 2.99743 11.675 3.25444 11.85L5.86314 13.825C5.79889 14.2 5.74748 14.6125 5.74748 15C5.74748 15.3875 5.77319 15.8 5.83744 16.175L3.22874 18.15C2.99743 18.325 2.93318 18.6625 3.07453 18.9125L5.54187 23.0625C5.69608 23.3375 6.01735 23.425 6.30006 23.3375L9.37139 22.1375C10.0139 22.6125 10.695 23.0125 11.4532 23.3125L11.9158 26.4875C11.9801 26.7875 12.2242 27 12.5327 27H17.4673C17.7758 27 18.0328 26.7875 18.0713 26.4875L18.5339 23.3125C19.2921 23.0125 19.9861 22.6125 20.6158 22.1375L23.6871 23.3375C23.9698 23.4375 24.2911 23.3375 24.4453 23.0625L26.9126 18.9125C27.0668 18.6375 27.0026 18.325 26.7584 18.15L24.1754 16.175ZM15 19.5C12.4556 19.5 10.3737 17.475 10.3737 15C10.3737 12.525 12.4556 10.5 15 10.5C17.5444 10.5 19.6263 12.525 19.6263 15C19.6263 17.475 17.5444 19.5 15 19.5Z" fill="#D5EBA2"/>
</svg>
