<svg width="21" height="12" viewBox="0 0 21 12" fill="none" xmlns="http://www.w3.org/2000/svg">
<g clip-path="url(#clip0)">
<path fill-rule="evenodd" clip-rule="evenodd" d="M0.418133 2.44983L9.49213 11.5798C10.0491 12.1398 10.9521 12.1398 11.5081 11.5798L20.5821 2.44983C20.85 2.17992 21.0003 1.81508 21.0003 1.43483C21.0003 1.05458 20.85 0.689745 20.5821 0.419832C20.4501 0.286798 20.2931 0.181209 20.1201 0.109153C19.9471 0.0370974 19.7615 0 19.5741 0C19.3867 0 19.2012 0.0370974 19.0282 0.109153C18.8552 0.181209 18.6981 0.286798 18.5661 0.419832L10.6221 8.41283H10.3781L2.43413 0.419832C2.30213 0.286798 2.1451 0.181209 1.9721 0.109153C1.7991 0.0370974 1.61354 0 1.42613 0C1.23872 0 1.05317 0.0370974 0.880166 0.109153C0.707163 0.181209 0.550134 0.286798 0.418133 0.419832C0.150296 0.689745 0 1.05458 0 1.43483C0 1.81508 0.150296 2.17992 0.418133 2.44983V2.44983Z" fill="#D5EBA2"/>
</g>
<defs>
<clipPath id="clip0">
<rect width="21" height="12" fill="white"/>
</clipPath>
</defs>
</svg>
