<svg width="21" height="12" viewBox="0 0 21 12" fill="none" xmlns="http://www.w3.org/2000/svg">
<g clip-path="url(#clip0)">
<path fill-rule="evenodd" clip-rule="evenodd" d="M0.418133 9.54983L9.49213 0.419832C9.62413 0.286798 9.78116 0.181209 9.95417 0.109153C10.1272 0.0370974 10.3127 0 10.5001 0C10.6875 0 10.8731 0.0370974 11.0461 0.109153C11.2191 0.181209 11.3761 0.286798 11.5081 0.419832L20.5821 9.54983C21.1391 10.1108 21.1391 11.0198 20.5821 11.5798C20.4501 11.7129 20.2931 11.8185 20.1201 11.8905C19.9471 11.9626 19.7615 11.9997 19.5741 11.9997C19.3867 11.9997 19.2012 11.9626 19.0282 11.8905C18.8552 11.8185 18.6981 11.7129 18.5661 11.5798L10.5001 3.46383L2.43413 11.5798C2.30213 11.7129 2.1451 11.8185 1.9721 11.8905C1.7991 11.9626 1.61354 11.9997 1.42613 11.9997C1.23872 11.9997 1.05317 11.9626 0.880166 11.8905C0.707163 11.8185 0.550134 11.7129 0.418133 11.5798C0.150296 11.3099 0 10.9451 0 10.5648C0 10.1846 0.150296 9.81975 0.418133 9.54983V9.54983Z" fill="#D5EBA2"/>
</g>
<defs>
<clipPath id="clip0">
<rect width="21" height="12" fill="white"/>
</clipPath>
</defs>
</svg>
