<svg width="20" height="20" xmlns="http://www.w3.org/2000/svg">

 <g>
  <title>Layer 1</title>
  <path id="svg_1" fill="#d5eba2" d="m10,17.6a7.6,7.6 0 1 0 0,-15.2a7.6,7.6 0 0 0 0,15.2zm0,1.07a8.67,8.67 0 1 0 0,-17.34a8.67,8.67 0 0 0 0,17.34z" clip-rule="evenodd" fill-rule="evenodd"/>
  <path id="svg_2" fill="#d5eba2" d="m10.5,7.77a0.77,0.77 0 0 1 -0.59,-0.26a0.88,0.88 0 0 1 -0.24,-0.62c0,-0.24 0.08,-0.45 0.24,-0.62a0.76,0.76 0 0 1 0.59,-0.27c0.23,0 0.42,0.09 0.58,0.27c0.17,0.17 0.25,0.38 0.25,0.62a0.86,0.86 0 0 1 -0.25,0.62a0.77,0.77 0 0 1 -0.58,0.26zm-0.71,6.23c-0.34,0 -0.61,-0.11 -0.82,-0.33c-0.2,-0.23 -0.3,-0.56 -0.3,-1c0,-0.2 0.02,-0.43 0.08,-0.73l0.71,-3.57l1.5,0l-0.75,3.78a1.46,1.46 0 0 0 -0.04,0.36c0,0.15 0.03,0.26 0.1,0.32s0.18,0.1 0.33,0.1a0.8,0.8 0 0 0 0.33,-0.08c-0.02,0.37 -0.15,0.66 -0.37,0.86c-0.22,0.2 -0.48,0.29 -0.78,0.29l0.01,0z"/>
 </g>
</svg>