<svg width="30" height="30" viewBox="0 0 30 30" fill="none" xmlns="http://www.w3.org/2000/svg">
<path d="M19.1779 24.9702H17.7859V27.1202H19.1779V24.9702Z" fill="#D5EBA2"/>
<path fill-rule="evenodd" clip-rule="evenodd" d="M21.059 16.0379C21.983 15.2087 22.5551 14.0578 22.6582 12.8207C22.7614 11.5836 22.3879 10.3539 21.6141 9.38314C20.8402 8.41242 19.7247 7.77415 18.4957 7.59899C17.2667 7.42382 16.0172 7.72499 15.003 8.44087C13.9887 7.72487 12.7392 7.42348 11.51 7.59835C10.2809 7.77321 9.16497 8.41112 8.3906 9.38157C7.61623 10.352 7.24192 11.5817 7.34424 12.819C7.44655 14.0563 8.01777 15.2078 8.94104 16.0379C7.82312 16.6274 6.88812 17.5119 6.23758 18.5955C5.58704 19.679 5.24584 20.9201 5.25104 22.1839V23.2729L6.64304 23.3329V22.1829C6.63827 21.0317 6.99248 19.9077 7.65635 18.9673C8.32022 18.0269 9.26075 17.3168 10.347 16.9359C10.9388 17.1822 11.5735 17.309 12.2145 17.309C12.8556 17.309 13.4902 17.1822 14.082 16.9359C14.4462 17.0675 14.795 17.2385 15.122 17.4459L15.178 17.4809L15.228 17.5109C15.302 17.5569 15.376 17.6029 15.448 17.6539C15.582 17.7499 15.708 17.8539 15.834 17.9599C16.1215 18.201 16.382 18.4726 16.611 18.7699C16.7799 18.9846 16.931 19.2127 17.063 19.4519C17.133 19.5719 17.196 19.6919 17.255 19.8169C17.3248 19.9696 17.3875 20.1254 17.443 20.2839C17.478 20.3739 17.513 20.4659 17.542 20.5589C17.591 20.7209 17.625 20.8879 17.659 21.0549L17.682 21.1569C17.697 21.2209 17.712 21.2849 17.722 21.3509C17.763 21.6269 17.785 21.9049 17.786 22.1839V24.9689H19.178V22.1839C19.178 21.9659 19.166 21.7499 19.146 21.5359C19.143 21.4979 19.138 21.4609 19.134 21.4239L19.124 21.3489C19.0786 20.9518 18.9976 20.5595 18.882 20.1769L18.855 20.0849C18.6601 19.4614 18.3776 18.8689 18.016 18.3249L17.989 18.2849C17.8691 18.1073 17.741 17.9355 17.605 17.7699L17.6 17.7639C17.461 17.5909 17.31 17.4229 17.151 17.2639H17.18C17.376 17.2899 17.574 17.3039 17.773 17.3059H17.811C18.035 17.3031 18.2585 17.2851 18.48 17.2519L18.53 17.2439C18.678 17.2209 18.825 17.1919 18.969 17.1559L19.005 17.1459C19.035 17.1389 19.065 17.1319 19.094 17.1229C19.2834 17.0714 19.4695 17.0083 19.651 16.9339C20.7382 17.3146 21.6795 18.025 22.3438 18.9661C23.0081 19.9071 23.3623 21.032 23.357 22.1839V23.3339L24.75 23.2729V22.1829C24.755 20.9191 24.4135 19.6782 23.7628 18.5948C23.1121 17.5115 22.177 16.6272 21.059 16.0379V16.0379ZM17.786 8.95187C18.5818 8.95102 19.3538 9.22317 19.9732 9.7229C20.5925 10.2226 21.0217 10.9197 21.189 11.6977C21.3564 12.4757 21.2518 13.2875 20.8927 13.9977C20.5336 14.7079 19.9418 15.2734 19.216 15.5999C19.173 15.6199 19.128 15.6379 19.084 15.6569L19.055 15.6689C18.883 15.7389 18.706 15.7939 18.525 15.8339C18.505 15.8389 18.485 15.8419 18.466 15.8449L18.42 15.8529C18.218 15.8919 18.013 15.9129 17.807 15.9149C17.7142 15.914 17.6214 15.909 17.529 15.8999C17.494 15.8999 17.459 15.8999 17.424 15.8929C17.0281 15.8462 16.6429 15.7326 16.285 15.5569C16.2783 15.554 16.2713 15.5519 16.264 15.5509C16.257 15.5499 16.25 15.5489 16.244 15.5459C16.2261 15.5374 16.2081 15.5291 16.19 15.5209C16.139 15.4969 16.088 15.4739 16.042 15.4459L16.05 15.4349C16.373 15.0216 16.6272 14.559 16.803 14.0649L16.825 14.0069C16.9148 13.7421 16.9817 13.4701 17.025 13.1939V13.1819C17.0655 12.9345 17.0869 12.6845 17.089 12.4339C17.0872 12.1833 17.0661 11.9332 17.026 11.6859L17.021 11.6529C16.9778 11.3842 16.9122 11.1196 16.825 10.8619L16.803 10.8029C16.626 10.3048 16.3693 9.83874 16.043 9.42287C16.5721 9.11437 17.1736 8.95184 17.786 8.95187V8.95187ZM8.73204 12.4339C8.72996 11.7379 8.93705 11.0573 9.32644 10.4805C9.71583 9.90359 10.2696 9.45702 10.9158 9.19866C11.5621 8.94031 12.2711 8.88209 12.9508 9.03155C13.6306 9.18101 14.2497 9.53125 14.728 10.0369C14.8747 10.1914 15.0072 10.3587 15.124 10.5369L15.145 10.5709C15.243 10.7209 15.328 10.8779 15.401 11.0409L15.431 11.1189L15.447 11.1609C15.521 11.3409 15.578 11.5279 15.62 11.7179L15.626 11.7539L15.63 11.7809C15.718 12.2139 15.718 12.6589 15.63 13.0909L15.626 13.1199C15.5822 13.337 15.5172 13.5494 15.432 13.7539L15.402 13.8319C15.328 13.9949 15.242 14.1519 15.146 14.3019L15.123 14.3369C15.103 14.3699 15.081 14.4029 15.059 14.4349C14.926 14.6219 14.7754 14.7957 14.609 14.9539C14.3274 15.2228 14.0025 15.4425 13.648 15.6039C13.591 15.6289 13.534 15.6529 13.476 15.6729C13.308 15.7389 13.136 15.7929 12.959 15.8329C12.9151 15.8427 12.8707 15.8504 12.826 15.8559C12.636 15.8909 12.445 15.9099 12.253 15.9139H12.176C11.9685 15.9109 11.7617 15.8891 11.558 15.8489L11.469 15.8329C11.2487 15.7834 11.0337 15.7127 10.827 15.6219L10.781 15.6029C10.1709 15.3274 9.65314 14.8818 9.28973 14.3196C8.92633 13.7574 8.7327 13.1023 8.73204 12.4329V12.4339Z" fill="#D5EBA2"/>
<path fill-rule="evenodd" clip-rule="evenodd" d="M28.001 15C28.001 22.18 22.181 28 15.001 28C7.82098 28 2.00098 22.18 2.00098 15C2.00098 7.82 7.82098 2 15.001 2C22.181 2 28.001 7.82 28.001 15ZM15.001 26.5C21.352 26.5 26.501 21.351 26.501 15C26.501 8.649 21.352 3.5 15.001 3.5C8.64998 3.5 3.50098 8.65 3.50098 15C3.50098 21.35 8.64998 26.5 15.001 26.5V26.5Z" fill="#D5EBA2"/>
</svg>
