<svg width="30" height="30" viewBox="0 0 30 30" fill="none" xmlns="http://www.w3.org/2000/svg">
<path d="M14.9999 27.5999L12.9989 25.7871C5.89195 19.3738 1.19995 15.1441 1.19995 9.95304C1.19995 5.72328 4.53955 2.3999 8.78995 2.3999C11.1911 2.3999 13.4957 3.51227 14.9999 5.27009C16.5041 3.51227 18.8087 2.3999 21.2099 2.3999C25.4603 2.3999 28.7999 5.72328 28.7999 9.95304C28.7999 15.1441 24.1079 19.3738 17.0009 25.8009L14.9999 27.5999Z" fill="#454545"/>
<path fill-rule="evenodd" clip-rule="evenodd" d="M12.9989 25.7871L14.9999 27.5999L17.0009 25.8009L17.0554 25.7516C24.1319 19.3522 28.7999 15.1308 28.7999 9.95304C28.7999 5.72328 25.4603 2.3999 21.2099 2.3999C19.3275 2.3999 17.5045 3.08352 16.0799 4.2258C15.6873 4.54062 15.3249 4.89029 14.9999 5.27009C14.6749 4.89029 14.3125 4.54062 13.9199 4.2258C12.4953 3.08352 10.6723 2.3999 8.78995 2.3999C4.53955 2.3999 1.19995 5.72328 1.19995 9.95304C1.19995 15.1398 5.88425 19.3669 12.9814 25.7714L12.9989 25.7871ZM15.0037 25.5794L14.006 24.6755L14.0038 24.6735C10.42 21.4395 7.56766 18.8616 5.59313 16.4593C3.63561 14.0777 2.69995 12.0534 2.69995 9.95304C2.69995 6.55859 5.36109 3.8999 8.78995 3.8999C10.7397 3.8999 12.6323 4.81044 13.8602 6.24535L14.9999 7.57719L16.1396 6.24535C17.3675 4.81044 19.2602 3.8999 21.2099 3.8999C24.6388 3.8999 27.2999 6.55859 27.2999 9.95304C27.2999 12.0535 26.3643 14.0777 24.4064 16.4614C22.4318 18.8655 19.5798 21.4464 15.9963 24.687L15.9948 24.6883L15.0037 25.5794Z" fill="#D5EBA2"/>
</svg>
