<svg width="30" height="30" viewBox="0 0 30 30" fill="none" xmlns="http://www.w3.org/2000/svg">
<path d="M12 19.0001V9.99998L19.7939 14.5001L12 19.0001ZM29.373 7.27918C29.028 5.9885 28.0116 4.97188 26.7208 4.62692C24.3812 4.00001 14.9999 4 14.9999 4C14.9999 4 5.61874 4.00001 3.27915 4.62692C1.98848 4.97188 0.971861 5.9885 0.62691 7.27918C0 9.61877 0 14.5 0 14.5C0 14.5 0 19.3814 0.62691 21.7209C0.971861 23.0115 1.98848 24.0282 3.27915 24.373C5.61874 25.0001 14.9999 25.0001 14.9999 25.0001C14.9999 25.0001 24.3812 25.0001 26.7208 24.373C28.0116 24.0282 29.028 23.0115 29.373 21.7209C30 19.3814 30 14.5 30 14.5C30 14.5 30 9.61877 29.373 7.27918Z" fill="#D5EBA2"/>
</svg>
