<svg width="30" height="30" viewBox="0 0 30 30" fill="none" xmlns="http://www.w3.org/2000/svg">
<path fill-rule="evenodd" clip-rule="evenodd" d="M9.13996 11.0041C9.13351 11.019 9.12313 11.032 9.10992 11.0415C9.09671 11.051 9.08118 11.0567 9.06496 11.0581L0.41496 11.8341C0.326423 11.8406 0.24183 11.8733 0.171962 11.9281C0.102094 11.9829 0.0501171 12.0572 0.0226559 12.1416C-0.00480524 12.2261 -0.00650668 12.3167 0.0177685 12.4021C0.0420437 12.4875 0.0911959 12.5638 0.15896 12.6211L6.67796 18.1611C6.69041 18.1717 6.6997 18.1855 6.70481 18.201C6.70993 18.2166 6.71067 18.2332 6.70696 18.2491L4.79696 26.4491C4.70696 26.8321 5.12496 27.1351 5.46896 26.9381L12.954 22.6381C12.9679 22.63 12.9838 22.6258 13 22.6258C13.0161 22.6258 13.032 22.63 13.046 22.6381L20.531 26.9381C20.875 27.1361 21.293 26.8331 21.204 26.4501L19.294 18.2501C19.2901 18.234 19.2907 18.2172 19.2958 18.2015C19.3009 18.1858 19.3103 18.1718 19.323 18.1611L25.841 12.6211C25.9087 12.5638 25.9579 12.4875 25.9822 12.4021C26.0064 12.3167 26.0047 12.2261 25.9773 12.1416C25.9498 12.0572 25.8978 11.9829 25.828 11.9281C25.7581 11.8733 25.6735 11.8406 25.585 11.8341L16.935 11.0581C16.9188 11.0566 16.9033 11.0508 16.8901 11.0413C16.8769 11.0318 16.8665 11.019 16.86 11.0041L13.417 3.2681C13.3806 3.18802 13.3219 3.1201 13.248 3.07247C13.174 3.02484 13.0879 2.99951 13 2.99951C12.912 2.99951 12.8259 3.02484 12.752 3.07247C12.678 3.1201 12.6193 3.18802 12.583 3.2681L9.13996 11.0041ZM13 6.3521L10.64 11.6531C10.387 12.2231 9.83996 12.6101 9.21296 12.6661L3.34196 13.1931L7.74696 16.9381C8.23296 17.3511 8.44696 17.9941 8.30396 18.6111L7.00396 24.1861L12.129 21.2421C12.3941 21.0901 12.6944 21.0101 13 21.0101C13.3056 21.0101 13.6058 21.0901 13.871 21.2421L18.995 24.1861L17.696 18.6111C17.6258 18.308 17.6407 17.9914 17.739 17.6962C17.8373 17.401 18.0151 17.1387 18.253 16.9381L22.658 13.1931L16.787 12.6661C16.4805 12.6396 16.1866 12.5317 15.9357 12.3536C15.6849 12.1755 15.4861 11.9337 15.36 11.6531L13 6.3521Z" fill="#FDFDFF"/>
</svg>
