<svg width="30" height="30" viewBox="0 0 30 30" fill="none" xmlns="http://www.w3.org/2000/svg"><path fill-rule="evenodd" clip-rule="evenodd" d="M2 4.857c0-.789.647-1.428 1.444-1.428h23.112c.797 0 1.444.64 1.444 1.428v20.714c0 .79-.647 1.429-1.444 1.429H3.444C2.647 27 2 26.36 2 25.571V4.857zm1.444 0v20.714h23.112V4.857H3.444z" fill="#3D3731"/><path fill-rule="evenodd" clip-rule="evenodd" d="M4.889 11.429c0-.474.388-.858.867-.858H9.8c.479 0 .867.384.867.858v4a.862.862 0 01-.867.857H5.756a.862.862 0 01-.867-.857v-4zM6.333 12v2.857h2.89V12h-2.89zM12.111 11.429c0-.474.388-.858.867-.858h4.044c.479 0 .867.384.867.858v4a.862.862 0 01-.867.857h-4.044a.862.862 0 01-.867-.857v-4zm1.445.571v2.857h2.888V12h-2.888zM19.333 11.429c0-.474.388-.858.867-.858h4.044c.48 0 .867.384.867.858v4a.862.862 0 01-.867.857H20.2a.862.862 0 01-.867-.857v-4zm1.445.571v2.857h2.889V12h-2.89zM4.889 18.571c0-.473.388-.857.867-.857H9.8c.479 0 .867.384.867.857v4a.862.862 0 01-.867.858H5.756a.862.862 0 01-.867-.858v-4zm1.444.572V22h2.89v-2.857h-2.89zM12.111 18.571c0-.473.388-.857.867-.857h4.044c.479 0 .867.384.867.857v4a.862.862 0 01-.867.858h-4.044a.862.862 0 01-.867-.858v-4zm1.445.572V22h2.888v-2.857h-2.888zM19.333 18.571c0-.473.388-.857.867-.857h4.044c.48 0 .867.384.867.857v4a.862.862 0 01-.867.858H20.2a.862.862 0 01-.867-.858v-4zm1.445.572V22h2.889v-2.857h-2.89zM26.556 9.143H3.444V7.714h23.112v1.429zM7.778 2v4.286H6.333V2h1.445zM9.944 2v4.286H8.5V2h1.444zM23.667 2v4.286h-1.445V2h1.445zM21.5 2v4.286h-1.444V2H21.5z" fill="#3D3731"/></svg>