<svg width="30" height="30" viewBox="0 0 30 30" fill="none" xmlns="http://www.w3.org/2000/svg"><path d="M23.339 7.001c-.416.014-.81.198-1.099.513-3.914 4.128-6.878 7.553-10.56 11.495l-4.045-3.6a1.58 1.58 0 00-.545-.32 1.524 1.524 0 00-1.22.104c-.186.1-.353.239-.489.407-.136.168-.24.363-.304.573a1.765 1.765 0 00.098 1.284c.096.196.228.371.387.514l5.193 4.625c.307.276.7.42 1.104.402a1.562 1.562 0 001.069-.494c4.293-4.529 7.356-8.153 11.584-12.612.233-.237.392-.543.456-.877.064-.334.03-.68-.096-.994a1.663 1.663 0 00-.616-.76 1.538 1.538 0 00-.917-.26z" fill="#3D3731"/></svg>