<svg width="30" height="30" viewBox="0 0 30 30" fill="none" xmlns="http://www.w3.org/2000/svg"><path d="M3.5 9v17.5h17v-6h6l.5-17H9V9H3.5z" fill="currentColor"/><path fill-rule="evenodd" clip-rule="evenodd" d="M2.5 10.098c0-.948.768-1.716 1.716-1.716h15.686c.947 0 1.716.768 1.716 1.716v15.686c0 .948-.768 1.716-1.716 1.716H4.216A1.716 1.716 0 012.5 25.784V10.098zm1.716-.245a.245.245 0 00-.245.245v15.686c0 .136.11.245.245.245h15.686c.135 0 .245-.11.245-.245V10.098a.245.245 0 00-.245-.245H4.216z" fill="#3D3731"/><path fill-rule="evenodd" clip-rule="evenodd" d="M8.382 4.216c0-.948.768-1.716 1.716-1.716h15.686c.948 0 1.716.768 1.716 1.716v15.686c0 .947-.768 1.716-1.716 1.716h-4.902v-1.47h4.902c.136 0 .245-.11.245-.246V4.216a.245.245 0 00-.245-.245H10.098a.245.245 0 00-.245.245v4.902h-1.47V4.216z" fill="#3D3731"/></svg>