<svg width="25" height="25" fill="none" xmlns="http://www.w3.org/2000/svg"><path d="M24.907 12.38C24.711 12.078 19.98 5 12.5 5 6.082 5 .363 12.037.123 12.337a.575.575 0 000 .71c.24.3 5.96 7.338 12.377 7.338 6.418 0 12.137-7.038 12.377-7.338a.573.573 0 00.03-.667zM12.5 19.286c-5.145 0-10.037-5.176-11.28-6.594C2.462 11.274 7.349 6.1 12.5 6.1c6.02 0 10.269 5.168 11.306 6.564-1.198 1.372-6.117 6.623-11.306 6.623z" fill="#3D3731"/><path d="M12.5 7.885a4.813 4.813 0 00-4.808 4.808A4.813 4.813 0 0012.5 17.5a4.813 4.813 0 004.808-4.807A4.813 4.813 0 0012.5 7.885zm0 8.413a3.61 3.61 0 01-3.606-3.605A3.61 3.61 0 0112.5 9.087a3.61 3.61 0 013.606 3.606 3.61 3.61 0 01-3.606 3.605z" fill="#A8A69F"/><path d="M12.5 16.298a3.61 3.61 0 01-3.606-3.605A3.61 3.61 0 0112.5 9.087a3.61 3.61 0 013.606 3.606 3.61 3.61 0 01-3.606 3.605z" fill="currentColor"/><path fill-rule="evenodd" clip-rule="evenodd" d="M12.5 7.885a4.813 4.813 0 00-4.808 4.808A4.813 4.813 0 0012.5 17.5a4.813 4.813 0 004.808-4.807A4.813 4.813 0 0012.5 7.885zm-3.606 4.808a3.61 3.61 0 003.606 3.605 3.61 3.61 0 003.606-3.605A3.61 3.61 0 0012.5 9.087a3.61 3.61 0 00-3.606 3.606z" fill="#3D3731"/></svg>