<svg width="30" height="30" viewBox="0 0 30 30" fill="none" xmlns="http://www.w3.org/2000/svg"><path fill-rule="evenodd" clip-rule="evenodd" d="M3.8 4.8h11.7V3.2h-12a1.3 1.3 0 00-1.3 1.3v22a1.3 1.3 0 001.3 1.3h23a1.3 1.3 0 001.3-1.3V15h-1.6v11.2H3.8V4.8z" fill="#3D3731"/><path fill-rule="evenodd" clip-rule="evenodd" d="M27.972 9.855L28 1.883A.878.878 0 0027.117 1l-7.972.028a.893.893 0 00-.889.889.878.878 0 00.883.883l5.834-.02L14.39 13.36l1.248 1.248L26.221 4.027l-.02 5.834a.878.878 0 00.882.883c.49-.002.887-.4.889-.89z" fill="#3D3731"/></svg>