<svg width="30" height="30" viewBox="0 0 30 30" fill="none" xmlns="http://www.w3.org/2000/svg"><path d="M24.175 16.175c.052-.375.078-.763.078-1.175 0-.4-.026-.8-.09-1.175l2.608-1.975a.602.602 0 00.154-.762l-2.467-4.15c-.154-.276-.475-.363-.758-.276l-3.071 1.2a9.141 9.141 0 00-2.082-1.175l-.463-3.175A.617.617 0 0017.467 3h-4.934a.603.603 0 00-.604.513l-.463 3.175c-.758.3-1.452.712-2.082 1.175l-3.071-1.2a.621.621 0 00-.758.274L3.1 11.088c-.154.263-.103.588.154.763l2.61 1.975A7.143 7.143 0 005.746 15c0 .387.026.8.09 1.175L3.23 18.15a.602.602 0 00-.154.763l2.467 4.15c.154.274.475.362.758.274l3.071-1.2a9.142 9.142 0 002.082 1.175l.463 3.175c.064.3.308.513.617.513h4.934a.594.594 0 00.604-.512l.463-3.175c.758-.3 1.452-.7 2.082-1.175l3.071 1.2c.283.1.604 0 .758-.276l2.468-4.15c.154-.274.09-.587-.155-.762l-2.583-1.975zM15 19.5c-2.544 0-4.626-2.025-4.626-4.5s2.082-4.5 4.626-4.5c2.544 0 4.626 2.025 4.626 4.5S17.544 19.5 15 19.5z" fill="#3D3731"/></svg>