<svg width="30" height="30" viewBox="0 0 30 30" fill="none" xmlns="http://www.w3.org/2000/svg"><path fill-rule="evenodd" clip-rule="evenodd" d="M2 4h6.474v6.215H2V4zm1.336 1.283v3.65h3.802v-3.65H3.336zM2 11.892h6.474v6.216H2v-6.216zm1.336 1.283v3.65h3.802v-3.65H3.336zM2 19.785h6.474V26H2v-6.215zm1.336 1.282v3.65h3.802v-3.65H3.336zM10.221 4H28v6.215H10.221V4zm1.336 1.283v3.65h15.107v-3.65H11.557zM10.221 11.892H28v6.216H10.221v-6.216zm1.336 1.283v3.65h15.107v-3.65H11.557zM10.221 19.785H28V26H10.221v-6.215zm1.336 1.282v3.65h15.107v-3.65H11.557z" fill="#3D3731"/></svg>