<svg width="20" height="20" viewBox="0 0 20 20" fill="none" xmlns="http://www.w3.org/2000/svg">
<g clip-path="url(#clip0)">
<path d="M8.38881 2.17893C8.49501 1.94036 8.83832 1.94036 8.94452 2.17893L11.1826 7.20692C11.227 7.30668 11.3229 7.37475 11.4329 7.38462L17.057 7.88928C17.3238 7.91321 17.4305 8.24131 17.2276 8.41374L12.9925 12.0132C12.9073 12.0857 12.8697 12.1986 12.8949 12.3068L14.1357 17.633C14.1952 17.8883 13.9167 18.0903 13.6872 17.9585L8.81943 15.1621C8.72502 15.1078 8.60831 15.1078 8.5139 15.1621L3.64613 17.9585C3.41659 18.0903 3.13817 17.8883 3.19763 17.633L4.43843 12.3068C4.46361 12.1986 4.42605 12.0857 4.34083 12.0132L0.105711 8.41374C-0.0971682 8.24131 0.00956982 7.91321 0.276333 7.88928L5.9004 7.38462C6.01045 7.37475 6.10635 7.30668 6.15075 7.20692L8.38881 2.17893V2.17893Z" fill="#D5EBA2"/>
</g>
<defs>
<clipPath id="clip0">
<rect width="20" height="20" fill="white"/>
</clipPath>
</defs>
</svg>
