<svg width="30" height="30" viewBox="0 0 30 30" fill="none" xmlns="http://www.w3.org/2000/svg"><path fill-rule="evenodd" clip-rule="evenodd" d="M15 26.5c6.351 0 11.5-5.149 11.5-11.5S21.351 3.5 15 3.5 3.5 8.649 3.5 15 8.649 26.5 15 26.5zm0 1.5c7.18 0 13-5.82 13-13S22.18 2 15 2 2 7.82 2 15s5.82 13 13 13z" fill="#3D3731"/><path fill-rule="evenodd" clip-rule="evenodd" d="M15 14.5a3.5 3.5 0 100-7 3.5 3.5 0 000 7zm0 1.5a5 5 0 100-10 5 5 0 000 10zM15 18.75a8.254 8.254 0 00-7.78 5.5l-1.415-.5a9.754 9.754 0 0118.39 0l-1.414.5A8.254 8.254 0 0015 18.75z" fill="#3D3731"/></svg>