<svg width="30" height="30" viewBox="0 0 30 30" fill="none" xmlns="http://www.w3.org/2000/svg"><path d="M2 28h26L25.5 2h-21L2 28z" fill="currentColor"/><path fill-rule="evenodd" clip-rule="evenodd" d="M11.027 11.4a1.8 1.8 0 10-1.346.124c.17 1.165.613 2.23 1.318 3.072.938 1.12 2.31 1.804 4.001 1.804 1.691 0 3.063-.684 4.001-1.804.705-.842 1.147-1.907 1.318-3.072a1.8 1.8 0 10-1.346-.125c-.147.928-.499 1.735-1.012 2.347-.68.811-1.67 1.32-2.961 1.32s-2.281-.509-2.96-1.32c-.514-.612-.866-1.419-1.013-2.347zm-.827-1a.6.6 0 100-1.2.6.6 0 000 1.2zm9.6 0a.6.6 0 100-1.2.6.6 0 000 1.2z" fill="#3D3731"/><path fill-rule="evenodd" clip-rule="evenodd" d="M4.346 2h21.308L28 28H2L4.346 2zm1.51 1.625l-2.053 22.75h22.394l-2.053-22.75H5.856z" fill="#3D3731"/></svg>