<svg width="30" height="30" viewBox="0 0 30 30" fill="none" xmlns="http://www.w3.org/2000/svg"><path fill-rule="evenodd" clip-rule="evenodd" d="M15 26.4c6.296 0 11.4-5.104 11.4-11.4S21.296 3.6 15 3.6 3.6 8.704 3.6 15 8.704 26.4 15 26.4zm0 1.6c7.18 0 13-5.82 13-13S22.18 2 15 2 2 7.82 2 15s5.82 13 13 13z" fill="#3D3731"/><path d="M16.657 17.97c0-.46-.124-.825-.372-1.094-.244-.275-.66-.527-1.248-.757a15.12 15.12 0 01-1.524-.682 5.13 5.13 0 01-1.103-.782 3.275 3.275 0 01-.713-1.043c-.167-.398-.251-.872-.251-1.422 0-.947.292-1.724.875-2.33.584-.606 1.36-.959 2.326-1.06V7h1.297v1.825c.957.14 1.705.556 2.245 1.245.54.685.811 1.573.811 2.667h-2.343c0-.673-.134-1.175-.405-1.506-.264-.336-.621-.504-1.07-.504-.443 0-.786.131-1.029.395-.243.258-.365.617-.365 1.077 0 .426.12.768.357 1.026.238.258.678.522 1.321.79.649.27 1.18.525 1.597.766.416.236.767.505 1.053.808.287.297.506.64.657 1.026.151.382.227.827.227 1.338 0 .953-.286 1.727-.86 2.321-.572.595-1.36.945-2.366 1.052V23h-1.289v-1.666c-1.107-.123-1.967-.53-2.577-1.22-.605-.695-.908-1.617-.908-2.767h2.342c0 .667.152 1.18.454 1.54.308.353.749.53 1.322.53.475 0 .85-.13 1.126-.388.276-.263.413-.616.413-1.06z" fill="#3D3731"/></svg>