<svg width="30" height="30" viewBox="0 0 30 30" fill="none" xmlns="http://www.w3.org/2000/svg"><path fill="currentColor" d="M3 6h24v18H3z"/><path fill-rule="evenodd" clip-rule="evenodd" d="M2.25 6.75a1.5 1.5 0 011.5-1.5h22.5a1.5 1.5 0 011.5 1.5v16.5a1.5 1.5 0 01-1.5 1.5H3.75a1.5 1.5 0 01-1.5-1.5V6.75zm24 0H3.75v16.5h22.5V6.75z" fill="#3D3731"/><path fill-rule="evenodd" clip-rule="evenodd" d="M15 14.813L3.45 6.15l-.9 1.2 11.73 8.798a1.2 1.2 0 001.44 0L27.45 7.35l-.9-1.2L15 14.812z" fill="#3D3731"/></svg>