<svg width="30" height="30" viewBox="0 0 30 30" fill="none" xmlns="http://www.w3.org/2000/svg"><path d="M12.583 3.268a.458.458 0 01.834 0l3.357 7.542c.066.15.21.252.375.267l8.436.757c.4.036.56.528.256.787L19.49 18.02a.445.445 0 00-.147.44l1.862 7.99c.089.383-.329.686-.673.488l-7.302-4.195a.46.46 0 00-.458 0l-7.302 4.195c-.344.198-.762-.105-.673-.488l1.862-7.99a.445.445 0 00-.147-.44L.16 12.62a.447.447 0 01.255-.786l8.437-.757a.455.455 0 00.375-.267l3.357-7.542z" fill="currentColor"/><path fill-rule="evenodd" clip-rule="evenodd" d="M9.14 11.004a.09.09 0 01-.075.054l-8.65.776a.447.447 0 00-.256.787l6.519 5.54a.089.089 0 01.029.088l-1.91 8.2c-.09.383.328.686.672.489l7.485-4.3a.092.092 0 01.092 0l7.485 4.3c.344.198.762-.105.673-.488l-1.91-8.2a.089.089 0 01.029-.089l6.518-5.54a.447.447 0 00-.256-.787l-8.65-.776a.091.091 0 01-.075-.054l-3.443-7.736a.458.458 0 00-.834 0L9.14 11.004zM13 6.352l-2.36 5.301c-.253.57-.8.957-1.427 1.013l-5.871.527 4.405 3.745c.486.413.7 1.056.557 1.673l-1.299 5.575 5.124-2.944a1.751 1.751 0 011.742 0l5.124 2.944-1.299-5.575a1.69 1.69 0 01.557-1.673l4.405-3.745-5.871-.527a1.728 1.728 0 01-1.427-1.013L13 6.352z" fill="#3D3731"/></svg>