<svg width="30" height="30" viewBox="0 0 30 30" fill="none" xmlns="http://www.w3.org/2000/svg"><path fill-rule="evenodd" clip-rule="evenodd" d="M6 4.75c-.69 0-1.25.56-1.25 1.25v18c0 .69.56 1.25 1.25 1.25h18c.69 0 1.25-.56 1.25-1.25v-8h1.5v8A2.75 2.75 0 0124 26.75H6A2.75 2.75 0 013.25 24V6A2.75 2.75 0 016 3.25h8v1.5H6z" fill="#3D3731"/><path fill-rule="evenodd" clip-rule="evenodd" d="M21.757 2.697L26.53 7.47a.75.75 0 010 1.06l-4.773 4.773a.75.75 0 01-1.06-1.06l3.492-3.493H17c-1.119 0-1.908.278-2.475.655-.57.381-.961.894-1.23 1.43a5.398 5.398 0 00-.477 1.507 5.361 5.361 0 00-.068.656V13L12 13h.75v8h-1.5v-8H12h-.75V12.974c0-.014 0-.032.002-.055a6.909 6.909 0 01.087-.824c.086-.517.26-1.22.615-1.93.357-.714.904-1.451 1.74-2.008.839-.56 1.925-.907 3.306-.907h7.19l-3.493-3.493a.75.75 0 111.06-1.06zM12.75 13v.001-.001z" fill="#3D3731"/></svg>