<svg width="30" height="30" viewBox="0 0 30 30" fill="none" xmlns="http://www.w3.org/2000/svg"><path fill-rule="evenodd" clip-rule="evenodd" d="M3.239 11.389l5.185-5.152a.819.819 0 011.152 0l5.185 5.152a.806.806 0 010 1.145.818.818 0 01-1.152 0l-3.794-3.77V23h-1.63V8.764l-3.794 3.77a.818.818 0 01-1.152 0 .806.806 0 010-1.145zM26.761 18.611l-5.185 5.152a.819.819 0 01-1.152 0l-5.185-5.152a.806.806 0 010-1.145.818.818 0 011.152 0l3.794 3.77V7h1.63v14.236l3.794-3.77a.818.818 0 011.152 0 .806.806 0 010 1.145z" fill="#3D3731"/></svg>