<svg fill="none" xmlns="http://www.w3.org/2000/svg" viewBox="0 0 20 20"><path fill-rule="evenodd" clip-rule="evenodd" d="M10 17.6a7.6 7.6 0 100-15.2 7.6 7.6 0 000 15.2zm0 1.07a8.67 8.67 0 100-17.34 8.67 8.67 0 000 17.34z" fill="#3D3731"/><path d="M10.5 7.77a.77.77 0 01-.59-.26.88.88 0 01-.24-.62c0-.24.08-.45.24-.62A.76.76 0 0110.5 6c.23 0 .42.09.58.27.17.17.25.38.25.62a.86.86 0 01-.25.62.77.77 0 01-.58.26zM9.79 14c-.34 0-.61-.11-.82-.33-.2-.23-.3-.56-.3-1 0-.2.02-.43.08-.73l.71-3.57h1.5l-.75 3.78a1.46 1.46 0 00-.04.36c0 .15.03.26.1.32s.18.1.33.1a.8.8 0 00.33-.08c-.02.37-.15.66-.37.86-.22.2-.48.29-.78.29z" fill="#3D3731"/></svg>