<svg width="30" height="30" viewBox="0 0 30 30" fill="none" xmlns="http://www.w3.org/2000/svg"><path fill-rule="evenodd" clip-rule="evenodd" d="M27 4.5H3V6h1.188l1.727 20.683c.09 1.015.901 1.817 1.814 1.817h14.302c.913 0 1.725-.802 1.815-1.817L25.802 6H27V4.5zm-4.536 21.74c-.036.405-.37.76-.714.76H8.25c-.345 0-.678-.355-.712-.737L5.817 6H24.41l-1.947 20.24z" fill="#3D3731"/><path d="M10.5 9H12v15h-1.5V9zM18 9h1.5v15H18V9zM14.25 9h1.5v15h-1.5V9z" fill="#3D3731"/><path fill-rule="evenodd" clip-rule="evenodd" d="M19.5 2.25c0 .414-.27.75-.601.75H11.1c-.332 0-.601-.336-.601-.75s.27-.75.601-.75H18.9c.332 0 .601.336.601.75z" fill="#3D3731"/></svg>