<svg fill="none" xmlns="http://www.w3.org/2000/svg" viewBox="0 0 30 30"><path d="M19.18 24.97h-1.4v2.15h1.4v-2.15z" fill="#3D3731"/><path fill-rule="evenodd" clip-rule="evenodd" d="M21.06 16.04A4.87 4.87 0 0015 8.44a4.87 4.87 0 00-6.06 7.6 6.92 6.92 0 00-3.69 6.14v1.1l1.4.05v-1.15a5.54 5.54 0 013.7-5.24 4.86 4.86 0 003.73 0 5.32 5.32 0 011.04.5l.06.04.05.03a4.35 4.35 0 01.6.45 5.2 5.2 0 01.78.81 5.06 5.06 0 01.45.68l.2.37a5.5 5.5 0 01.18.46 4.28 4.28 0 01.22.77l.02.1.04.2c.04.28.07.55.07.83v2.79h1.39v-2.79c0-.21-.01-.43-.03-.64l-.02-.12v-.07a6.68 6.68 0 00-.25-1.17l-.03-.1a6.9 6.9 0 00-.83-1.76l-.03-.04a6.9 6.9 0 00-.39-.51 6.22 6.22 0 00-.45-.5h.03l.6.04h.03a4.91 4.91 0 00.67-.06h.05l.44-.1H19l.1-.03a4.75 4.75 0 00.55-.19 5.54 5.54 0 013.7 5.25v1.15l1.4-.06v-1.09a6.92 6.92 0 00-3.7-6.14zm-3.27-7.09a3.48 3.48 0 011.43 6.65l-.14.06h-.02c-.18.08-.35.13-.53.17l-.06.01-.05.01c-.2.04-.4.06-.61.06a3.13 3.13 0 01-.28-.01h-.1a3.52 3.52 0 01-1.15-.34.08.08 0 00-.02 0l-.02-.01a5.16 5.16 0 00-.05-.03l-.15-.07.01-.02a4.88 4.88 0 00.75-1.37l.03-.05a4.9 4.9 0 00.2-.82 4.89 4.89 0 00.06-.76 4.9 4.9 0 00-.06-.74v-.04a4.9 4.9 0 00-.2-.79l-.03-.06a4.89 4.89 0 00-.76-1.38 3.46 3.46 0 011.75-.47zm-9.06 3.48a3.47 3.47 0 016-2.4 3.57 3.57 0 01.4.5l.02.04c.1.15.18.3.25.47l.03.08.02.04c.07.18.13.37.17.56v.03l.01.03c.09.43.09.88 0 1.31v.03a3.4 3.4 0 01-.2.63l-.03.08c-.07.17-.16.32-.25.47l-.03.04-.06.1a3.57 3.57 0 01-.45.51 3.48 3.48 0 01-.96.65l-.17.07c-.17.07-.34.12-.52.16a1.36 1.36 0 01-.13.03c-.2.03-.38.05-.58.05h-.07a3.44 3.44 0 01-.62-.06l-.1-.02a3.5 3.5 0 01-.63-.2l-.05-.03a3.48 3.48 0 01-2.05-3.17z" fill="#3D3731"/><path fill-rule="evenodd" clip-rule="evenodd" d="M28 15a13 13 0 11-26 0 13 13 0 0126 0zM15 26.5a11.5 11.5 0 100-23 11.5 11.5 0 000 23z" fill="#3D3731"/></svg>