<svg width="30" height="30" viewBox="0 0 30 30" fill="none" xmlns="http://www.w3.org/2000/svg"><path d="M9.434 27.377c11.321 0 17.513-9.38 17.513-17.513 0-.267 0-.532-.018-.796A12.524 12.524 0 0030 5.882a12.285 12.285 0 01-3.535.969 6.177 6.177 0 002.706-3.405 12.334 12.334 0 01-3.909 1.494 6.16 6.16 0 00-10.489 5.614A17.475 17.475 0 012.088 4.123a6.16 6.16 0 001.906 8.216 6.11 6.11 0 01-2.794-.77v.078a6.157 6.157 0 004.938 6.034 6.146 6.146 0 01-2.78.105 6.162 6.162 0 005.751 4.275A12.35 12.35 0 010 24.61a17.426 17.426 0 009.434 2.76" fill="#fff"/></svg>