<svg width="30" height="30" viewBox="0 0 30 30" fill="none" xmlns="http://www.w3.org/2000/svg"><path d="M15 27.6l-2.001-1.813C5.892 19.374 1.2 15.144 1.2 9.953 1.2 5.723 4.54 2.4 8.79 2.4c2.401 0 4.706 1.112 6.21 2.87 1.504-1.758 3.809-2.87 6.21-2.87 4.25 0 7.59 3.323 7.59 7.553 0 5.191-4.692 9.42-11.799 15.848L15 27.6z" fill="currentColor"/><path fill-rule="evenodd" clip-rule="evenodd" d="M12.999 25.787L15 27.6l2.001-1.799.054-.05C24.133 19.353 28.8 15.132 28.8 9.954c0-4.23-3.34-7.553-7.59-7.553-1.882 0-3.705.684-5.13 1.826A8.046 8.046 0 0015 5.27a8.046 8.046 0 00-1.08-1.044C12.495 3.084 10.672 2.4 8.79 2.4 4.54 2.4 1.2 5.723 1.2 9.953c0 5.187 4.684 9.414 11.782 15.819l.017.015zm2.005-.207l-.998-.904-.002-.002c-3.584-3.234-6.436-5.812-8.41-8.215C3.635 14.078 2.7 12.054 2.7 9.953 2.7 6.56 5.361 3.9 8.79 3.9c1.95 0 3.842.91 5.07 2.345L15 7.577l1.14-1.332C17.368 4.811 19.26 3.9 21.21 3.9c3.429 0 6.09 2.659 6.09 6.053 0 2.1-.936 4.125-2.893 6.509-1.975 2.404-4.827 4.985-8.41 8.225l-.002.001-.991.892z" fill="#3D3731"/></svg>