<svg width="83" height="103" viewBox="0 0 83 103" fill="none" xmlns="http://www.w3.org/2000/svg">
<rect y="0.422363" width="83" height="101.704" rx="2" fill="#4983F1"/>
<path d="M40.6889 22.6814C40.5689 22.5731 40.5605 22.3881 40.6689 22.2681C40.7772 22.1481 40.9622 22.1398 41.0822 22.2481C41.1972 22.3514 41.3321 22.4431 41.4821 22.5197C41.8288 22.6964 42.2404 22.7781 42.6421 22.7314C43.0354 22.6864 43.4187 22.5147 43.7187 22.1831C43.8003 22.0931 43.877 21.9898 43.947 21.8715C44.1886 21.1282 44.5336 20.3549 45.0336 19.4283L45.0669 19.1833C45.1269 18.735 44.9719 18.3167 44.6819 17.9634C44.3253 17.5284 43.7753 17.1901 43.1654 17.0034C42.5254 16.8084 41.8271 16.7768 41.2138 16.8918C41.1405 16.9051 41.0705 16.9218 41.0005 16.9384V16.9401C40.9955 16.9401 40.9905 16.9418 40.9872 16.9418C40.8905 16.9668 40.7988 16.9951 40.7105 17.0268C40.2506 17.2401 39.9289 17.7784 39.7156 18.4583C39.6739 18.5933 39.6356 18.7317 39.6006 18.875C39.5656 19.0933 39.5256 19.3016 39.4806 19.4983C39.3223 20.5382 39.3373 21.6815 39.4439 22.5664C39.4739 22.8164 39.4906 22.9397 39.5056 23.063C39.5889 23.6997 39.6706 24.3213 39.6456 24.9946C39.6206 25.6179 39.5023 26.2145 39.1973 26.6478C38.8523 27.1378 38.3157 27.4061 37.4957 27.2711C36.9058 27.1744 36.5325 26.8545 36.3141 26.4245C36.0742 25.9512 36.0492 25.3512 36.1358 24.7996C36.2108 24.3263 36.3458 23.9213 36.5158 23.5497C36.1475 23.7463 35.7525 23.8897 35.3392 23.978C34.1959 24.218 32.921 24.0246 31.7378 23.338C31.5978 23.2564 31.5494 23.078 31.6311 22.9381C31.7128 22.7981 31.8911 22.7497 32.0311 22.8314C33.0843 23.4414 34.2126 23.6163 35.2192 23.4047C36.0558 23.228 36.8091 22.7847 37.3657 22.1014C37.8357 21.3715 38.334 20.5515 38.6223 19.285C38.6523 19.0933 38.689 18.905 38.7306 18.7217C38.8206 18.1667 38.8706 17.5317 38.869 16.7984H38.8773C38.724 15.5035 37.5724 14.3403 36.1158 13.7286C35.3242 13.397 34.4459 13.232 33.5893 13.2987C32.751 13.3653 31.9328 13.6553 31.2345 14.2319C29.6062 15.5785 28.6046 18.4867 29.4146 23.7397C29.8462 26.5395 29.1946 28.201 28.428 30.1576C27.8714 31.5775 27.2497 33.1657 26.9847 35.5022C26.4498 40.2169 28.3863 44.655 30.2962 49.0364C32.0727 53.1078 33.8293 57.1342 33.6776 61.4106C33.621 63.0221 33.191 65.1603 32.7094 67.5718C32.1561 70.3316 31.5311 73.4531 31.3261 76.4346C30.8912 82.7875 32.3827 88.6405 40.7705 89.2154C49.6683 89.8254 50.6765 78.3461 51.5365 68.5651C51.8981 64.4487 52.2348 60.6239 53.1214 57.9958C54.4163 54.1644 55.1763 51.0079 55.5512 48.3231C55.9229 45.6649 55.9145 43.4717 55.6746 41.5485C55.5929 40.8936 55.4312 40.3136 55.2762 39.7536C54.9446 38.562 54.6346 37.4454 55.0013 35.8689L55.0113 35.8239L55.0313 35.7772C55.5029 34.634 55.9995 33.0824 55.8812 31.7741C55.7795 30.6476 55.1696 29.6909 53.538 29.3926C53.0264 30.3759 52.7081 31.1742 52.5064 31.9741C52.4781 32.0908 52.4514 32.2058 52.4264 32.3224C52.3748 32.7657 52.4848 33.2874 52.7364 33.7307C52.9997 34.1957 53.4147 34.5706 53.958 34.6706L53.9813 34.674C54.1413 34.7006 54.2496 34.8523 54.223 35.0123C54.1963 35.1723 54.0447 35.2806 53.8847 35.2539L53.8513 35.2473C53.1181 35.1106 52.5664 34.6223 52.2264 34.019C52.2198 34.0073 52.2131 33.9957 52.2064 33.984C52.1798 34.3623 52.1614 34.7673 52.1464 35.2106C52.1381 35.4539 51.9365 35.6439 51.6931 35.6356C51.4498 35.6272 51.2598 35.4256 51.2682 35.1823C51.3115 33.809 51.3932 32.7824 51.6515 31.7575C51.8815 30.8409 52.2498 29.9359 52.8547 28.801L52.8864 28.6593C52.9314 28.451 52.9564 28.2127 52.9581 27.9577C52.9631 27.1661 52.7664 26.1995 52.3381 25.3812C51.9381 24.6163 51.3332 23.993 50.5032 23.8097C50.3866 23.7847 50.2699 23.7663 50.1499 23.758C49.5949 24.8063 49.255 25.6412 49.045 26.4795C48.805 27.4361 48.7283 28.411 48.6867 29.7193C48.6783 29.9626 48.4767 30.1526 48.2334 30.1442C47.99 30.1359 47.8001 29.9343 47.8084 29.6909C47.8517 28.3177 47.9334 27.2911 48.1917 26.2662C48.415 25.3796 48.7667 24.5046 49.335 23.4214L49.4116 23.0497C49.5516 22.3748 49.3716 21.7681 49.0266 21.2648C48.75 20.8615 48.3667 20.5182 47.9534 20.2549C47.5351 19.9882 47.0968 19.8083 46.7101 19.7283C46.3735 19.6583 46.1035 19.6599 45.9768 19.7466L45.7902 19.8732C45.1919 20.9865 44.8336 21.8565 44.6136 22.7297C44.3736 23.6863 44.297 24.6613 44.2553 25.9695C44.247 26.2128 44.0453 26.4028 43.802 26.3945C43.5587 26.3862 43.3687 26.1845 43.377 25.9412C43.4137 24.7796 43.4787 23.8663 43.652 22.9914C43.357 23.173 43.0337 23.2764 42.7054 23.3147C42.1871 23.3747 41.6571 23.2697 41.2122 23.043C41.0222 22.9464 40.8438 22.8247 40.6872 22.6814H40.6889ZM45.0386 24.4063C44.9652 24.2613 45.0236 24.0846 45.1686 24.013C45.3136 23.9397 45.4902 23.998 45.5619 24.143C45.7319 24.4796 45.9918 24.7429 46.3235 24.9046C46.6501 25.0629 47.0518 25.1296 47.5151 25.0779C47.6767 25.0596 47.8217 25.1762 47.8384 25.3379C47.8567 25.4996 47.7401 25.6445 47.5784 25.6612C47.0018 25.7262 46.4918 25.6395 46.0668 25.4329C45.6152 25.2129 45.2636 24.8596 45.0352 24.408L45.0386 24.4063ZM49.155 28.9843C49.07 28.846 49.1133 28.666 49.25 28.581C49.3883 28.496 49.5683 28.5394 49.6533 28.676C49.8233 28.9493 50.0632 29.1526 50.3582 29.266C50.6499 29.3776 50.9982 29.4026 51.3898 29.3243C51.5482 29.2926 51.7031 29.396 51.7348 29.5543C51.7665 29.7126 51.6631 29.8676 51.5048 29.8993C50.9982 30.0009 50.5399 29.9659 50.1482 29.8159C49.7299 29.6559 49.3916 29.3693 49.1533 28.986L49.155 28.9843ZM38.5023 21.9331C38.339 22.2114 38.1724 22.4697 38.009 22.7214C37.5541 23.4247 37.1408 24.063 37.0024 24.9363C36.9408 25.3279 36.9491 25.7345 37.0974 26.0262C37.1924 26.2162 37.3624 26.3562 37.6341 26.4012C38.059 26.4712 38.3223 26.3562 38.474 26.1395C38.6673 25.8645 38.7456 25.4312 38.764 24.9629C38.7873 24.3613 38.7107 23.7747 38.6307 23.1764C38.6023 22.9664 38.5757 22.7564 38.5657 22.6697C38.539 22.4397 38.5157 22.1914 38.5023 21.9331ZM46.2068 18.5133C46.4385 18.5033 46.6868 18.5267 46.9435 18.58C47.4701 18.6883 48.0484 18.9233 48.5817 19.2633C49.1183 19.6049 49.6216 20.0582 49.9949 20.6049C50.3949 21.1898 50.6449 21.8765 50.6315 22.6397C50.6715 22.6464 50.7115 22.6547 50.7515 22.6631C51.9698 22.9314 52.8281 23.793 53.3764 24.8396C53.8963 25.8329 54.1347 27.0045 54.1297 27.9627C54.1297 28.0827 54.1247 28.201 54.1163 28.3144C56.1329 28.8027 56.9078 30.1259 57.0478 31.6725C57.1845 33.1924 56.6528 34.9089 56.1345 36.1722C55.8512 37.4404 56.1195 38.4087 56.4062 39.4403C56.5762 40.0519 56.7512 40.6819 56.8411 41.4052C57.0928 43.4167 57.1011 45.7082 56.7128 48.4831C56.3278 51.2329 55.5529 54.461 54.233 58.3657C53.393 60.8489 53.0631 64.6137 52.7064 68.6634C51.8015 78.9744 50.7382 91.0736 40.6922 90.3853C31.3461 89.7454 29.6762 83.3241 30.1545 76.3563C30.3645 73.2831 30.9962 70.13 31.5561 67.3418C32.0311 64.9687 32.4544 62.8621 32.5061 61.3689C32.6477 57.3591 30.9445 53.4544 29.2213 49.5047C27.2464 44.9783 25.2482 40.3969 25.8165 35.3739C26.0998 32.8807 26.7498 31.2175 27.3331 29.7309C28.0363 27.9344 28.6346 26.4095 28.2497 23.9197C27.3647 18.18 28.5663 14.9136 30.4829 13.3287C31.3811 12.5871 32.4277 12.2137 33.4943 12.1304C34.5409 12.0488 35.6075 12.2471 36.5625 12.6471C38.1857 13.327 39.5056 14.6003 39.9239 16.0952C40.2456 15.9335 40.6072 15.8168 40.9922 15.7435C41.7805 15.5952 42.6787 15.6369 43.5003 15.8885C44.3236 16.1402 45.0769 16.6101 45.5819 17.2251C45.8952 17.6067 46.1152 18.0434 46.2035 18.5183L46.2068 18.5133Z" fill="#76A2F7"/>
<path d="M33.9014 86.9297L33.9014 13.2818" stroke="white" stroke-width="1.3" stroke-linecap="round" stroke-dasharray="1 3"/>
</svg>
