<svg xmlns="http://www.w3.org/2000/svg" fill="none" viewBox="0 0 30 30"><g clip-path="url(#clip0)"><path fill="#3D3731" d="M15 .37a15 15 0 00-4.74 29.23c.75.14 1.02-.32 1.02-.72l-.02-2.55c-4.17.9-5.05-2.01-5.05-2.01-.68-1.73-1.67-2.2-1.67-2.2-1.36-.93.1-.9.1-.9 1.51.1 2.3 1.54 2.3 1.54 1.34 2.3 3.51 1.63 4.37 1.25a3.2 3.2 0 01.95-2.01c-3.33-.38-6.83-1.66-6.83-7.41 0-1.64.58-2.98 1.54-4.03-.17-.38-.67-1.9.13-3.97 0 0 1.26-.4 4.13 1.54a14.38 14.38 0 017.5 0c2.85-1.94 4.1-1.54 4.1-1.54.81 2.07.3 3.6.16 3.97a5.81 5.81 0 011.53 4.03c0 5.76-3.5 7.03-6.84 7.4.52.45 1.01 1.37 1.01 2.77l-.02 4.11c0 .4.27.86 1.03.71C25.7 27.62 30 22 30 15.38a15 15 0 00-15-15"/></g><defs><clipPath id="clip0"><path fill="#fff" d="M0 0h30v30H0z"/></clipPath></defs></svg>