<svg xmlns="http://www.w3.org/2000/svg" fill="none" viewBox="0 0 30 30"><g fill="#3D3731" clip-path="url(#clip0)"><path d="M15 0c-4.07 0-4.58.02-6.18.09-1.6.07-2.7.33-3.65.7-.98.38-1.82.9-2.65 1.73A7.35 7.35 0 00.79 5.17c-.37.96-.63 2.05-.7 3.65C.02 10.42 0 10.92 0 15c0 4.07.02 4.58.09 6.18.07 1.6.33 2.7.7 3.65.38.98.9 1.82 1.73 2.65a7.35 7.35 0 002.65 1.73 11 11 0 003.65.7c1.6.07 2.1.09 6.18.09 4.07 0 4.58-.02 6.18-.09a11 11 0 003.65-.7c.98-.38 1.82-.9 2.65-1.73a7.35 7.35 0 001.73-2.65 11 11 0 00.7-3.65c.07-1.6.09-2.1.09-6.18 0-4.07-.02-4.58-.09-6.18a11 11 0 00-.7-3.65 7.35 7.35 0 00-1.73-2.65A7.35 7.35 0 0024.83.79c-.96-.37-2.05-.63-3.65-.7C19.58.02 19.08 0 15 0zm0 2.7c4 0 4.48.02 6.06.09a8.3 8.3 0 012.79.52c.7.27 1.2.6 1.72 1.12.53.52.85 1.02 1.12 1.72.2.53.45 1.33.52 2.79.07 1.58.09 2.05.09 6.06 0 4-.02 4.48-.09 6.06a8.3 8.3 0 01-.52 2.79c-.27.7-.6 1.2-1.12 1.72-.52.53-1.02.85-1.72 1.12a8.3 8.3 0 01-2.79.52c-1.58.07-2.05.09-6.06.09-4 0-4.48-.02-6.06-.09a8.3 8.3 0 01-2.79-.52c-.7-.27-1.2-.6-1.72-1.12a4.65 4.65 0 01-1.12-1.72 8.3 8.3 0 01-.52-2.79c-.07-1.58-.09-2.05-.09-6.06 0-4 .02-4.48.09-6.06a8.3 8.3 0 01.52-2.79c.27-.7.6-1.2 1.12-1.72A4.65 4.65 0 016.15 3.3a8.3 8.3 0 012.79-.52c1.58-.07 2.05-.09 6.06-.09z"/><path d="M15 20a5 5 0 110-10 5 5 0 010 10zm0-12.7a7.7 7.7 0 100 15.4 7.7 7.7 0 000-15.4zm9.8-.3a1.8 1.8 0 11-3.6 0 1.8 1.8 0 013.6 0z"/></g><defs><clipPath id="clip0"><path fill="#fff" d="M0 0h30v30H0z"/></clipPath></defs></svg>