<svg xmlns="http://www.w3.org/2000/svg" fill="none" viewBox="0 0 30 30"><g fill="#3D3731" fill-rule="evenodd" clip-path="url(#clip0)" clip-rule="evenodd"><path d="M6.81 30V10.43H.38V30h6.43zM3.6 6.76c2.24 0 3.63-1.5 3.63-3.38C7.2 1.46 5.83 0 3.63 0S0 1.46 0 3.38c0 1.88 1.4 3.38 3.55 3.38h.05zM10.37 30h6.43V19.07c0-.58.04-1.17.21-1.58.47-1.17 1.52-2.38 3.3-2.38 2.33 0 3.26 1.8 3.26 4.42V30H30V18.78c0-6.01-3.17-8.8-7.4-8.8a6.4 6.4 0 00-5.84 3.29h.04v-2.84h-6.43c.08 1.84 0 19.57 0 19.57z"/></g><defs><clipPath id="clip0"><path fill="#fff" d="M0 0h30v30H0z"/></clipPath></defs></svg>