<svg xmlns="http://www.w3.org/2000/svg" fill="none" viewBox="0 0 30 30"><g clip-path="url(#clip0)"><path fill="#3D3731" d="M15.02 0a14.98 14.98 0 00-5.46 28.94c-.13-1.19-.25-3 .05-4.3l1.76-7.45s-.45-.9-.45-2.23c0-2.07 1.2-3.63 2.7-3.63 1.29 0 1.9.96 1.9 2.1 0 1.3-.81 3.21-1.23 5-.36 1.49.75 2.7 2.21 2.7 2.66 0 4.71-2.8 4.71-6.86 0-3.57-2.57-6.08-6.26-6.08a6.48 6.48 0 00-6.76 6.5c0 1.29.5 2.67 1.11 3.42.13.15.14.28.11.43L9 20.24c-.06.29-.21.35-.5.21-1.87-.86-3.04-3.6-3.04-5.8 0-4.72 3.44-9.07 9.9-9.07 5.2 0 9.24 3.71 9.24 8.65 0 5.17-3.26 9.33-7.79 9.33-1.52 0-2.94-.78-3.45-1.72l-.93 3.56a16.32 16.32 0 01-1.88 3.93A15 15 0 1014.98.03l.04-.03z"/></g><defs><clipPath id="clip0"><path fill="#fff" d="M0 0h30v30H0z"/></clipPath></defs></svg>