<svg xmlns="http://www.w3.org/2000/svg" fill="none" viewBox="0 0 30 30"><path fill="#3D3731" d="M13.7 6.22c.04.52-.25.98-.66 1.04-.4.05-.76-.33-.8-.85-.05-.52.24-.98.65-1.03.4-.06.76.33.8.84zm2.57.18c.08-.15.64-.9 1.8-.63.31.08.45.18.48.22.05.07.06.15.02.27-.1.24-.28.23-.38.18h-.02c-.15-.09-.9-.5-1.6.23-.05.06-.15.08-.23.01-.09-.06-.13-.2-.07-.28z"/><path fill="#3D3731" fill-rule="evenodd" d="M24.68 12.6l1.39 3.36c.38.97.76 1.97 1.03 2.83 1.32 4.1.89 5.8.57 5.85-.7.08-2.71-3.1-2.71-3.1 0 1.84-.98 4.24-3.08 5.97.78.24 1.75.6 2.37 1.04.56.4.5.81.39.98-.44.72-7.58.46-9.64.23-2.06.23-9.2.49-9.64-.23-.1-.17-.17-.58.39-.98.62-.44 1.59-.8 2.37-1.04a8.11 8.11 0 01-3.08-5.96s-2.01 3.17-2.7 3.09c-.33-.04-.76-1.74.56-5.85.27-.86.65-1.86 1.03-2.83l1.4-3.36-.03-1.05C5.3 5.8 8.1 0 15 0c6.9 0 9.7 5.79 9.7 11.55l-.02 1.05zm-9.7 4.72h.04c2.14.03 4.75-.25 7.27-.73.22 1.21.35 2.74.24 4.55-.29 4.6-3.1 7.49-7.44 7.53h-.18c-4.34-.04-7.15-2.93-7.44-7.53-.1-1.81.02-3.34.24-4.55 2.52.48 5.13.76 7.27.73zm5.92-6.95c-.25-.54-2.77-1.14-5.88-1.14h-.04c-3.11 0-5.63.6-5.88 1.14a.18.18 0 00-.02.07c0 .04.02.08.04.1.2.3 3 1.78 5.86 1.78h.04c2.86 0 5.65-1.47 5.86-1.77a.18.18 0 00.04-.1l-.02-.08zM12.55 8.5c-.94.04-1.74-1-1.79-2.3-.05-1.32.67-2.42 1.6-2.46.94-.04 1.74 1 1.79 2.3.05 1.32-.67 2.42-1.6 2.46zm6.69-2.3c-.05 1.3-.85 2.34-1.79 2.3-.93-.04-1.65-1.14-1.6-2.45.05-1.32.85-2.35 1.79-2.31.93.04 1.65 1.14 1.6 2.46z" clip-rule="evenodd"/><path fill="#3D3731" d="M8.9 17.34v4.52s2.13.42 4.27.13v-4.17a40.44 40.44 0 01-4.27-.48z"/><path fill="#3D3731" d="M24.68 13s-4.16 1.27-9.66 1.3h-.04c-5.5-.03-9.64-1.3-9.66-1.3l-1.39 3.37A41.26 41.26 0 0014.98 18h.04c3.26.04 7.57-.61 11.05-1.63L24.67 13z"/></svg>