<svg xmlns="http://www.w3.org/2000/svg" fill="none" viewBox="0 0 30 30"><g clip-path="url(#clip0)"><path fill="#3D3731" d="M29.98 13.42c.13 1.32-.5 2.3-1.51 3.06-.25.18-.32.34-.28.65a7.57 7.57 0 01-1.93 6.23c-1.96 2.25-4.5 3.47-7.37 4.12-1.99.45-4 .54-6.02.3-2.32-.3-4.52-.94-6.51-2.2a9.9 9.9 0 01-4.02-4.41 7.37 7.37 0 01-.49-4.22c.03-.16 0-.24-.15-.34a3.5 3.5 0 01-1.65-2.4 3.27 3.27 0 013.99-3.79c.58.16 1.12.48 1.67.73.13.06.22.1.37 0a14.68 14.68 0 015.3-2.22c1.06-.23 2.13-.38 3.22-.37.22 0 .26-.12.3-.28l1.76-5.54c.2-.65.52-.84 1.19-.7l4.83 1.04c.2.05.32.01.45-.15 1.37-1.59 3.5-.86 4.18.35a2.52 2.52 0 01-1.87 3.7 2.6 2.6 0 01-2.9-1.87c-.07-.27-.2-.36-.45-.41l-3.72-.8-.32-.05-1.57 4.86.86.09c2.43.25 4.68 1 6.73 2.35.13.08.2.08.33-.02a3.28 3.28 0 013.62-.5 3.2 3.2 0 011.96 2.8zm-10.35 5.19a2.1 2.1 0 002.03-2.03c0-1.14-.93-2.07-2.04-2.06-1.09 0-2.03.93-2.03 1.99 0 1.15.92 2.1 2.04 2.1zm.48 3.87c.23-.27.17-.6-.04-.8-.3-.3-.69-.39-.99-.21-.12.06-.23.15-.35.22a6.8 6.8 0 01-6.46.52c-.46-.19-.88-.47-1.3-.72-.33-.19-.73-.12-1.04.19-.2.2-.23.55-.03.84.12.16.27.3.44.42a8.19 8.19 0 004.78 1.41l.85-.06a7.4 7.4 0 003.18-.99c.36-.21.69-.5.96-.82zm-9.66-3.87c1.01 0 1.98-1 1.98-2.03 0-1.12-.95-2.06-2.06-2.06-1.1 0-2.03.94-2.03 2.05a2.1 2.1 0 002.1 2.04z"/></g><defs><clipPath id="clip0"><path fill="#fff" d="M0 0h30v30H0z"/></clipPath></defs></svg>