<svg xmlns="http://www.w3.org/2000/svg" fill="none" viewBox="0 0 30 30"><g clip-path="url(#clip0)"><path fill="#3D3731" fill-rule="evenodd" d="M30 21.82c0-1.3-.31-2.54-.86-3.64.21-.97.33-1.98.33-3.02A14.2 14.2 0 0012.7 1.26 8.34 8.34 0 000 8.18c0 1.51.42 2.92 1.14 4.14a14.2 14.2 0 0014.02 16.94c.9 0 1.77-.08 2.62-.23 1.17.62 2.5.97 3.92.97 4.59 0 8.3-3.66 8.3-8.18zm-6.5-3.07a5.3 5.3 0 01-1 3.15 6.48 6.48 0 01-2.91 2.17c-1.25.52-2.76.78-4.47.78-2.06 0-3.78-.36-5.12-1.06a6.64 6.64 0 01-2.36-2.06 4.44 4.44 0 01-.91-2.55c0-.52.2-.97.6-1.33.38-.37.89-.55 1.49-.55.49 0 .91.14 1.26.43.32.28.6.69.83 1.2.26.58.53 1.07.82 1.44.29.37.7.68 1.2.92.52.24 1.22.37 2.08.37a5.1 5.1 0 002.89-.74c.71-.48 1.06-1.06 1.06-1.77 0-.55-.19-.99-.56-1.33a4 4 0 00-1.52-.83c-.65-.2-1.54-.42-2.63-.64a20.95 20.95 0 01-3.75-1.11 6.17 6.17 0 01-2.46-1.77 4.38 4.38 0 01-.92-2.83c0-1.07.32-2.03.97-2.86a6.02 6.02 0 012.78-1.9 12.3 12.3 0 014.2-.65c1.27 0 2.4.15 3.33.44.95.28 1.74.67 2.37 1.15.63.5 1.1 1 1.39 1.55.3.54.45 1.08.45 1.6 0 .51-.2.97-.6 1.37-.38.4-.88.6-1.46.6-.53 0-.95-.12-1.23-.38-.27-.23-.55-.6-.86-1.12a4.68 4.68 0 00-1.28-1.56c-.48-.37-1.29-.55-2.4-.55-1.01 0-1.85.2-2.47.6-.6.4-.89.84-.89 1.36 0 .32.1.59.29.82.2.25.49.46.85.64.38.19.77.33 1.15.44.4.1 1.07.27 1.98.48 1.16.24 2.23.52 3.17.82.95.3 1.77.66 2.45 1.1.68.44 1.22 1 1.6 1.67.4.68.59 1.52.59 2.5z" clip-rule="evenodd"/></g><defs><clipPath id="clip0"><path fill="#fff" d="M0 0h30v30H0z"/></clipPath></defs></svg>