<svg xmlns="http://www.w3.org/2000/svg" fill="none" viewBox="0 0 30 30"><g clip-path="url(#clip0)"><path fill="#3D3731" d="M15.26 1c1.23 0 5.43.34 7.41 4.77.66 1.49.5 4.02.37 6.06v.07l-.04.64c.1.06.26.11.5.11.38-.02.83-.15 1.3-.38.2-.1.42-.13.57-.13.23 0 .45.04.64.12.56.18.92.6.92 1.04.02.57-.49 1.05-1.52 1.46l-.43.15c-.56.17-1.42.45-1.66 1.02-.12.28-.08.65.15 1.08l.01.02c.08.17 1.91 4.34 6 5.02.31.05.54.34.52.63 0 .1-.02.19-.06.29-.3.7-1.59 1.23-3.93 1.58-.07.12-.15.47-.2.72-.04.22-.1.45-.17.69-.1.34-.34.5-.7.5h-.03c-.17 0-.4-.04-.68-.09a7.55 7.55 0 00-2.73-.07 5.6 5.6 0 00-2.15 1.1c-1.07.75-2.29 1.61-4.12 1.61l-.23-.02h-.18c-1.84 0-3.04-.84-4.1-1.6-.75-.53-1.38-.98-2.13-1.11-.4-.06-.79-.1-1.16-.1-.68 0-1.2.12-1.6.19-.26.05-.48.1-.67.1-.47 0-.65-.29-.73-.53-.07-.24-.11-.49-.17-.71-.05-.23-.13-.62-.2-.71-2.4-.28-3.7-.8-3.99-1.54A.75.75 0 010 22.7c-.02-.3.2-.58.53-.63 4.08-.68 5.9-4.85 5.98-5.03l.02-.04c.23-.43.28-.8.15-1.08-.24-.54-1.1-.82-1.66-1.01a2.8 2.8 0 01-.43-.15c-1.39-.54-1.58-1.16-1.5-1.6.11-.6.84-.98 1.46-.98.18 0 .34.03.48.09.52.24.98.37 1.38.37.3 0 .48-.07.58-.13l-.06-.7c-.12-2.04-.28-4.57.39-6.06a7.86 7.86 0 017.34-4.74l.52-.02h.08z"/></g><defs><clipPath id="clip0"><path fill="#fff" d="M0 0h30v30H0z"/></clipPath></defs></svg>