<svg xmlns="http://www.w3.org/2000/svg" fill="none" viewBox="0 0 30 30"><g clip-path="url(#clip0)"><path fill="#3D3731" fill-rule="evenodd" d="M2.06 13.33a1340.8 1340.8 0 0116.11-6.7c7.67-3.08 9.27-3.61 10.3-3.63.24 0 .75.05 1.08.31.28.22.35.51.39.72.04.21.08.68.05 1.05-.42 4.22-2.22 14.45-3.13 19.17-.39 2-1.15 2.67-1.9 2.74-1.6.14-2.81-1.03-4.37-2-2.43-1.55-3.8-2.5-6.16-4-2.73-1.74-.96-2.7.6-4.25.4-.41 7.47-6.62 7.6-7.18.02-.07.04-.33-.12-.47-.17-.14-.4-.1-.58-.05-.24.05-4.12 2.53-11.65 7.43a5.36 5.36 0 01-3 1.07C6.3 17.52 4.4 17 3 16.56 1.26 16-.1 15.73.01 14.8c.06-.49.74-.98 2.05-1.48z" clip-rule="evenodd"/></g><defs><clipPath id="clip0"><path fill="#fff" d="M0 0h30v30H0z"/></clipPath></defs></svg>