<svg xmlns="http://www.w3.org/2000/svg" fill="none" viewBox="0 0 30 30"><g clip-path="url(#clip0)"><path fill="#3D3731" d="M2.42 18.07c-.9 0-1.59-.47-1.59-1.59v-1.8H0v-.98c.91-.23 1.3-1.02 1.34-1.7h.95v1.55h1.1v1.13H2.3v1.57c0 .47.24.63.61.63h.54v1.2H2.42zm3.4.06c.52 0 1.12-.23 1.44-.63v.57h1.7v-.97h-.43v-3.55H6.47v.98h.59v1.72c0 .13-.12.7-.89.7-.5 0-.59-.29-.59-.67v-2.73H4.06v2.8c0 .7.32 1.78 1.76 1.78zm3.7-.06h2.5v-.97h-.52v-1.69c0-.24.21-.75.86-.75.51 0 .62.32.62.7v1.74h-.5v.97h2.48v-.97h-.52v-1.69c0-.24.19-.75.83-.75.52 0 .65.32.65.7v1.74h-.5v.97h2.47v-.97h-.5v-1.58c0-.93-.35-2.03-1.74-2.03-.69 0-1.25.33-1.48.73-.3-.45-.76-.73-1.43-.73-.54 0-1.13.23-1.44.67v-.61H9.42v.98h.6v2.57h-.5v.97zm11.55.06c1.26 0 1.94-.95 1.94-2.37 0-1.37-.63-2.27-1.92-2.27-.45 0-.9.17-1.18.39V12h-2.09v.98h.61v5.1h1.4v-.4c.34.29.78.45 1.24.45zm-.32-1.1c-.44 0-.88-.29-.88-1.17 0-1.07.51-1.26.87-1.26.41 0 .78.33.78 1.16 0 1.2-.54 1.24-.77 1.26zm2.53 1.04h2.52v-.97h-.54V12H23.2v.98h.6v4.12h-.5v.97zm3.07 0h2.47v-.97h-.5v-1.26c0-.86.6-1.05 1.06-1.05H30v-1.3h-.5c-.56 0-1.08.28-1.31.71v-.65h-1.88v.98h.54v2.57h-.5v.97z"/></g><defs><clipPath id="clip0"><path fill="#fff" d="M0 0h30v30H0z"/></clipPath></defs></svg>