<svg xmlns="http://www.w3.org/2000/svg" fill="none" viewBox="0 0 30 30"><g clip-path="url(#clip0)"><path fill="#3D3731" d="M9.43 27.38c11.32 0 17.52-9.38 17.52-17.52 0-.26 0-.53-.02-.8 1.2-.86 2.24-1.94 3.07-3.18-1.12.5-2.32.83-3.54.97a6.18 6.18 0 002.71-3.4c-1.2.71-2.53 1.22-3.9 1.49a6.16 6.16 0 00-10.5 5.61A17.47 17.47 0 012.1 4.12 6.16 6.16 0 004 12.34a6.11 6.11 0 01-2.79-.77v.08a6.16 6.16 0 004.94 6.03c-.9.25-1.86.28-2.78.1a6.16 6.16 0 005.75 4.28A12.35 12.35 0 010 24.61a17.43 17.43 0 009.43 2.76"/></g><defs><clipPath id="clip0"><path fill="#fff" d="M0 0h30v30H0z"/></clipPath></defs></svg>