<svg xmlns="http://www.w3.org/2000/svg" fill="none" viewBox="0 0 30 30"><path fill="#3D3731" d="M28.2 17.37c.89-7.53-.43-12.28-2.82-14.43C21.52-.73 8.5-1.28 3.9 3.1c-2.07 2.14-2.8 5.3-2.88 9.18-.08 3.9-.18 11.18 6.62 13.16v3.02s-.05 1.23.73 1.47c.9.3 1.3-.27 4.08-3.6 4.65.4 8.23-.52 8.63-.65.94-.32 6.26-1.02 7.11-8.31zM12.9 24.2s-2.94 3.67-3.86 4.62c-.3.31-.63.28-.62-.33l.02-5.02c-5.76-1.65-5.42-7.86-5.36-11.1.07-3.26.66-5.92 2.41-7.71 4.05-3.8 15.46-2.95 18.37-.21 3.55 3.15 2.29 12.05 2.3 12.35-.74 6.1-5.04 6.48-5.83 6.74-.34.11-3.48.92-7.43.66z"/><path fill="#3D3731" d="M14.54 5.38c-.48 0-.48.75 0 .76 3.73.03 6.8 2.63 6.84 7.4 0 .5.73.5.73 0-.04-5.15-3.4-8.13-7.57-8.16z"/><path fill="#3D3731" d="M19.45 12.75c-.01.5.72.52.73.01a5.06 5.06 0 00-4.97-5.41c-.48-.03-.53.72-.05.76 2.84.21 4.34 2.16 4.29 4.64zm-.79 3.22c-.62-.36-1.24-.13-1.5.22l-.55.7c-.27.36-.79.3-.79.3-3.76-.99-4.77-4.93-4.77-4.93s-.05-.53.3-.81l.68-.57c.34-.27.55-.92.2-1.55-.92-1.67-1.54-2.25-1.85-2.7-.34-.4-.84-.5-1.36-.22-1.09.63-2.27 1.81-1.9 3.03.65 1.29 1.84 5.38 5.62 8.47a21.59 21.59 0 005.79 3.3v.03c1.18.39 2.33-.84 2.94-1.95v-.01c.27-.54.18-1.05-.22-1.38-.7-.69-1.76-1.44-2.59-1.93z"/><path fill="#3D3731" d="M15.72 10.14c1.2.07 1.79.7 1.85 1.98.02.5.75.47.73-.03-.08-1.68-.96-2.62-2.54-2.7-.48-.04-.52.72-.04.75z"/></svg>