<svg xmlns="http://www.w3.org/2000/svg" fill="none" viewBox="0 0 30 30"><g clip-path="url(#clip0)"><path fill="#3D3731" d="M29.84 22.35a15.47 15.47 0 00-3.08-3.62l-.04-.03-.01-.02-.02-.01h-.01a17.97 17.97 0 01-1.27-1.27c-.32-.42-.4-.84-.22-1.26.13-.32.6-1 1.4-2.03.44-.55.77-.99 1.02-1.32 1.8-2.38 2.59-3.9 2.35-4.56l-.1-.16c-.06-.09-.22-.18-.48-.25-.26-.08-.6-.1-1-.04l-4.5.03a.59.59 0 00-.31 0l-.2.05-.08.04-.06.05a.7.7 0 00-.18.16c-.06.08-.11.17-.15.27a25.27 25.27 0 01-2.74 5.16 5.66 5.66 0 01-1.4 1.57c-.18.14-.31.2-.4.18l-.27-.07a.918.918 0 01-.35-.38 1.7 1.7 0 01-.18-.6 6.6 6.6 0 01-.05-1.37l.02-.66a38.2 38.2 0 01.06-2.37L17.6 9a2.4 2.4 0 00-.22-1.2.84.84 0 00-.32-.38 1.81 1.81 0 00-.52-.2C16 7.07 15.3 7 14.44 7c-1.94-.03-3.19.1-3.74.36a2.1 2.1 0 00-.6.47c-.18.23-.2.35-.07.37.62.1 1.06.32 1.33.67l.09.19c.07.13.15.37.22.7a11.99 11.99 0 010 4.33 2.5 2.5 0 01-.4 1.08.27.27 0 01-.09.08c-.13.05-.27.07-.42.07a1 1 0 01-.53-.21c-.2-.15-.42-.35-.65-.6-.22-.26-.47-.6-.76-1.06-.28-.46-.57-1-.87-1.62l-.25-.45a38.63 38.63 0 01-1.36-2.87c-.08-.22-.2-.38-.37-.5l-.08-.04a1.67 1.67 0 00-.6-.23L1 7.77c-.44 0-.73.1-.9.3l-.05.09A.5.5 0 000 8.4c0 .12.03.26.1.42a51.06 51.06 0 003.95 7.5 38.65 38.65 0 003.2 4.21l.39.38c.25.25.61.54 1.1.89.48.35 1.02.69 1.6 1.02a8.77 8.77 0 004.34 1.08h1.8c.36-.03.64-.14.83-.34l.06-.08c.04-.06.08-.16.12-.28.03-.13.05-.28.05-.43-.01-.45.02-.85.1-1.2.08-.36.17-.63.27-.81a1.99 1.99 0 01.6-.68l.12-.06c.25-.08.55 0 .89.24.34.25.65.55.95.9.3.36.65.76 1.07 1.2.42.45.78.78 1.1 1l.3.19c.21.12.48.23.82.34.33.1.62.13.87.07l4-.06c.4 0 .7-.06.92-.2.22-.12.35-.26.4-.42a1.2 1.2 0 000-.53c-.04-.2-.07-.33-.1-.4z"/></g><defs><clipPath id="clip0"><path fill="#fff" d="M0 0h30v30H0z"/></clipPath></defs></svg>