<svg xmlns="http://www.w3.org/2000/svg" fill="none" viewBox="0 0 30 30"><g fill="#3D3731" clip-path="url(#clip0)"><path d="M20.84 10.5c-2.78.15-5.2 1-7.17 2.9a8.51 8.51 0 00-2.65 7.22c-1.08-.14-2.08-.28-3.07-.37-.35-.03-.76.01-1.05.18-.96.55-1.9 1.16-3 1.85.2-.91.34-1.71.57-2.48.17-.57.1-.88-.43-1.25C.7 16.19-.7 12.65.34 9.02c.98-3.36 3.37-5.4 6.63-6.47 4.44-1.45 9.44.03 12.14 3.56a8.33 8.33 0 011.73 4.4zM8.02 9.38A1.28 1.28 0 006.8 8.1c-.7-.02-1.28.51-1.3 1.2-.02.7.52 1.27 1.22 1.28.7.02 1.29-.52 1.31-1.2zm6.7-1.28c-.7.01-1.27.6-1.26 1.26 0 .7.58 1.24 1.29 1.23.7 0 1.24-.56 1.23-1.26 0-.7-.57-1.24-1.27-1.23z"/><path d="M27.1 27.87c-.88-.4-1.7-.98-2.55-1.07-.86-.1-1.76.4-2.66.5a8.87 8.87 0 01-7.2-2.36c-3.84-3.55-3.3-9 1.15-11.9 3.95-2.6 9.74-1.73 12.53 1.86a7.11 7.11 0 01-.83 9.92c-.86.76-1.16 1.39-.61 2.4.1.18.11.42.17.65zm-10.04-9.72c.56 0 1.03-.44 1.05-1a1.05 1.05 0 00-1.04-1.08c-.58 0-1.07.5-1.05 1.08.02.55.48 1 1.04 1zm6.47-2.07c-.54 0-1 .44-1.03.99-.02.59.44 1.07 1.02 1.07.56 0 1-.42 1.03-.98.02-.6-.44-1.08-1.02-1.08z"/></g><defs><clipPath id="clip0"><path fill="#fff" d="M0 0h30v30H0z"/></clipPath></defs></svg>