<svg xmlns="http://www.w3.org/2000/svg" fill="none" viewBox="0 0 30 30"><g clip-path="url(#clip0)"><path fill="#3D3731" fill-rule="evenodd" d="M21.77 17.98c-.37-.19-2.2-1.09-2.54-1.21-.34-.12-.59-.19-.84.19-.24.37-.96 1.2-1.17 1.45-.22.25-.44.28-.8.1-.38-.2-1.58-.58-3-1.85a11.2 11.2 0 01-2.06-2.57c-.22-.37-.02-.58.16-.76.17-.17.37-.43.56-.65.19-.22.25-.37.37-.62.13-.25.06-.47-.03-.65-.1-.19-.84-2.02-1.14-2.76-.3-.72-.61-.63-.84-.64L9.73 8c-.25 0-.65.1-1 .46-.33.38-1.3 1.28-1.3 3.1 0 1.83 1.34 3.6 1.52 3.85.19.24 2.62 4 6.35 5.6.89.39 1.58.62 2.12.79.89.28 1.7.24 2.34.14.71-.1 2.2-.9 2.5-1.76.31-.87.31-1.61.22-1.77-.1-.15-.34-.25-.71-.43zm-6.78 9.25c-2.22 0-4.4-.6-6.3-1.72l-.44-.27-4.68 1.23 1.25-4.56-.3-.47a12.37 12.37 0 0119.2-15.3A12.37 12.37 0 0115 27.23zM25.51 4.36A14.89 14.89 0 002.1 22.3L0 30l7.88-2.07a14.85 14.85 0 007.1 1.81H15A14.89 14.89 0 0025.51 4.36" clip-rule="evenodd"/></g><defs><clipPath id="clip0"><path fill="#fff" d="M0 0h30v30H0z"/></clipPath></defs></svg>