<svg width="82" height="52" fill="none" xmlns="http://www.w3.org/2000/svg"><g clip-path="url(#clip0)"><path d="M46.634 41.218c-3.179 0-6.005-.663-8.477-1.987a15.246 15.246 0 01-5.77-5.62c-1.373-2.385-2.06-5.11-2.06-8.176 0-3.104.648-5.83 1.943-8.176 1.334-2.384 3.16-4.258 5.475-5.62 2.315-1.363 4.984-2.044 8.006-2.044 2.983 0 5.573.662 7.77 1.987 2.238 1.287 3.965 3.085 5.181 5.393 1.217 2.31 1.825 4.94 1.825 7.892 0 .606-.196 1.098-.588 1.476-.393.34-.903.511-1.531.511h-25.02v-3.633H58.88l-2.531 1.76c.039-2.196-.373-4.164-1.237-5.905-.863-1.741-2.1-3.104-3.708-4.088-1.57-.984-3.454-1.476-5.652-1.476-2.237 0-4.2.511-5.887 1.533-1.688 1.022-3.002 2.441-3.944 4.258-.903 1.779-1.354 3.823-1.354 6.132 0 2.309.51 4.352 1.53 6.131a11.53 11.53 0 004.298 4.202c1.805 1.021 3.885 1.532 6.24 1.532 1.413 0 2.826-.227 4.239-.68 1.452-.493 2.61-1.098 3.473-1.818.432-.34.922-.51 1.472-.51.55-.038 1.02.094 1.413.397.51.454.765.946.765 1.476.04.53-.177.984-.648 1.363-1.295 1.06-2.943 1.949-4.945 2.668-2.001.681-3.924 1.022-5.769 1.022zM77.791 40.934c-2.08 0-3.944-.473-5.593-1.42a10.508 10.508 0 01-3.826-3.86c-.942-1.665-1.413-3.558-1.413-5.677V2.214c0-.643.196-1.173.589-1.59.431-.416.981-.624 1.648-.624.667 0 1.217.208 1.648.625.432.416.648.946.648 1.59v27.762c0 1.93.589 3.52 1.766 4.769 1.178 1.21 2.689 1.816 4.533 1.816h1.59c.628 0 1.138.209 1.53.625.393.416.589.946.589 1.59 0 .643-.236 1.173-.707 1.59-.47.378-1.06.567-1.766.567h-1.236zM63.133 14.818c-.59 0-1.08-.17-1.472-.511a1.826 1.826 0 01-.589-1.363c0-.567.196-1.022.589-1.362.392-.379.883-.568 1.472-.568h15.011c.589 0 1.08.19 1.472.568.393.34.589.795.589 1.362 0 .53-.196.984-.589 1.363-.392.34-.883.511-1.472.511H63.133zM13.816 52c-2.53 0-4.797-.572-6.8-1.715a12.92 12.92 0 01-4.76-4.647C1.087 43.683.5 41.488.5 39.054c0-.627.208-1.143.623-1.549.416-.405.945-.608 1.587-.608s1.171.203 1.587.608c.415.406.623.922.623 1.55 0 1.66.397 3.171 1.19 4.536a8.86 8.86 0 003.173 3.153c1.36.775 2.871 1.162 4.533 1.162 1.662 0 3.155-.387 4.477-1.162 1.36-.811 2.418-1.88 3.173-3.208.793-1.328 1.19-2.822 1.19-4.482V11.165c0-.627.208-1.143.623-1.549.416-.405.945-.608 1.587-.608s1.171.203 1.587.608c.415.406.623.922.623 1.55v27.889c0 2.434-.586 4.628-1.757 6.583a12.92 12.92 0 01-4.76 4.647C18.557 51.428 16.31 52 13.816 52z" fill="#2D2D2C"/><ellipse cx="24.743" cy="3.207" rx="3.181" ry="3.207" fill="#86AF28"/></g><defs><clipPath id="clip0"><path d="M.5 0h81v52H.5V0z" fill="#fff"/></clipPath></defs></svg>