<svg width="47" height="25" viewBox="0 0 47 25" fill="none" xmlns="http://www.w3.org/2000/svg">
<rect width="47" height="25" rx="3" fill="white"/>
<path fill-rule="evenodd" clip-rule="evenodd" d="M27.2245 9.00023C27.5881 9.00023 27.9525 8.99971 28.3167 9.00023C28.3161 10.0473 28.3179 11.0946 28.3158 12.1411C27.9471 11.7909 27.6002 11.4176 27.2168 11.0843C27.234 10.39 27.2187 9.69487 27.2245 9.00023ZM3.00292 9.29347C3.52294 9.01134 4.14585 8.97801 4.72029 9.08374C5.17641 9.16829 5.62497 9.40423 5.88025 9.79799C6.13516 10.2003 6.17607 10.706 6.08846 11.1638C5.95995 11.7798 5.53509 12.2718 5.13778 12.7402C4.66727 13.2425 4.185 13.7337 3.71273 14.2332C4.5909 14.234 5.46907 14.2332 6.34725 14.2337C6.34725 14.5465 6.34725 14.8594 6.34725 15.1724C4.94098 15.1728 3.53418 15.1728 2.12791 15.1724C2.12879 14.8964 2.1265 14.6203 2.12931 14.3448C2.76925 13.6727 3.40532 12.9967 4.04384 12.3234C4.28928 12.0576 4.52893 11.7824 4.71766 11.4732C4.85425 11.2487 4.93782 10.9838 4.90183 10.7199C4.87812 10.4541 4.7454 10.1701 4.48205 10.0638C4.21063 9.95755 3.87934 9.97491 3.63583 10.1411C3.35124 10.3371 3.2366 10.6926 3.23361 11.0225C2.82227 11.0225 2.41145 11.023 2.00027 11.0225C1.98816 10.3247 2.37826 9.62681 3.00292 9.29364V9.29347ZM12.1096 15.1745C12.101 13.1212 12.1073 11.0673 12.1065 9.0136C12.4697 9.01447 12.8324 9.01395 13.1955 9.01395C13.1955 9.86605 13.1969 10.7176 13.1946 11.5696C13.3407 11.2926 13.5605 11.0491 13.8426 10.9043C14.2099 10.7128 14.6395 10.6673 15.048 10.7057C15.4508 10.7425 15.8458 10.9305 16.0944 11.251C16.3739 11.6017 16.4571 12.0625 16.4513 12.4989C16.4482 13.3963 16.458 14.2936 16.4464 15.191C16.0837 15.187 15.721 15.191 15.3586 15.1887C15.3586 14.3955 15.3583 13.6021 15.3586 12.8088C15.3721 12.4732 15.2777 12.1003 14.9866 11.8972C14.5043 11.5696 13.7648 11.7078 13.4355 12.1869C13.2597 12.4319 13.1937 12.7376 13.196 13.034C13.1964 13.7457 13.1937 14.4573 13.1978 15.1688C12.835 15.1785 12.4723 15.1674 12.1096 15.1745ZM7.60481 11.2647C8.10096 10.8043 8.8148 10.6399 9.47861 10.7046C10.0885 10.7518 10.6956 11.018 11.0773 11.5017C10.8589 11.7137 10.6363 11.9211 10.4161 12.131C10.1263 11.8314 9.71545 11.6562 9.29708 11.6487C8.94156 11.6322 8.57252 11.7638 8.33973 12.0354C8.04934 12.367 7.97648 12.8376 8.05022 13.259C8.10868 13.6026 8.30286 13.934 8.61255 14.1115C8.93559 14.3043 9.33658 14.3047 9.69473 14.224C9.99056 14.1563 10.2588 13.9866 10.4449 13.7493C10.67 13.9351 10.8966 14.1194 11.1203 14.3066C10.8103 14.7625 10.2966 15.0559 9.7546 15.1505C9.05919 15.2804 8.28583 15.1785 7.72121 14.732C7.18873 14.3221 6.91625 13.6479 6.91713 12.9906C6.90238 12.3567 7.12447 11.6989 7.60481 11.2647ZM17.9519 11.2812C18.4157 10.8576 19.0685 10.69 19.6886 10.7234C20.2549 10.7359 20.849 10.9353 21.2086 11.3883C21.6468 11.9328 21.7202 12.667 21.6819 13.3385C20.5776 13.3408 19.4738 13.338 18.3699 13.3399C18.4577 13.7266 18.717 14.0839 19.0939 14.2377C19.6864 14.4795 20.4108 14.303 20.8499 13.8488C21.0464 14.0519 21.2405 14.2573 21.4382 14.459C21.0011 14.9505 20.3394 15.2084 19.6859 15.228C19.0437 15.2585 18.3659 15.0764 17.898 14.624C17.4433 14.1941 17.2364 13.5582 17.2503 12.9456C17.2517 12.33 17.4819 11.6977 17.9519 11.2812ZM18.8999 11.7216C18.5874 11.9123 18.4099 12.2602 18.3555 12.6109C19.1339 12.6114 19.9124 12.6118 20.6914 12.6109C20.6756 12.2625 20.5151 11.9046 20.2045 11.7203C19.8141 11.4906 19.2891 11.4874 18.8999 11.7216ZM22.9412 11.2256C23.4936 10.7433 24.2818 10.6136 24.992 10.7331C25.5241 10.814 26.0271 11.0807 26.3691 11.4949C26.1579 11.7154 25.9283 11.918 25.708 12.1305C25.4536 11.8821 25.1233 11.7046 24.766 11.663C24.4056 11.6105 24.0127 11.6861 23.7364 11.9314C23.4002 12.2229 23.2806 12.6932 23.3238 13.1212C23.3552 13.5021 23.5399 13.8866 23.8747 14.0936C24.2034 14.3038 24.6217 14.3089 24.9916 14.2226C25.2861 14.1545 25.552 13.9847 25.7376 13.7493C25.962 13.9354 26.189 14.1194 26.4127 14.3061C26.0959 14.7736 25.5659 15.0679 25.0104 15.1577C24.3138 15.279 23.5413 15.1665 22.9853 14.7092C22.4702 14.2978 22.2095 13.6359 22.2091 12.9906C22.1933 12.3382 22.4316 11.6581 22.9412 11.2256ZM27.2217 12.5955C27.5854 12.9422 27.9431 13.2955 28.2865 13.6625C28.3095 13.6576 28.3556 13.6488 28.3786 13.6443C28.5881 13.3785 28.8546 13.1621 29.0883 12.9172C29.8622 13.6767 30.6313 14.4412 31.4026 15.2038C30.8883 15.2012 30.3737 15.2058 29.8595 15.2018C29.419 14.7608 28.971 14.328 28.5305 13.8878C28.4668 13.8208 28.3813 13.7679 28.353 13.6755C28.3225 13.7208 28.2928 13.7733 28.313 13.8311C28.3211 14.2884 28.3147 14.7457 28.3167 15.203C27.9522 15.2035 27.5881 15.2035 27.2239 15.203C27.2222 14.334 27.2268 13.4647 27.2217 12.5955Z" fill="#3474FF"/>
<path fill-rule="evenodd" clip-rule="evenodd" d="M42.5474 9.69764C42.9061 9.69764 43.2642 9.6966 43.6229 9.69799C43.6234 10.1051 43.6229 10.5122 43.6234 10.9194C44.0476 10.9194 44.4723 10.9202 44.8972 10.9188C44.8998 11.1803 44.898 11.4416 44.8984 11.7029C44.4734 11.7034 44.0481 11.7029 43.6234 11.7029C43.6238 12.3829 43.6212 13.063 43.6247 13.7425C43.6256 13.9274 43.6742 14.1554 43.8666 14.2351C44.1573 14.3439 44.4611 14.2075 44.7258 14.0901C44.8197 14.3602 44.9084 14.6323 45 14.9035C44.5843 15.1603 44.0769 15.2856 43.5897 15.2066C43.293 15.1599 43.0035 15.0155 42.8202 14.775C42.6336 14.534 42.5627 14.224 42.5618 13.9252C42.5609 13.1844 42.5618 12.4439 42.5613 11.7029C42.3506 11.7029 42.1403 11.7034 41.9303 11.7029C41.9236 11.4421 41.9208 11.1812 41.9145 10.9208C42.125 10.9188 42.3357 10.9194 42.5465 10.9202C42.5488 10.5128 42.5465 10.1051 42.5474 9.69747V9.69764ZM29.7814 10.7037C30.2934 10.6758 30.8132 10.6997 31.3283 10.6918C30.5832 11.4354 29.8331 12.1736 29.0883 12.9172C28.8546 13.1621 28.5881 13.3785 28.3787 13.6443C28.3557 13.6488 28.3095 13.6576 28.2865 13.6625C27.9431 13.2955 27.5855 12.9422 27.2217 12.5955C27.1966 12.098 27.2087 11.5866 27.2168 11.0843C27.6002 11.4176 27.9471 11.7909 28.3158 12.1411C28.8042 11.6624 29.2902 11.1803 29.7814 10.7037ZM33.2353 10.7513C33.9032 10.6399 34.6326 10.7274 35.2013 11.1114C35.6507 11.4097 35.9564 11.8949 36.0596 12.4177C36.1944 13.0875 36.084 13.8319 35.652 14.3795C35.2871 14.8514 34.7095 15.1301 34.1189 15.1955C33.4569 15.2714 32.7437 15.1466 32.2097 14.7332C31.7593 14.3915 31.4834 13.8559 31.4179 13.3029C31.3413 12.7047 31.456 12.063 31.8276 11.5736C32.1603 11.1256 32.6867 10.8438 33.2353 10.7513ZM33.549 11.6411C33.2206 11.6946 32.9114 11.8795 32.7306 12.159C32.4079 12.663 32.4228 13.371 32.7815 13.8536C33.2079 14.4243 34.1549 14.475 34.6519 13.9687C35.1463 13.4599 35.1639 12.5767 34.7172 12.0336C34.4395 11.7017 33.9716 11.5624 33.549 11.6411ZM36.7559 10.7331C37.1198 10.7336 37.4834 10.7331 37.8476 10.7336C37.8484 11.5598 37.8467 12.3861 37.8484 13.2128C37.849 13.4998 37.941 13.8078 38.176 13.9932C38.4705 14.2217 38.892 14.2394 39.2314 14.1049C39.7254 13.9118 39.9492 13.3533 39.9236 12.8581C39.9236 12.1496 39.9236 11.4416 39.9236 10.7336C40.2925 10.7331 40.6612 10.7336 41.03 10.7331C41.0309 12.2132 41.0305 13.6927 41.0305 15.1724C40.6661 15.1728 40.3019 15.1728 39.938 15.1724C39.938 14.9004 39.9361 14.628 39.9392 14.3559C39.7828 14.6323 39.5586 14.8776 39.2705 15.0217C38.8899 15.2146 38.4431 15.2502 38.0251 15.187C37.6234 15.124 37.244 14.8978 37.0287 14.5519C36.8237 14.2351 36.7554 13.8514 36.7554 13.4807C36.755 12.5647 36.7541 11.6491 36.7559 10.7331Z" fill="#11CA79"/>
</svg>
