<svg width="47" height="25" viewBox="0 0 47 25" fill="none" xmlns="http://www.w3.org/2000/svg">
<rect width="47" height="25" rx="3" fill="white"/>
<path d="M14.3117 8.53583C14.6375 8.11696 14.8702 7.55848 14.8004 7C14.3117 7.02327 13.7299 7.32578 13.3809 7.72137C13.0784 8.07042 12.7991 8.65218 12.8689 9.18739C13.4274 9.2572 13.9626 8.95469 14.3117 8.53583ZM14.8004 9.32701C14.0092 9.28047 13.3343 9.76914 12.962 9.76914C12.5897 9.76914 12.008 9.35028 11.3797 9.35028C10.5652 9.37355 9.82056 9.81568 9.4017 10.5603C8.56398 12.0263 9.169 14.1905 10.0067 15.3772C10.4023 15.959 10.891 16.6105 11.5193 16.5873C12.1243 16.564 12.357 16.1917 13.0784 16.1917C13.7997 16.1917 14.0092 16.5873 14.6607 16.564C15.3123 16.5407 15.7312 15.9823 16.1268 15.3772C16.5922 14.7024 16.7783 14.0508 16.7783 14.0276C16.755 14.0043 15.4985 13.5389 15.4985 12.0961C15.4752 10.8861 16.4758 10.3044 16.5223 10.2811C15.9871 9.44336 15.1029 9.35028 14.8004 9.32701Z" fill="black"/>
<path d="M22.6418 7.67493C24.3637 7.67493 25.5505 8.8617 25.5505 10.5604C25.5505 12.2824 24.3405 13.4692 22.5952 13.4692H20.7103V16.471H19.3374V7.67493H22.6418ZM20.7103 12.3289H22.2694C23.4562 12.3289 24.131 11.6774 24.131 10.5837C24.131 9.46672 23.4562 8.83843 22.2694 8.83843H20.6871V12.3289H20.7103ZM25.8996 14.6792C25.8996 13.5623 26.7606 12.8642 28.2964 12.7711L30.0649 12.678V12.1893C30.0649 11.468 29.5762 11.0491 28.7851 11.0491C28.0171 11.0491 27.5517 11.4214 27.4354 11.9799H26.1788C26.2486 10.8164 27.2492 9.9554 28.8316 9.9554C30.3907 9.9554 31.3913 10.7698 31.3913 12.073V16.4943H30.1347V15.4471H30.1115C29.7391 16.1685 28.9247 16.6106 28.087 16.6106C26.7838 16.6106 25.8996 15.8195 25.8996 14.6792ZM30.0649 14.0975V13.5855L28.4825 13.6786C27.6914 13.7252 27.2492 14.0742 27.2492 14.6327C27.2492 15.1912 27.7146 15.5635 28.4127 15.5635C29.3435 15.5635 30.0649 14.9352 30.0649 14.0975ZM32.5548 18.8678V17.7974C32.6479 17.8207 32.8806 17.8207 32.9737 17.8207C33.5787 17.8207 33.9045 17.5647 34.1139 16.9132C34.1139 16.8899 34.2303 16.5176 34.2303 16.5176L31.9032 10.095H33.3227L34.9516 15.3308H34.9749L36.6038 10.095H38L35.6032 16.8666C35.0447 18.4257 34.4164 18.9144 33.09 18.9144C32.9969 18.8911 32.6712 18.8911 32.5548 18.8678Z" fill="black"/>
</svg>
