<svg width="47" height="25" viewBox="0 0 47 25" fill="none" xmlns="http://www.w3.org/2000/svg">
<rect width="47" height="25" rx="3" fill="white"/>
<path fill-rule="evenodd" clip-rule="evenodd" d="M34.4047 16.7719C31.4486 18.8946 27.1574 20.0271 23.4724 20.0271C18.5425 20.0516 13.7809 18.2836 10.1206 15.0697C9.84182 14.8269 10.0899 14.4946 10.423 14.6831C14.2251 16.8357 18.9247 18.1323 23.7832 18.1323C27.2851 18.1137 30.7488 17.4223 33.9754 16.0978C34.4744 15.8916 34.8939 16.4179 34.4047 16.776V16.7719ZM35.634 15.4101C36.013 15.8808 35.2158 17.8231 34.8577 18.6898C34.7489 18.9516 34.9817 19.0574 35.2256 18.8593C36.8103 17.5681 37.22 14.8635 36.8981 14.4729C36.5761 14.0823 33.804 13.7513 32.112 14.9083C31.8514 15.086 31.896 15.3315 32.1859 15.2976C33.1378 15.1863 35.259 14.9381 35.6367 15.4101" fill="#FF9900"/>
<path fill-rule="evenodd" clip-rule="evenodd" d="M18.4376 6.48018C17.8836 6.48456 17.3461 6.66914 16.9064 7.00603V10.1901C17.3939 10.5567 17.8966 10.7397 18.4144 10.7391C19.4655 10.7391 19.991 10.0315 19.991 8.61638C19.991 7.20125 19.4732 6.48886 18.4376 6.47922V6.48018ZM16.8263 6.33159C17.1001 6.09013 17.413 5.89697 17.7516 5.7604C18.0714 5.6329 18.4126 5.56741 18.757 5.56742C19.0992 5.56105 19.4387 5.62955 19.7517 5.76811C20.0467 5.90335 20.3051 6.10713 20.5053 6.36247C20.7233 6.64534 20.8845 6.96775 20.98 7.31189C21.0957 7.71976 21.1516 8.14228 21.146 8.56621C21.1512 8.99916 21.0914 9.43045 20.9684 9.84561C20.8655 10.1979 20.6969 10.5276 20.4715 10.8172C20.2622 11.0806 19.9965 11.2936 19.6938 11.4405C19.3759 11.5881 19.0283 11.6611 18.6778 11.6538C18.0228 11.6646 17.3887 11.4227 16.9073 10.9784V13.6568C16.9165 13.7198 16.8954 13.7835 16.8504 13.8285C16.8053 13.8736 16.7417 13.8947 16.6787 13.8855H16.0032C15.9402 13.8947 15.8766 13.8736 15.8315 13.8285C15.7865 13.7835 15.7654 13.7198 15.7746 13.6568V5.96591C15.7658 5.90298 15.787 5.83957 15.832 5.79464C15.8769 5.74971 15.9403 5.72846 16.0032 5.73724H16.5059C16.5715 5.7311 16.6368 5.75206 16.6865 5.79525C16.7363 5.83844 16.7662 5.9001 16.7693 5.96591L16.8263 6.33159Z" fill="#232F3E"/>
<path fill-rule="evenodd" clip-rule="evenodd" d="M23.9961 10.8259C24.2654 10.8225 24.5321 10.7726 24.7844 10.6783C25.0676 10.5742 25.3334 10.4278 25.5727 10.2441V9.07761C25.3747 9.03105 25.1744 8.99497 24.9726 8.96954C24.7701 8.94298 24.5661 8.92944 24.3618 8.92902C23.4999 8.92902 23.0692 9.26061 23.0699 9.92379C23.0699 10.2132 23.15 10.4361 23.3101 10.5924C23.4703 10.7487 23.699 10.8266 23.9961 10.8259ZM22.6588 6.733L22.573 6.76194C22.542 6.77295 22.5094 6.77881 22.4765 6.77931C22.38 6.77931 22.3279 6.71081 22.3279 6.57283V6.26697C22.3206 6.18971 22.3367 6.11203 22.3742 6.04409C22.4235 5.98879 22.4864 5.94723 22.5566 5.92348C22.8467 5.80556 23.1494 5.72107 23.4587 5.67165C23.8131 5.60749 24.1725 5.57516 24.5326 5.57516C25.2562 5.57516 25.7895 5.72343 26.1323 6.01997C26.4752 6.3165 26.6469 6.77738 26.6476 7.40261V11.3064C26.6563 11.3694 26.6351 11.4328 26.5902 11.4777C26.5452 11.5226 26.4818 11.5439 26.4189 11.5351H25.9268C25.8644 11.5413 25.8022 11.5215 25.7547 11.4805C25.7073 11.4394 25.6788 11.3807 25.676 11.318L25.6181 10.9408C25.3489 11.1739 25.0418 11.3593 24.7101 11.4888C24.3956 11.6149 24.06 11.6804 23.7211 11.6818C23.1731 11.6818 22.7389 11.5274 22.4186 11.2186C22.0983 10.9099 21.9374 10.4966 21.9362 9.97879C21.9362 9.42303 22.1343 8.97919 22.5305 8.64728C22.9267 8.31537 23.46 8.14973 24.1302 8.15038C24.616 8.15785 25.0992 8.22262 25.5698 8.34335V7.59269C25.5698 7.18101 25.4785 6.89156 25.2958 6.72431C25.1131 6.55707 24.7931 6.47313 24.3358 6.47248C23.7671 6.47786 23.2023 6.56561 22.6588 6.733Z" fill="#232F3E"/>
<path fill-rule="evenodd" clip-rule="evenodd" d="M30.3662 12.5472C30.1597 13.0728 29.9214 13.45 29.6512 13.679C29.3811 13.908 29.0273 14.0222 28.5899 14.0215C28.3702 14.0245 28.1511 13.9975 27.9386 13.9415C27.8672 13.9262 27.8028 13.8879 27.7553 13.8324C27.7119 13.7626 27.692 13.6808 27.6984 13.5989V13.3018C27.6984 13.157 27.7553 13.0847 27.8701 13.0847C27.9279 13.0873 27.9853 13.0947 28.0418 13.1069C28.1435 13.1244 28.2465 13.1322 28.3496 13.13C28.5922 13.1453 28.8321 13.0723 29.025 12.9245C29.1852 12.7875 29.3299 12.536 29.4592 12.17L29.6763 11.5911L27.4745 6.14829C27.4331 6.06163 27.4064 5.96871 27.3954 5.8733C27.3954 5.78261 27.4485 5.73629 27.5546 5.73629H28.2406C28.3285 5.72787 28.4167 5.74782 28.4924 5.79322C28.557 5.86529 28.6036 5.95157 28.6285 6.04505L30.2292 10.4786L31.773 6.04505C31.7979 5.95157 31.8445 5.86529 31.909 5.79322C31.9847 5.74782 32.073 5.72787 32.1608 5.73629H32.8005C32.9076 5.73629 32.9607 5.78261 32.9607 5.8733C32.9492 5.96872 32.9222 6.06161 32.8806 6.14829L30.3662 12.5472Z" fill="#232F3E"/>
</svg>
