<svg width="47" height="25" viewBox="0 0 47 25" fill="none" xmlns="http://www.w3.org/2000/svg">
<rect width="46.9995" height="25" rx="3" fill="#016FD0"/>
<path d="M9.10217 21.6477V14.3066H16.8956L17.7318 15.3938L18.5956 14.3066H46.8839V21.1414C46.8839 21.1414 46.1441 21.6403 45.2885 21.6477H29.6247L28.6819 20.4905V21.6477H25.5927V19.6723C25.5927 19.6723 25.1707 19.948 24.2584 19.948H23.2069V21.6477H18.5295L17.6945 20.5372L16.8467 21.6477H9.10217Z" fill="white"/>
<path d="M0 8.77389L1.75745 4.6875H4.79678L5.79416 6.97653V4.6875H9.57233L10.1661 6.34194L10.7417 4.6875H27.7017V5.51924C27.7017 5.51924 28.5933 4.6875 30.0586 4.6875L35.5615 4.70668L36.5416 6.96575V4.6875H39.7034L40.5736 5.98515V4.6875H43.7644V12.0285H40.5736L39.7397 10.7267V12.0285H35.0943L34.6272 10.8713H33.3783L32.9188 12.0285H29.7685C28.5077 12.0285 27.7017 11.2138 27.7017 11.2138V12.0285H22.9518L22.0091 10.8713V12.0285H4.34653L3.87969 10.8713H2.63485L2.17132 12.0285H0V8.77389Z" fill="white"/>
<path d="M2.37958 5.59235L0.00915527 11.0891H1.55242L1.98979 9.98839H4.53244L4.96755 11.0891H6.54481L4.17665 5.59235H2.37958ZM3.25659 6.8716L4.03162 8.79502H2.47929L3.25659 6.8716Z" fill="#016FD0"/>
<path d="M6.70728 11.0885V5.5918L8.90034 5.59992L10.1759 9.14387L11.4209 5.5918H13.5965V11.0885H12.2186V7.03831L10.7581 11.0885H9.54972L8.08511 7.03831V11.0885H6.70728Z" fill="#016FD0"/>
<path d="M14.5404 11.0885V5.5918H19.0365V6.82134H15.9327V7.76156H18.964V8.91877H15.9327V9.89517H19.0365V11.0885H14.5404Z" fill="#016FD0"/>
<path d="M19.8337 5.59277V11.0895H21.2116V9.13672H21.7917L23.4438 11.0895H25.1275L23.3146 9.0644C24.0586 9.00178 24.8261 8.36488 24.8261 7.37606C24.8261 6.21935 23.9158 5.59277 22.8999 5.59277H19.8337ZM21.2116 6.82231H22.7866C23.1644 6.82231 23.4392 7.11707 23.4392 7.40091C23.4392 7.76609 23.0831 7.97952 22.807 7.97952H21.2116V6.82231Z" fill="#016FD0"/>
<path d="M26.7944 11.0885H25.3876V5.5918H26.7944V11.0885Z" fill="#016FD0"/>
<path d="M30.1304 11.0885H29.8267C28.3574 11.0885 27.4653 9.93405 27.4653 8.36277C27.4653 6.75267 28.3474 5.5918 30.2029 5.5918H31.7257V6.89366H30.1472C29.394 6.89366 28.8613 7.47991 28.8613 8.37633C28.8613 9.44084 29.4704 9.88794 30.3479 9.88794H30.7105L30.1304 11.0885Z" fill="#016FD0"/>
<path d="M33.1296 5.59277L30.7592 11.0895H32.3024L32.7398 9.98881H35.2824L35.7175 11.0895H37.2948L34.9267 5.59277H33.1296ZM34.0066 6.87203L34.7816 8.79545H33.2293L34.0066 6.87203Z" fill="#016FD0"/>
<path d="M37.4567 11.0885V5.5918H39.2084L41.4451 9.04535V5.5918H42.823V11.0885H41.1279L38.8345 7.54459V11.0885H37.4567Z" fill="#016FD0"/>
<path d="M10.0442 20.7077V15.2109H14.5403V16.4405H11.4365V17.3807H14.4678V18.5379H11.4365V19.5143H14.5403V20.7077H10.0442Z" fill="#016FD0"/>
<path d="M32.0752 20.7077V15.2109H36.5713V16.4405H33.4675V17.3807H36.4843V18.5379H33.4675V19.5143H36.5713V20.7077H32.0752Z" fill="#016FD0"/>
<path d="M14.7159 20.7077L16.9051 17.9932L14.6638 15.2109H16.3997L17.7345 16.9309L19.0738 15.2109H20.7417L18.5299 17.9593L20.7231 20.7077H18.9875L17.6914 19.0148L16.4269 20.7077H14.7159Z" fill="#016FD0"/>
<path d="M20.8854 15.2119V20.7087H22.2995V18.9728H23.7498C24.977 18.9728 25.9072 18.3235 25.9072 17.0607C25.9072 16.0147 25.1777 15.2119 23.9289 15.2119H20.8854ZM22.2995 16.455H23.8269C24.2233 16.455 24.5067 16.6974 24.5067 17.0879C24.5067 17.4547 24.2248 17.7207 23.8223 17.7207H22.2995V16.455Z" fill="#016FD0"/>
<path d="M26.5038 15.2109V20.7077H27.8816V18.7549H28.4618L30.1138 20.7077H31.7976L29.9846 18.6826C30.7287 18.6199 31.4962 17.983 31.4962 16.9942C31.4962 15.8375 30.5859 15.2109 29.5699 15.2109H26.5038ZM27.8816 16.4405H29.4566C29.8344 16.4405 30.1093 16.7352 30.1093 17.0191C30.1093 17.3843 29.7532 17.5977 29.477 17.5977H27.8816V16.4405Z" fill="#016FD0"/>
<path d="M37.2086 20.7077V19.5143H39.9661C40.3741 19.5143 40.5508 19.2944 40.5508 19.0532C40.5508 18.8222 40.3747 18.5885 39.9661 18.5885H38.72C37.6369 18.5885 37.0337 17.9304 37.0337 16.9422C37.0337 16.0609 37.5861 15.2109 39.1956 15.2109H41.8788L41.2986 16.4477H38.9781C38.5345 16.4477 38.3979 16.6799 38.3979 16.9016C38.3979 17.1294 38.5667 17.3807 38.9056 17.3807H40.2109C41.4183 17.3807 41.9422 18.0638 41.9422 18.9583C41.9422 19.92 41.3584 20.7077 40.1451 20.7077H37.2086Z" fill="#016FD0"/>
<path d="M42.2669 20.7077V19.5143H45.0244C45.4324 19.5143 45.609 19.2944 45.609 19.0532C45.609 18.8222 45.4329 18.5885 45.0244 18.5885H43.7783C42.6951 18.5885 42.0919 17.9304 42.0919 16.9422C42.0919 16.0609 42.6443 15.2109 44.2539 15.2109H46.937L46.3569 16.4477H44.0363C43.5927 16.4477 43.4562 16.6799 43.4562 16.9016C43.4562 17.1294 43.6249 17.3807 43.9638 17.3807H45.2691C46.4765 17.3807 47.0005 18.0638 47.0005 18.9583C47.0005 19.92 46.4166 20.7077 45.2034 20.7077H42.2669Z" fill="#016FD0"/>
</svg>
