<svg width="47" height="25" viewBox="0 0 47 25" fill="none" xmlns="http://www.w3.org/2000/svg">
<rect width="47" height="25" rx="3" fill="white"/>
<path d="M5.85582 14.6385C5.43799 15.0148 4.89523 15.179 4.03599 15.179H3.6791V10.6828H4.03599C4.89523 10.6828 5.41663 10.8361 5.85582 11.2326C6.31572 11.6411 6.5924 12.2739 6.5924 12.9253C6.5924 13.578 6.31572 14.2303 5.85582 14.6385ZM4.30237 9.53073H2.35034V16.3301H4.29207C5.3246 16.3301 6.07014 16.0871 6.72461 15.5451C7.50228 14.9033 7.96218 13.9358 7.96218 12.9351C7.96218 10.9286 6.45899 9.53073 4.30237 9.53073Z" fill="#201D1C"/>
<path d="M8.57397 16.3301H9.90378V9.53073H8.57397V16.3301Z" fill="#201D1C"/>
<path d="M13.1537 12.1394C12.3558 11.8449 12.1214 11.6506 12.1214 11.2833C12.1214 10.8551 12.5389 10.5296 13.1121 10.5296C13.5105 10.5296 13.838 10.6929 14.1845 11.0803L14.8802 10.1716C14.3084 9.67281 13.6243 9.41778 12.8769 9.41778C11.6707 9.41778 10.7506 10.2532 10.7506 11.366C10.7506 12.3028 11.179 12.7824 12.428 13.2307C12.9485 13.4138 13.2134 13.5358 13.3472 13.6179C13.6129 13.791 13.7459 14.0359 13.7459 14.3214C13.7459 14.8724 13.3067 15.2806 12.7134 15.2806C12.0792 15.2806 11.5683 14.9642 11.2621 14.3737L10.403 15.1987C11.0156 16.0956 11.7515 16.4932 12.7633 16.4932C14.1453 16.4932 15.1147 15.5768 15.1147 14.2605C15.1147 13.1802 14.6665 12.6912 13.1537 12.1394Z" fill="#201D1C"/>
<path d="M15.5358 12.9361C15.5358 14.9347 17.1093 16.4844 19.1343 16.4844C19.7067 16.4844 20.1969 16.3721 20.8015 16.0881V14.5269C20.2699 15.0576 19.799 15.2716 19.196 15.2716C17.8568 15.2716 16.9062 14.3032 16.9062 12.9263C16.9062 11.6208 17.8868 10.5911 19.1343 10.5911C19.7685 10.5911 20.2486 10.8168 20.8015 11.3561V9.79566C20.2178 9.50031 19.7378 9.37799 19.1656 9.37799C17.151 9.37799 15.5358 10.9591 15.5358 12.9361Z" fill="#201D1C"/>
<path d="M31.3457 14.0982L29.5277 9.53109H28.075L30.968 16.5049H31.6836L34.6289 9.53109H33.1874L31.3457 14.0982Z" fill="#201D1C"/>
<path d="M35.2307 16.3301H39.002V15.179H36.5594V13.3437H38.9119V12.1919H36.5594V10.6828H39.002V9.53073H35.2307V16.3301Z" fill="#201D1C"/>
<path d="M41.6005 12.6611H41.212V10.6017H41.6215C42.4497 10.6017 42.8999 10.9478 42.8999 11.6095C42.8999 12.2931 42.4497 12.6611 41.6005 12.6611ZM44.2684 11.5381C44.2684 10.2652 43.3892 9.53073 41.8556 9.53073H39.8838V16.3301H41.212V13.5987H41.3854L43.2261 16.3301H44.8615L42.7153 13.4656C43.7168 13.2625 44.2684 12.5792 44.2684 11.5381Z" fill="#201D1C"/>
<path d="M44.8627 9.86841H44.8385V9.71223H44.8642C44.935 9.71223 44.9716 9.73762 44.9716 9.78908C44.9716 9.84197 44.9345 9.86841 44.8627 9.86841ZM45.1147 9.78689C45.1147 9.66771 45.0324 9.60255 44.8878 9.60255H44.6954V10.2002H44.8385V9.9684L45.0062 10.2002H45.1808L44.9838 9.95374C45.068 9.93109 45.1147 9.86985 45.1147 9.78689Z" fill="#201D1C"/>
<path d="M44.9158 10.3278C44.6868 10.3278 44.4995 10.1377 44.4995 9.90059C44.4995 9.66261 44.6843 9.47265 44.9158 9.47265C45.1436 9.47265 45.3294 9.66697 45.3294 9.90059C45.3294 10.1357 45.1436 10.3278 44.9158 10.3278ZM44.9178 9.37885C44.6267 9.37885 44.3958 9.61047 44.3958 9.89984C44.3958 10.189 44.6294 10.4209 44.9178 10.4209C45.2012 10.4209 45.4334 10.1865 45.4334 9.89984C45.4334 9.61456 45.2012 9.37885 44.9178 9.37885Z" fill="#201D1C"/>
<path d="M28.5019 12.9316C28.5019 14.8959 26.9053 16.4883 24.9358 16.4883C22.9662 16.4883 21.3696 14.8959 21.3696 12.9316C21.3696 10.9674 22.9662 9.375 24.9358 9.375C26.9053 9.375 28.5019 10.9674 28.5019 12.9316Z" fill="#D77517"/>
</svg>
