<svg width="47" height="25" viewBox="0 0 47 25" fill="none" xmlns="http://www.w3.org/2000/svg">
<rect width="47" height="25" rx="3" fill="white"/>
<path d="M17.9952 12.2127C18.0012 11.862 17.965 11.5113 17.8884 11.1707H13.0994V13.0633H15.9111C15.8043 13.7345 15.4274 14.3311 14.869 14.7181L14.859 14.7805L16.3727 15.9536L16.4775 15.9637C17.4389 15.0748 17.9952 13.7667 17.9952 12.2127Z" fill="#4285F4"/>
<path d="M13.0994 17.1991C14.476 17.1991 15.633 16.7456 16.4775 15.9636L14.8691 14.7159C14.347 15.0667 13.7282 15.244 13.1014 15.2259C11.7792 15.2178 10.6102 14.3632 10.199 13.1055L10.1385 13.1115L8.56435 14.329L8.54419 14.3854C9.40685 16.1127 11.1705 17.2011 13.0994 17.1991Z" fill="#34A853"/>
<path d="M10.197 13.1076C10.0861 12.7831 10.0277 12.4424 10.0277 12.0978C10.0297 11.7551 10.0861 11.4145 10.1929 11.088L10.1909 11.0215L8.59661 9.78391L8.5442 9.80809C7.8186 11.2492 7.8186 12.9463 8.5442 14.3875L10.197 13.1076Z" fill="#FBBC05"/>
<path d="M13.0994 8.97157C13.831 8.95947 14.5365 9.23157 15.0706 9.73144L16.5097 8.32658C15.5866 7.45989 14.3631 6.98623 13.0974 7.00034C11.1685 7.00034 9.40484 8.08673 8.54016 9.81206L10.1889 11.0919C10.6041 9.83423 11.7752 8.97963 13.0994 8.97157Z" fill="#EB4335"/>
<path d="M22.0914 12.6661V16.3727H20.9062V7.21598H24.0485C24.8044 7.19986 25.538 7.48405 26.0843 8.0081C27.1545 8.99372 27.2231 10.6626 26.2354 11.7329C26.187 11.7853 26.1367 11.8357 26.0843 11.884C25.536 12.4041 24.8044 12.6842 24.0485 12.6641L22.0914 12.6661ZM22.0914 8.34269V11.5394H24.0767C24.5161 11.5535 24.9414 11.3822 25.2478 11.0657C25.8666 10.4711 25.8847 9.48955 25.2901 8.87077L25.278 8.85867C25.2679 8.8486 25.2579 8.8365 25.2478 8.82844C24.9434 8.50595 24.5182 8.33059 24.0767 8.34269H22.0914ZM29.6619 9.90274C30.5387 9.90274 31.23 10.1345 31.7359 10.6001C32.2418 11.0637 32.4958 11.7006 32.4958 12.5109V16.3727H31.363V15.502H31.3126C30.8229 16.2175 30.1698 16.5763 29.3535 16.5763C28.7166 16.5965 28.0938 16.3788 27.61 15.9615C27.3861 15.7744 27.2069 15.5395 27.0855 15.2741C26.9642 15.0087 26.9037 14.7195 26.9086 14.4277C26.8885 13.823 27.1646 13.2446 27.6483 12.8818C28.1422 12.4988 28.8012 12.3073 29.6256 12.3073C30.2283 12.2851 30.8269 12.4162 31.363 12.6903V12.4202C31.3651 12.0171 31.1857 11.6341 30.8733 11.3802C30.5588 11.1 30.1517 10.9468 29.7304 10.9529C29.0975 10.9387 28.5029 11.2532 28.1603 11.7833L27.1182 11.1302C27.6866 10.3119 28.5352 9.90274 29.6619 9.90274ZM28.128 14.4539C28.126 14.7583 28.2732 15.0445 28.5191 15.2218C28.7811 15.4274 29.1076 15.5342 29.4402 15.5282C29.94 15.5282 30.4177 15.3307 30.7725 14.9779C31.1454 14.6534 31.361 14.1818 31.361 13.686C30.9902 13.3937 30.4762 13.2466 29.8151 13.2466C29.3878 13.2304 28.9645 13.3514 28.6118 13.5912C28.3155 13.7807 28.1341 14.1032 28.128 14.4539ZM39 10.1083L35.0455 19.1341H33.822L35.2894 15.9757L32.6873 10.1063H33.9752L35.8557 14.6071H35.8819L37.7101 10.1063L39 10.1083Z" fill="#7D7D7D"/>
</svg>
