<svg width="47" height="25" viewBox="0 0 47 25" fill="none" xmlns="http://www.w3.org/2000/svg">
<rect width="47" height="25" rx="3" fill="white"/>
<path d="M36.5522 23.1453V23.2013H36.6039C36.6154 23.2013 36.6252 23.1986 36.6323 23.1942C36.6388 23.1899 36.6426 23.1823 36.6426 23.173C36.6426 23.1638 36.6388 23.1567 36.6323 23.1524C36.6252 23.1475 36.6154 23.1453 36.6039 23.1453H36.5522ZM36.6045 23.1062C36.6312 23.1062 36.6519 23.1122 36.6666 23.1241C36.6813 23.1361 36.6884 23.1524 36.6884 23.173C36.6884 23.1904 36.6829 23.2046 36.671 23.216C36.6595 23.2268 36.6432 23.2339 36.6214 23.2366L36.69 23.3154H36.6366L36.5729 23.2372H36.5522V23.3154H36.5075V23.1062H36.6045ZM36.5909 23.3877C36.6154 23.3877 36.6383 23.3828 36.659 23.3736C36.6802 23.3643 36.6987 23.3518 36.7145 23.3361C36.7303 23.3203 36.7429 23.3018 36.7521 23.2801C36.7609 23.2589 36.7658 23.2361 36.7658 23.2116C36.7658 23.1872 36.7609 23.1643 36.7521 23.1431C36.7429 23.122 36.7303 23.1029 36.7145 23.0872C36.6987 23.0714 36.6802 23.0589 36.659 23.0497C36.6383 23.041 36.6154 23.0366 36.5909 23.0366C36.5663 23.0366 36.5429 23.041 36.5217 23.0497C36.4999 23.0589 36.4808 23.0714 36.465 23.0872C36.4492 23.1029 36.4367 23.122 36.4279 23.1431C36.4187 23.1643 36.4143 23.1872 36.4143 23.2116C36.4143 23.2361 36.4187 23.2589 36.4279 23.2801C36.4367 23.3018 36.4492 23.3203 36.465 23.3361C36.4808 23.3518 36.4999 23.3643 36.5217 23.3736C36.5429 23.3828 36.5663 23.3877 36.5909 23.3877ZM36.5909 22.9861C36.623 22.9861 36.6524 22.9921 36.6808 23.004C36.7086 23.0154 36.7325 23.0317 36.7538 23.0524C36.7745 23.0725 36.7908 23.0964 36.8028 23.1241C36.8148 23.1513 36.8208 23.1806 36.8208 23.2116C36.8208 23.2426 36.8148 23.2719 36.8028 23.2991C36.7908 23.3263 36.7745 23.3502 36.7538 23.3708C36.7325 23.3909 36.7086 23.4072 36.6808 23.4192C36.6524 23.4312 36.623 23.4371 36.5909 23.4371C36.5582 23.4371 36.5282 23.4312 36.4999 23.4192C36.4715 23.4072 36.447 23.3909 36.4263 23.3708C36.4056 23.3502 36.3893 23.3263 36.3773 23.2991C36.3653 23.2719 36.3593 23.2426 36.3593 23.2116C36.3593 23.1806 36.3653 23.1513 36.3773 23.1241C36.3893 23.0964 36.4056 23.0725 36.4263 23.0524C36.447 23.0317 36.4715 23.0154 36.4999 23.004C36.5282 22.9921 36.5582 22.9861 36.5909 22.9861ZM15.3625 22.1802C15.3625 21.7814 15.6246 21.4537 16.0528 21.4537C16.462 21.4537 16.7383 21.7672 16.7383 22.1802C16.7383 22.5932 16.462 22.9068 16.0528 22.9068C15.6246 22.9068 15.3625 22.5791 15.3625 22.1802ZM17.2047 22.1802V21.0456H16.7099V21.3211C16.553 21.1168 16.3149 20.9885 15.9912 20.9885C15.3532 20.9885 14.853 21.4874 14.853 22.1802C14.853 22.8736 15.3532 23.3719 15.9912 23.3719C16.3149 23.3719 16.553 23.2437 16.7099 23.0394V23.3149H17.2047V22.1802ZM33.9232 22.1802C33.9232 21.7814 34.1853 21.4537 34.6136 21.4537C35.0233 21.4537 35.299 21.7672 35.299 22.1802C35.299 22.5932 35.0233 22.9068 34.6136 22.9068C34.1853 22.9068 33.9232 22.5791 33.9232 22.1802ZM35.7659 22.1802V20.1343H35.2707V21.3211C35.1137 21.1168 34.8756 20.9885 34.552 20.9885C33.914 20.9885 33.4138 21.4874 33.4138 22.1802C33.4138 22.8736 33.914 23.3719 34.552 23.3719C34.8756 23.3719 35.1137 23.2437 35.2707 23.0394V23.3149H35.7659V22.1802ZM23.3458 21.4303C23.6645 21.4303 23.8694 21.6297 23.9217 21.9808H22.741C22.7939 21.6531 22.9933 21.4303 23.3458 21.4303ZM23.3556 20.9885C22.6887 20.9885 22.2223 21.4727 22.2223 22.1802C22.2223 22.9019 22.7078 23.3719 23.3888 23.3719C23.7316 23.3719 24.0454 23.2866 24.3216 23.054L24.0792 22.6883C23.8885 22.8399 23.6455 22.9258 23.4172 22.9258C23.0984 22.9258 22.808 22.7785 22.7366 22.3699H24.4263C24.4312 22.3085 24.4361 22.2465 24.4361 22.1802C24.4312 21.4727 23.9931 20.9885 23.3556 20.9885ZM29.3295 22.1802C29.3295 21.7814 29.5916 21.4537 30.0198 21.4537C30.429 21.4537 30.7053 21.7672 30.7053 22.1802C30.7053 22.5932 30.429 22.9068 30.0198 22.9068C29.5916 22.9068 29.3295 22.5791 29.3295 22.1802ZM31.1717 22.1802V21.0456H30.6769V21.3211C30.5195 21.1168 30.2819 20.9885 29.9582 20.9885C29.3202 20.9885 28.82 21.4874 28.82 22.1802C28.82 22.8736 29.3202 23.3719 29.9582 23.3719C30.2819 23.3719 30.5195 23.2437 30.6769 23.0394V23.3149H31.1717V22.1802ZM26.5354 22.1802C26.5354 22.8687 27.016 23.3719 27.7494 23.3719C28.0921 23.3719 28.3204 23.2958 28.5678 23.1013L28.3302 22.7024C28.1444 22.8356 27.9493 22.9068 27.7347 22.9068C27.3396 22.9019 27.0492 22.6171 27.0492 22.1802C27.0492 21.7433 27.3396 21.4586 27.7347 21.4537C27.9493 21.4537 28.1444 21.5249 28.3302 21.658L28.5678 21.2591C28.3204 21.0646 28.0921 20.9885 27.7494 20.9885C27.016 20.9885 26.5354 21.4917 26.5354 22.1802ZM32.9141 20.9885C32.6286 20.9885 32.4428 21.1217 32.3142 21.3211V21.0456H31.8239V23.3149H32.3191V22.0427C32.3191 21.6672 32.481 21.4586 32.8046 21.4586C32.9049 21.4586 33.0095 21.4727 33.1141 21.5156L33.2667 21.0505C33.1571 21.0075 33.0144 20.9885 32.9141 20.9885ZM19.6516 21.226C19.4135 21.0695 19.0855 20.9885 18.7237 20.9885C18.1473 20.9885 17.7762 21.264 17.7762 21.7151C17.7762 22.0851 18.0525 22.3134 18.5614 22.3845L18.7951 22.4177C19.0665 22.4557 19.1945 22.5269 19.1945 22.6552C19.1945 22.8307 19.0136 22.9307 18.6758 22.9307C18.3331 22.9307 18.0857 22.8214 17.919 22.6932L17.6858 23.0774C17.9571 23.2768 18.2998 23.3719 18.6709 23.3719C19.328 23.3719 19.7088 23.0633 19.7088 22.6313C19.7088 22.2324 19.4092 22.0237 18.9139 21.9525L18.6807 21.9188C18.4666 21.8906 18.2949 21.8482 18.2949 21.696C18.2949 21.5298 18.4568 21.4303 18.7281 21.4303C19.0185 21.4303 19.2997 21.5395 19.4375 21.6249L19.6516 21.226ZM26.0352 20.9885C25.7497 20.9885 25.5639 21.1217 25.4359 21.3211V21.0456H24.9455V23.3149H25.4403V22.0427C25.4403 21.6672 25.6021 21.4586 25.9257 21.4586C26.026 21.4586 26.1306 21.4727 26.2352 21.5156L26.3878 21.0505C26.2782 21.0075 26.1355 20.9885 26.0352 20.9885ZM21.8131 21.0456H21.004V20.3571H20.5038V21.0456H20.0423V21.4966H20.5038V22.5318C20.5038 23.0584 20.7087 23.3719 21.2939 23.3719C21.5085 23.3719 21.7559 23.3056 21.9128 23.1964L21.7701 22.7736C21.6224 22.8589 21.4606 22.9019 21.332 22.9019C21.0846 22.9019 21.004 22.7497 21.004 22.522V21.4966H21.8131V21.0456ZM14.4155 23.3149V21.8906C14.4155 21.3542 14.0728 20.9934 13.5203 20.9885C13.2299 20.9836 12.9302 21.0738 12.7204 21.3923C12.5635 21.1407 12.3162 20.9885 11.9685 20.9885C11.7255 20.9885 11.488 21.0597 11.3022 21.3254V21.0456H10.8069V23.3149H11.3065V22.0569C11.3065 21.6629 11.5256 21.4537 11.8639 21.4537C12.1925 21.4537 12.3587 21.6672 12.3587 22.052V23.3149H12.8588V22.0569C12.8588 21.6629 13.0871 21.4537 13.4157 21.4537C13.7535 21.4537 13.9153 21.6672 13.9153 22.052V23.3149H14.4155Z" fill="#231F20"/>
<path d="M36.8587 15.7676V15.4361H36.7723L36.6723 15.6638L36.5729 15.4361H36.4859V15.7676H36.5473V15.5176L36.6408 15.7333H36.7044L36.7978 15.5171V15.7676H36.8587ZM36.3104 15.7676V15.4926H36.4212V15.4366H36.1387V15.4926H36.2495V15.7676H36.3104Z" fill="#F79410"/>
<path d="M27.0087 17.1946H19.5105V3.75488H27.0087V17.1946Z" fill="#FF5F00"/>
<path d="M19.9921 10.4731C19.9921 7.74683 21.272 5.31831 23.2651 3.75328C21.8076 2.60886 19.9682 1.92579 17.9691 1.92579C13.2364 1.92579 9.40002 5.7525 9.40002 10.4731C9.40002 15.1938 13.2364 19.0205 17.9691 19.0205C19.9682 19.0205 21.8076 18.3374 23.2651 17.193C21.272 15.6279 19.9921 13.1994 19.9921 10.4731Z" fill="#EB001B"/>
<path d="M37.1225 10.4732C37.1225 15.1938 33.2861 19.0205 28.5534 19.0205C26.5543 19.0205 24.7149 18.3374 23.2568 17.193C25.2505 15.628 26.5304 13.1995 26.5304 10.4732C26.5304 7.74686 25.2505 5.31834 23.2568 3.75331C24.7149 2.60889 26.5543 1.92582 28.5534 1.92582C33.2861 1.92582 37.1225 5.75253 37.1225 10.4732Z" fill="#F79E1B"/>
</svg>
