<svg width="47" height="25" viewBox="0 0 47 25" fill="none" xmlns="http://www.w3.org/2000/svg">
<rect width="47" height="25" rx="3" fill="white"/>
<g clip-path="url(#clip0)">
<path d="M18.6052 9.26811H16.3154C16.2396 9.26806 16.1663 9.29482 16.1086 9.34355C16.051 9.39229 16.0128 9.4598 16.001 9.53393L15.0749 15.3464C15.0707 15.3734 15.0724 15.4009 15.0799 15.4272C15.0874 15.4534 15.1006 15.4778 15.1186 15.4985C15.1365 15.5192 15.1588 15.5359 15.1839 15.5472C15.2089 15.5586 15.2362 15.5645 15.2638 15.5645H16.3569C16.4328 15.5645 16.5061 15.5377 16.5638 15.4889C16.6214 15.4401 16.6596 15.3725 16.6713 15.2983L16.9211 13.7306C16.9328 13.6565 16.9709 13.5889 17.0285 13.5401C17.086 13.4913 17.1593 13.4645 17.2351 13.4645H17.96C19.4683 13.4645 20.3388 12.7419 20.5662 11.3101C20.6686 10.6837 20.5705 10.1915 20.2742 9.84681C19.9488 9.4683 19.3716 9.26811 18.6052 9.26811ZM18.8693 11.391C18.7441 12.2043 18.1164 12.2043 17.5093 12.2043H17.1638L17.4062 10.6853C17.4133 10.6409 17.4362 10.6004 17.4708 10.5712C17.5053 10.542 17.5493 10.5259 17.5947 10.5259H17.7531C18.1666 10.5259 18.5566 10.5259 18.7582 10.7593C18.8784 10.8985 18.9152 11.1053 18.8693 11.391ZM25.4497 11.3648H24.3532C24.3078 11.3648 24.2638 11.3809 24.2293 11.4101C24.1947 11.4393 24.1718 11.4798 24.1647 11.5242L24.1162 11.8278L24.0395 11.7178C23.8021 11.3767 23.2728 11.2627 22.7445 11.2627C21.5328 11.2627 20.4979 12.1712 20.2963 13.4456C20.1915 14.0813 20.3405 14.6891 20.7048 15.113C21.0389 15.5028 21.517 15.6652 22.0859 15.6652C23.0622 15.6652 23.6036 15.0438 23.6036 15.0438L23.5547 15.3454C23.5503 15.3724 23.5519 15.3999 23.5594 15.4262C23.5668 15.4525 23.58 15.4769 23.5978 15.4977C23.6157 15.5185 23.638 15.5352 23.663 15.5467C23.688 15.5581 23.7153 15.5641 23.7429 15.5641H24.7306C24.8064 15.5642 24.8798 15.5374 24.9374 15.4886C24.9951 15.4398 25.0332 15.3722 25.045 15.298L25.6376 11.5829C25.6419 11.556 25.6403 11.5285 25.6329 11.5022C25.6255 11.476 25.6124 11.4517 25.5945 11.4309C25.5767 11.4102 25.5545 11.3935 25.5295 11.3821C25.5045 11.3707 25.4773 11.3648 25.4497 11.3648ZM23.9213 13.4774C23.8155 14.0975 23.3183 14.5138 22.6842 14.5138C22.3658 14.5138 22.1113 14.4127 21.9479 14.2211C21.7859 14.0309 21.7243 13.7601 21.7758 13.4585C21.8746 12.8437 22.3802 12.4138 23.0046 12.4138C23.316 12.4138 23.5691 12.5162 23.7358 12.7094C23.9029 12.9047 23.9692 13.1771 23.9213 13.4774ZM31.2895 11.3648H30.1877C30.1357 11.3649 30.0845 11.3775 30.0386 11.4016C29.9927 11.4257 29.9534 11.4605 29.9242 11.503L28.4045 13.719L27.7603 11.5895C27.7405 11.5246 27.7001 11.4676 27.6451 11.4272C27.5901 11.3867 27.5234 11.3648 27.4549 11.3648H26.3721C26.3417 11.3647 26.3118 11.3718 26.2847 11.3855C26.2577 11.3992 26.2343 11.4191 26.2166 11.4436C26.1989 11.468 26.1873 11.4963 26.1828 11.5261C26.1784 11.5558 26.1812 11.5862 26.191 11.6147L27.4047 15.1406L26.2637 16.7351C26.2434 16.7634 26.2314 16.7966 26.2289 16.8312C26.2264 16.8658 26.2336 16.9004 26.2497 16.9312C26.2658 16.962 26.2901 16.9878 26.3201 17.0059C26.35 17.0239 26.3843 17.0334 26.4194 17.0334H27.5199C27.5713 17.0335 27.6219 17.0212 27.6674 16.9977C27.713 16.9741 27.7521 16.94 27.7814 16.8982L31.4462 11.6614C31.4661 11.6331 31.4777 11.5999 31.4799 11.5655C31.4821 11.5311 31.4747 11.4967 31.4586 11.4662C31.4424 11.4356 31.4181 11.41 31.3883 11.3921C31.3585 11.3743 31.3244 11.3648 31.2895 11.3648Z" fill="#253B80"/>
<path d="M34.9375 9.26823H32.6474C32.5716 9.26826 32.4984 9.29505 32.4408 9.34378C32.3833 9.39251 32.3451 9.45998 32.3333 9.53404L31.4073 15.3465C31.4029 15.3734 31.4046 15.401 31.4121 15.4272C31.4195 15.4534 31.4327 15.4777 31.4506 15.4985C31.4684 15.5192 31.4906 15.5358 31.5157 15.5473C31.5407 15.5587 31.5679 15.5646 31.5954 15.5646H32.7706C32.8236 15.5645 32.8749 15.5457 32.9151 15.5116C32.9554 15.4774 32.982 15.4302 32.9902 15.3783L33.2531 13.7307C33.2648 13.6566 33.3029 13.5891 33.3605 13.5403C33.418 13.4915 33.4913 13.4646 33.5671 13.4646H34.2917C35.8003 13.4646 36.6705 12.742 36.8982 11.3102C37.001 10.6838 36.9022 10.1916 36.6059 9.84692C36.2808 9.46842 35.7039 9.26823 34.9375 9.26823ZM35.2017 11.3911C35.0768 12.2045 34.449 12.2045 33.8417 12.2045H33.4965L33.7392 10.6855C33.7462 10.641 33.769 10.6005 33.8035 10.5713C33.838 10.542 33.882 10.526 33.9274 10.526H34.0857C34.4989 10.526 34.8893 10.526 35.0908 10.7594C35.211 10.8986 35.2475 11.1054 35.2017 11.3911ZM41.7817 11.3649H40.6859C40.6404 11.3648 40.5965 11.3808 40.5619 11.4101C40.5274 11.4393 40.5046 11.4799 40.4977 11.5243L40.4492 11.8279L40.3722 11.7179C40.1348 11.3768 39.6058 11.2628 39.0775 11.2628C37.8658 11.2628 36.8312 12.1713 36.6296 13.4457C36.5252 14.0814 36.6735 14.6893 37.0378 15.1132C37.3726 15.5029 37.85 15.6653 38.4189 15.6653C39.3952 15.6653 39.9366 15.0439 39.9366 15.0439L39.8877 15.3455C39.8833 15.3725 39.8849 15.4002 39.8924 15.4265C39.8999 15.4528 39.9131 15.4773 39.9311 15.4981C39.949 15.5189 39.9713 15.5356 39.9964 15.547C40.0216 15.5584 40.0489 15.5643 40.0765 15.5643H41.0639C41.1397 15.5642 41.213 15.5374 41.2706 15.4886C41.3281 15.4398 41.3662 15.3722 41.3779 15.2981L41.9709 11.583C41.9751 11.556 41.9734 11.5284 41.9658 11.5022C41.9582 11.4759 41.945 11.4516 41.927 11.4309C41.909 11.4102 41.8867 11.3935 41.8617 11.3821C41.8366 11.3708 41.8093 11.3649 41.7817 11.3649ZM40.2533 13.4775C40.1482 14.0976 39.6503 14.5139 39.0162 14.5139C38.6984 14.5139 38.4433 14.4128 38.2799 14.2213C38.1179 14.031 38.0569 13.7602 38.1078 13.4586C38.2073 12.8438 38.7122 12.4139 39.3366 12.4139C39.648 12.4139 39.9011 12.5163 40.0678 12.7096C40.2356 12.9048 40.3019 13.1772 40.2533 13.4775ZM43.0744 9.42765L42.1346 15.3465C42.1303 15.3734 42.132 15.401 42.1394 15.4272C42.1469 15.4534 42.16 15.4777 42.1779 15.4985C42.1958 15.5192 42.218 15.5358 42.243 15.5473C42.268 15.5587 42.2952 15.5646 42.3228 15.5646H43.2676C43.4247 15.5646 43.5579 15.4519 43.582 15.2984L44.5088 9.48632C44.5131 9.45938 44.5114 9.43183 44.504 9.40558C44.4965 9.37932 44.4834 9.35498 44.4655 9.33423C44.4476 9.31348 44.4254 9.2968 44.4004 9.28535C44.3754 9.2739 44.3482 9.26795 44.3206 9.2679H43.2626C43.2172 9.26806 43.1733 9.28422 43.1388 9.31349C43.1043 9.34277 43.0815 9.38324 43.0744 9.42765Z" fill="#179BD7"/>
<path d="M5.5653 16.694L5.74041 15.593L5.35035 15.584H3.48779L4.78218 7.45943C4.78603 7.43461 4.79877 7.41198 4.81806 7.39568C4.83736 7.37937 4.86194 7.37047 4.88731 7.37061H8.02784C9.07044 7.37061 9.78996 7.58538 10.1656 8.00929C10.3417 8.20815 10.4539 8.41597 10.5081 8.64466C10.565 8.88462 10.566 9.17132 10.5105 9.52099L10.5065 9.54651V9.77056L10.6826 9.86933C10.817 9.93676 10.9379 10.028 11.0391 10.1385C11.1898 10.3085 11.2872 10.5246 11.3284 10.7808C11.3709 11.0443 11.3569 11.3578 11.2872 11.7128C11.2069 12.1211 11.077 12.4768 10.9015 12.7678C10.7467 13.0285 10.5386 13.2542 10.2905 13.4306C10.0575 13.5944 9.78058 13.7187 9.46753 13.7982C9.16419 13.8764 8.81833 13.9159 8.43899 13.9159H8.19458C8.01981 13.9159 7.85006 13.9782 7.7168 14.0899C7.58373 14.2028 7.49546 14.3587 7.4677 14.53L7.44929 14.6291L7.13992 16.5697L7.12586 16.641C7.12217 16.6635 7.11581 16.6748 7.10644 16.6824C7.09736 16.6897 7.08603 16.6938 7.0743 16.694H5.5653Z" fill="#253B80"/>
<path d="M10.8501 9.57233C10.8408 9.63165 10.83 9.69231 10.818 9.75462C10.4038 11.8596 8.9869 12.5868 7.17725 12.5868H6.25584C6.03453 12.5868 5.84804 12.7459 5.81356 12.962L5.34181 15.9237L5.20822 16.7632C5.2029 16.7965 5.20493 16.8306 5.21417 16.863C5.22342 16.8955 5.23966 16.9256 5.26177 16.9512C5.28389 16.9768 5.31135 16.9974 5.34228 17.0116C5.3732 17.0257 5.40685 17.033 5.44091 17.033H7.07513C7.26865 17.033 7.43304 16.8938 7.46351 16.7049L7.47958 16.6227L7.78727 14.6898L7.80703 14.5837C7.83716 14.3941 8.00189 14.2549 8.19541 14.2549H8.43982C10.0231 14.2549 11.2626 13.6185 11.6249 11.7771C11.7762 11.0078 11.6979 10.3655 11.2974 9.91371C11.1705 9.77396 11.0189 9.65828 10.8501 9.57233Z" fill="#179BD7"/>
<path d="M10.4168 9.40128C10.2846 9.36341 10.15 9.33385 10.014 9.31278C9.74528 9.27189 9.47367 9.25228 9.20177 9.25412H6.74024C6.64656 9.25404 6.55594 9.28715 6.48477 9.34745C6.41361 9.40775 6.36658 9.49127 6.35219 9.5829L5.82854 12.8661L5.81348 12.9619C5.82979 12.8574 5.88335 12.7621 5.96448 12.6933C6.0456 12.6245 6.14893 12.5867 6.25576 12.5867H7.17717C8.98682 12.5867 10.4037 11.8592 10.8179 9.75459C10.8303 9.69228 10.8407 9.63163 10.8501 9.5723C10.7408 9.51556 10.6269 9.468 10.5095 9.43011C10.4788 9.42001 10.4479 9.41039 10.4168 9.40128Z" fill="#222D65"/>
<path d="M6.35227 9.583C6.36654 9.49134 6.41354 9.40779 6.48475 9.34752C6.55595 9.28725 6.64664 9.25426 6.74032 9.25455H9.20186C9.49348 9.25455 9.76568 9.27344 10.0141 9.31321C10.1822 9.33937 10.348 9.37848 10.51 9.43021C10.6322 9.47031 10.7457 9.51771 10.8505 9.5724C10.9737 8.79451 10.8495 8.26487 10.4246 7.78527C9.95619 7.25729 9.11079 7.03125 8.02901 7.03125H4.88848C4.6675 7.03125 4.479 7.19034 4.44485 7.40677L3.13674 15.6149C3.13065 15.653 3.13297 15.6919 3.14354 15.7291C3.15411 15.7662 3.17268 15.8006 3.19797 15.83C3.22326 15.8594 3.25468 15.8829 3.29006 15.8991C3.32544 15.9153 3.36394 15.9237 3.40292 15.9238H5.34181L5.82863 12.8662L6.35227 9.583Z" fill="#253B80"/>
</g>
<defs>
<clipPath id="clip0">
<rect width="41.5167" height="10.9375" fill="white" transform="translate(3.1333 7.03125)"/>
</clipPath>
</defs>
</svg>
