<svg width="47" height="25" viewBox="0 0 47 25" fill="none" xmlns="http://www.w3.org/2000/svg">
<rect width="47" height="25" rx="3" fill="white"/>
<path d="M24.7813 8.68756H22.6204V16.1857H24.7813V8.68756Z" fill="#646FDE"/>
<path d="M13.4586 14.0001C13.4586 11.4104 10.1687 11.8766 10.1687 10.8963L10.17 10.8989C10.17 10.5604 10.4516 10.4287 10.9024 10.4235C11.556 10.4235 12.3891 10.6237 13.044 10.9815V8.93551C12.3323 8.65135 11.6193 8.53897 10.9075 8.53897C9.1625 8.53897 8 9.45864 8 10.9957C8 13.4034 11.2705 13.012 11.2705 14.0505C11.2705 14.4509 10.9269 14.584 10.4464 14.584C9.73471 14.584 8.81375 14.2856 8.09171 13.8891V15.8472C8.89125 16.1934 9.69984 16.3407 10.4413 16.3407C12.2289 16.3394 13.4586 15.5657 13.4586 14.0001Z" fill="#646FDE"/>
<path d="M22.6139 8.02883L24.7749 7.56383V5.79166L22.6139 6.25666V8.02883Z" fill="#646FDE"/>
<path d="M29.2712 8.54163C28.4277 8.54163 27.8852 8.94204 27.5855 9.22234L27.4745 8.68371H25.5796V18.7084L27.7302 18.2472L27.7354 15.7905C28.0454 16.0204 28.5052 16.3394 29.257 16.3394C30.7979 16.3394 32.202 15.2041 32.202 12.4438C32.2071 9.91725 30.7837 8.54163 29.2712 8.54163ZM28.7584 14.5363C28.2533 14.5376 27.955 14.3516 27.7457 14.1255L27.7315 10.895C27.955 10.6458 28.265 10.4636 28.7584 10.4636C29.5424 10.4636 30.0849 11.3549 30.0849 12.4903C30.0914 13.6605 29.5579 14.5363 28.7584 14.5363ZM35.8897 8.54163C33.845 8.54163 32.5998 10.2983 32.5998 12.5122C32.5998 15.1304 34.0671 16.3407 36.1609 16.3407C37.1878 16.3407 37.9576 16.1056 38.5441 15.7776V14.1423C37.9576 14.4407 37.2847 14.6215 36.4322 14.6215C35.5939 14.6215 34.8576 14.3231 34.7608 13.3053H38.9703C38.9794 13.1929 38.9987 12.737 38.9987 12.5277H39C39 10.2996 37.9344 8.54163 35.8897 8.54163ZM34.7414 11.7036C34.7414 10.7245 35.3381 10.3138 35.8755 10.3138C36.4038 10.3138 36.9656 10.7258 36.9656 11.7036H34.7414ZM17.6255 10.5385V8.68758H15.9928L15.9876 6.80304L13.8887 7.25383L13.8796 14.2237C13.8796 15.5115 14.8393 16.3433 16.1129 16.3433C16.8208 16.3433 17.3387 16.2103 17.6255 16.054V14.3993C17.3491 14.5117 15.9928 14.9134 15.9928 13.6308V10.5373H17.6255V10.5385ZM22.1011 10.6858V8.68888C21.8105 8.58554 20.8082 8.39567 20.3044 9.32954L20.1727 8.68888H18.3126V16.187H20.4594V11.1405C20.9683 10.4649 21.826 10.598 22.1011 10.6858Z" fill="#646FDE"/>
</svg>
