<svg width="47" height="25" viewBox="0 0 47 25" fill="none" xmlns="http://www.w3.org/2000/svg">
<rect width="47" height="25" rx="3" fill="white"/>
<path d="M20.786 19.208H17.4863L19.5502 6.48071H22.8496L20.786 19.208Z" fill="#00579F"/>
<path d="M32.7477 6.79173C32.0968 6.53421 31.0646 6.24988 29.7882 6.24988C26.5296 6.24988 24.235 7.98287 24.2209 10.4605C24.1939 12.2885 25.8638 13.3039 27.1128 13.9134C28.3894 14.5362 28.8234 14.9427 28.8234 15.4979C28.8104 16.3505 27.7918 16.7436 26.8418 16.7436C25.5244 16.7436 24.8185 16.5409 23.7458 16.0666L23.3113 15.8632L22.8496 18.7202C23.6235 19.0719 25.0493 19.3839 26.5296 19.3976C29.9919 19.3976 32.2459 17.6914 32.2726 15.0511C32.2858 13.6022 31.404 12.4921 29.5029 11.5849C28.3488 11.0026 27.642 10.6099 27.642 10.014C27.6556 9.47238 28.2398 8.91757 29.5426 8.91757C30.6153 8.89039 31.4034 9.14755 32.0005 9.40489L32.2989 9.54004L32.7477 6.79173Z" fill="#00579F"/>
<path d="M37.1325 14.6992C37.4042 13.968 38.4498 11.1382 38.4498 11.1382C38.4361 11.1654 38.721 10.3935 38.884 9.9197L39.1146 11.0164C39.1146 11.0164 39.7394 14.0629 39.8751 14.6992C39.3594 14.6992 37.7842 14.6992 37.1325 14.6992ZM41.2055 6.48071H38.6532C37.8661 6.48071 37.2681 6.7107 36.9286 7.5367L32.0273 19.2078H35.4896C35.4896 19.2078 36.0596 17.637 36.1821 17.2987C36.5619 17.2987 39.93 17.2987 40.4186 17.2987C40.5133 17.7455 40.8123 19.2078 40.8123 19.2078H43.8675L41.2055 6.48071Z" fill="#00579F"/>
<path d="M14.7306 6.48071L11.4991 15.1595L11.146 13.3994C10.5486 11.3684 8.67489 9.16172 6.58398 8.06452L9.54388 19.1945H13.0332L18.2197 6.48071H14.7306Z" fill="#00579F"/>
<path d="M8.49791 6.48096H3.18908L3.13477 6.73812C7.27598 7.79429 10.0186 10.3401 11.1455 13.4001L9.99139 7.5508C9.80139 6.73794 9.21749 6.50777 8.49791 6.48096Z" fill="#FAA61A"/>
</svg>
