<?xml version="1.0" encoding="UTF-8"?>
<svg xmlns="http://www.w3.org/2000/svg" xmlns:xlink="http://www.w3.org/1999/xlink" width="30pt" height="30pt" viewBox="0 0 30 30" version="1.1">
<g id="surface1">
<path style=" stroke:none;fill-rule:nonzero;fill:rgb(0%,0%,0%);fill-opacity:1;" d="M 13.992188 13.773438 L 13.992188 25.558594 L 11.609375 23.175781 C 9.980469 21.550781 9.191406 20.777344 9.125 20.746094 C 8.890625 20.628906 8.621094 20.597656 8.382812 20.660156 C 8.1875 20.710938 8.070312 20.78125 7.921875 20.925781 C 7.691406 21.15625 7.585938 21.480469 7.640625 21.789062 C 7.699219 22.140625 7.457031 21.875 11.082031 25.507812 C 14.722656 29.152344 14.492188 28.9375 14.84375 28.996094 C 14.957031 29.015625 15.042969 29.015625 15.15625 28.996094 C 15.507812 28.9375 15.277344 29.152344 18.917969 25.507812 C 22.542969 21.875 22.300781 22.140625 22.359375 21.789062 C 22.414062 21.480469 22.308594 21.15625 22.078125 20.925781 C 21.929688 20.78125 21.8125 20.710938 21.617188 20.660156 C 21.378906 20.597656 21.109375 20.628906 20.875 20.746094 C 20.808594 20.777344 20.019531 21.550781 18.394531 23.175781 L 16.007812 25.558594 L 16.007812 1.992188 L 13.992188 1.992188 Z M 13.992188 13.773438 "/>
</g>
</svg>
