<svg xmlns="http://www.w3.org/2000/svg" viewBox="0 0 512 512">
    <path fill="#482f21" d="M255.998 126.4c8.284 0 15-6.716 15-15V15c0-8.284-6.716-15-15-15s-15 6.716-15 15v96.4c0 8.285 6.716 15 15 15z"/>
    <path fill="#843d2d" d="M255.998 512c8.284 0 15-6.716 15-15v-96.399c0-8.284-6.716-15-15-15s-15 6.716-15 15V497c0 8.284 6.716 15 15 15z"/>
    <path fill="#b37150" d="M328.285 145.775c5.184 0 10.225-2.69 13.004-7.503l48.199-83.485c4.143-7.175 1.684-16.349-5.49-20.49-7.174-4.144-16.348-1.686-20.49 5.49l-48.199 83.485c-4.143 7.175-1.684 16.349 5.49 20.49 2.362 1.365 4.941 2.013 7.486 2.013z"/>
    <path fill="#663e2c" d="M135.484 479.715c5.184 0 10.226-2.69 13.004-7.503l48.199-83.483c4.143-7.175 1.685-16.349-5.49-20.49-7.174-4.143-16.348-1.685-20.49 5.49l-48.199 83.483c-4.143 7.175-1.685 16.349 5.49 20.49 2.362 1.364 4.941 2.013 7.486 2.013z"/>
    <path fill="#b37150" d="M381.238 198.705c2.545 0 5.124-.648 7.486-2.013l83.486-48.202c7.175-4.143 9.633-13.316 5.49-20.49-4.143-7.175-13.315-9.634-20.49-5.49l-83.486 48.202c-7.175 4.143-9.633 13.316-5.49 20.49 2.779 4.813 7.821 7.503 13.004 7.503z"/>
    <path fill="#663e2c" d="M47.301 391.503c2.545 0 5.124-.648 7.486-2.013l83.484-48.198c7.174-4.142 9.633-13.315 5.49-20.49-4.143-7.175-13.315-9.635-20.49-5.49L39.787 363.51c-7.174 4.142-9.633 13.315-5.49 20.49 2.778 4.811 7.82 7.503 13.004 7.503z"/>
    <path fill="#b37150" d="M400.598 271.002H497c8.284 0 15-6.716 15-15s-6.716-15-15-15h-96.402c-8.284 0-15 6.716-15 15s6.715 15 15 15z"/>
    <path fill="#663e2c" d="M15 271.002h96.398c8.284 0 15-6.716 15-15s-6.716-15-15-15H15c-8.284 0-15 6.716-15 15s6.716 15 15 15z"/>
    <path fill="#843d2d" d="M464.697 391.505c5.184 0 10.226-2.69 13.004-7.503 4.143-7.175 1.685-16.349-5.49-20.49l-83.486-48.2c-7.173-4.143-16.349-1.684-20.49 5.49-4.143 7.175-1.685 16.349 5.49 20.49l83.486 48.2c2.362 1.364 4.941 2.013 7.486 2.013z"/>
    <path fill="#482f21" d="M130.758 198.705c5.184 0 10.226-2.691 13.004-7.503 4.143-7.175 1.685-16.349-5.49-20.49l-83.484-48.2c-7.174-4.145-16.348-1.684-20.49 5.49-4.143 7.174-1.685 16.349 5.49 20.49l83.484 48.2c2.362 1.365 4.941 2.013 7.486 2.013z"/>
    <path fill="#843d2d" d="M376.512 479.718c2.545 0 5.124-.648 7.486-2.013 7.174-4.142 9.633-13.316 5.49-20.49l-48.199-83.485c-4.142-7.174-13.316-9.635-20.49-5.49-7.174 4.142-9.633 13.315-5.49 20.49l48.199 83.485c2.778 4.811 7.82 7.503 13.004 7.503z"/>
    <path fill="#482f21" d="M183.711 145.775c2.545 0 5.124-.648 7.486-2.013 7.175-4.143 9.633-13.316 5.49-20.49L148.488 39.79c-4.142-7.176-13.315-9.635-20.49-5.49-7.175 4.143-9.633 13.316-5.49 20.49l48.199 83.483c2.778 4.812 7.82 7.502 13.004 7.502z"/>
</svg>