<svg width="20" height="20" xmlns="http://www.w3.org/2000/svg" fill="none" viewBox="0 0 20 20">
  <path fill="#070605" d="M8.38881 2.17893c.1062-.23857.44951-.23857.55571 0l2.23808 5.02799c.0444.09976.1403.16783.2503.1777l5.6241.50466c.2668.02393.3735.35203.1706.52446l-4.2351 3.59946c-.0852.0725-.1228.1854-.0976.2936l1.2408 5.3262c.0595.2553-.219.4573-.4485.3255l-4.86777-2.7964c-.09441-.0543-.21112-.0543-.30553 0l-4.86777 2.7964c-.22954.1318-.50796-.0702-.4485-.3255l1.2408-5.3262c.02518-.1082-.01238-.2211-.0976-.2936L.105711 8.41374c-.2028792-.17243-.09614119-.50053.170622-.52446L5.9004 7.38462c.11005-.00987.20595-.07794.25035-.1777l2.23806-5.02799z"/>
</svg>
