<svg xmlns="http://www.w3.org/2000/svg" fill="none" viewBox="0 0 25 25">
    <path fill="#BF1010" fill-rule="evenodd" d="M7.61646 9.17035c-.0111.02494-.03507.04195-.06258.04442L.345416 9.8616c-.3334537.02992-.466876.44-.213277.6556l5.432441 4.6171c.02131.0181.0307.0463.0244.0734l-1.59194 6.8336c-.07433.3191.2737.5716.56062.4068l6.23744-3.5833c.0236-.0136.0528-.0136.0764 0l6.2375 3.5833c.2869.1648.635-.0877.5606-.4068l-1.5919-6.8336c-.0063-.0271.0031-.0553.0244-.0734l5.4324-4.6171c.2536-.2156.1202-.62568-.2132-.6556l-7.2085-.64683c-.0275-.00247-.0515-.01948-.0626-.04442l-2.8696-6.44669c-.1327-.29822-.5618-.29821-.6946 0L7.61646 9.17035zm3.21684-3.87707L8.8668 9.71126c-.21092.47384-.66644.79714-1.18915.84404l-4.89292.4391 3.67141 3.1204c.40481.344.58325.8807.46362 1.3942l-1.0823 4.6459 4.27024-2.4531c.4485-.2577 1.0028-.2577 1.4513 0l4.2702 2.4531-1.0823-4.6459c-.1196-.5136.0588-1.0502.4636-1.3942l3.6714-3.1204-4.8929-.4391c-.5227-.0469-.9782-.3702-1.1891-.84404l-1.9666-4.41798z" clip-rule="evenodd"/>
</svg>
