<svg width="20" height="20" viewBox="0 0 20 20" fill="none" xmlns="http://www.w3.org/2000/svg"><path d="M8.389 2.179a.305.305 0 01.556 0l2.238 5.028c.044.1.14.168.25.178l5.624.504a.298.298 0 01.17.525l-4.235 3.6a.297.297 0 00-.097.293l1.24 5.326c.06.255-.218.457-.448.326L8.82 15.162a.307.307 0 00-.305 0l-4.868 2.796c-.23.132-.508-.07-.448-.325l1.24-5.326a.297.297 0 00-.097-.294l-4.235-3.6a.298.298 0 01.17-.524L5.9 7.385a.303.303 0 00.25-.178L8.39 2.179z" fill="url(#paint0_linear)"/><defs><linearGradient id="paint0_linear" x1="8.667" y1="2" x2="8.667" y2="18" gradientUnits="userSpaceOnUse"><stop stop-color="#FFC634"/><stop offset="1" stop-color="#FF9736"/></linearGradient></defs></svg>