<svg width="200" height="85" viewBox="0 0 350 150" fill="none" xmlns="http://www.w3.org/2000/svg">
<path fill-rule="evenodd" clip-rule="evenodd" d="M106.726 35.0938C107.641 40.5472 110.493 46.1482 115.163 50.8182C119.909 55.5642 125.685 58.421 131.271 59.2651C123.195 79.8738 104.202 95.3636 87.8886 105.195L81.347 98.6538C83.1031 94.3324 83.576 89.0815 80.2398 85.7445C76.9079 82.4134 71.6547 82.8775 67.3275 84.6344L60.9941 78.301C73.742 57.0982 89.8742 42.0052 106.726 35.0938ZM86.7938 79.3711C93.0286 85.6059 103.137 85.6059 109.372 79.3711C115.607 73.1363 115.607 63.0277 109.372 56.793C103.137 50.5582 93.0286 50.5582 86.7938 56.793C80.559 63.0277 80.559 73.1363 86.7938 79.3711Z" fill="#2D2D2C"/>
<path d="M103.728 73.7266C100.61 76.8439 95.5561 76.8439 92.4387 73.7266C89.3213 70.6092 89.3213 65.5549 92.4387 62.4375C95.5561 59.3201 100.61 59.3201 103.728 62.4375C106.845 65.5549 106.845 70.6092 103.728 73.7266Z" fill="#6B26FD"/>
<path d="M135.231 33.3417C135.131 31.9538 134.026 30.8569 132.642 30.7531C125.75 30.2342 118.884 31.082 112.155 33.14C112.661 37.7632 115.052 42.7664 119.135 46.8488C123.266 50.9795 128.405 53.37 133.111 53.8173C134.924 47.4657 135.783 40.6631 135.231 33.3417Z" fill="#6B26FD"/>
<path d="M53.5899 91.9853C53.0476 93.0669 53.2588 94.3743 54.1132 95.2294L54.7994 95.9157C56.7821 93.566 59.093 91.0162 61.8957 88.2142C62.0938 88.0161 62.2977 87.9204 62.4965 87.7377L58.0816 83.322C55.5149 87.9643 54.0182 91.136 53.5899 91.9853Z" fill="#6B26FD"/>
<path d="M77.77 104.089C74.9607 106.898 72.4174 109.213 70.081 111.198L71.0106 112.127C71.873 112.99 73.1928 113.197 74.2781 112.639C75.7317 111.89 78.0178 110.814 82.8705 108.111L78.2472 103.488C78.0645 103.688 77.9688 103.891 77.77 104.089Z" fill="#6B26FD"/>
<path d="M76.2714 89.7136C74.2433 87.6855 68.54 89.5038 65.8607 92.1823C56.8979 101.145 52.8498 107.5 51.0322 111.252C50.5112 112.327 50.7282 113.614 51.5731 114.459C52.4194 115.306 53.7085 115.521 54.7843 114.999C58.4523 113.218 64.7294 109.189 73.799 100.121C76.745 97.1732 78.1986 91.6415 76.2736 89.7158L76.2714 89.7136Z" fill="#6B26FD"/>
<path d="M48.364 67.9686L40.4265 75.9061C39.5291 76.8036 39.3449 78.1929 39.9807 79.2935C40.6012 80.3795 41.9006 80.9328 43.1372 80.6017C47.4271 79.4514 51.2018 78.9654 53.7437 79.6173C57.3598 73.1882 61.2456 67.27 65.3609 61.894C62.9806 60.368 55.1147 61.218 48.364 67.9686Z" fill="#6B26FD"/>
<path d="M87.1049 126.094C88.1858 126.641 89.4947 126.43 90.3505 125.573L98.2887 117.636C104.434 111.489 105.516 103.558 104.121 101.043C98.1257 105.562 92.0518 109.377 86.385 112.572C86.776 114.78 86.5158 116.922 85.5913 123.178C85.4108 124.389 86.0364 125.56 87.1049 126.094Z" fill="#6B26FD"/>
<path d="M160 103.102C160 99.6633 160.801 96.9314 162.404 94.9062C164.007 92.8675 166.13 91.8481 168.774 91.8481C171.486 91.8481 173.602 92.7995 175.123 94.7023L175.308 92.2559H178.78V113.785C178.78 116.639 177.924 118.889 176.212 120.533C174.513 122.178 172.226 123 169.349 123C167.746 123 166.178 122.66 164.644 121.981C163.109 121.301 161.938 120.37 161.13 119.188L163.103 116.925C164.733 118.923 166.726 119.922 169.082 119.922C170.931 119.922 172.369 119.405 173.397 118.372C174.438 117.339 174.958 115.885 174.958 114.009V112.113C173.438 113.853 171.363 114.723 168.733 114.723C166.13 114.723 164.02 113.683 162.404 111.603C160.801 109.524 160 106.69 160 103.102ZM163.822 103.53C163.822 106.017 164.335 107.975 165.363 109.402C166.39 110.815 167.828 111.522 169.678 111.522C172.075 111.522 173.835 110.441 174.958 108.28V98.209C173.794 96.1023 172.048 95.0489 169.719 95.0489C167.87 95.0489 166.424 95.7625 165.383 97.1896C164.342 98.6167 163.822 100.73 163.822 103.53Z" fill="black"/>
<path d="M199.101 112.134C197.621 113.86 195.45 114.723 192.587 114.723C190.217 114.723 188.409 114.043 187.163 112.684C185.93 111.311 185.307 109.286 185.293 106.609V92.2559H189.094V106.507C189.094 109.85 190.464 111.522 193.204 111.522C196.108 111.522 198.039 110.448 198.998 108.301V92.2559H202.799V114.315H199.183L199.101 112.134Z" fill="black"/>
<path d="M213.565 114.315H209.764V92.2559H213.565V114.315ZM209.456 86.4047C209.456 85.7931 209.64 85.2766 210.01 84.8552C210.394 84.4339 210.955 84.2232 211.695 84.2232C212.435 84.2232 212.997 84.4339 213.38 84.8552C213.764 85.2766 213.955 85.7931 213.955 86.4047C213.955 87.0163 213.764 87.526 213.38 87.9337C212.997 88.3415 212.435 88.5454 211.695 88.5454C210.955 88.5454 210.394 88.3415 210.01 87.9337C209.64 87.526 209.456 87.0163 209.456 86.4047Z" fill="black"/>
<path d="M219.585 103.102C219.585 99.7176 220.393 96.9993 222.009 94.947C223.625 92.8811 225.742 91.8481 228.358 91.8481C230.961 91.8481 233.022 92.7316 234.543 94.4985V83H238.344V114.315H234.851L234.666 111.95C233.146 113.799 231.029 114.723 228.317 114.723C225.742 114.723 223.639 113.676 222.009 111.583C220.393 109.49 219.585 106.758 219.585 103.387V103.102ZM223.386 103.53C223.386 106.031 223.906 107.988 224.947 109.402C225.988 110.815 227.427 111.522 229.262 111.522C231.673 111.522 233.433 110.448 234.543 108.301V98.1682C233.406 96.0887 231.659 95.0489 229.303 95.0489C227.44 95.0489 225.988 95.7625 224.947 97.1896C223.906 98.6167 223.386 100.73 223.386 103.53Z" fill="black"/>
<path d="M254.329 114.723C251.315 114.723 248.863 113.744 246.973 111.787C245.083 109.816 244.138 107.186 244.138 103.897V103.204C244.138 101.016 244.555 99.0652 245.391 97.3527C246.24 95.6266 247.418 94.281 248.925 93.316C250.446 92.3374 252.089 91.8481 253.856 91.8481C256.747 91.8481 258.993 92.7927 260.596 94.682C262.199 96.5712 263 99.2759 263 102.796V104.366H247.939C247.994 106.541 248.631 108.301 249.85 109.646C251.083 110.978 252.644 111.644 254.535 111.644C255.877 111.644 257.014 111.372 257.945 110.829C258.877 110.285 259.692 109.565 260.39 108.668L262.712 110.462C260.849 113.302 258.055 114.723 254.329 114.723ZM253.856 94.947C252.322 94.947 251.035 95.5042 249.994 96.6188C248.953 97.7197 248.309 99.2691 248.062 101.267H259.199V100.982C259.089 99.0652 258.569 97.5838 257.637 96.5372C256.706 95.4771 255.445 94.947 253.856 94.947Z" fill="black"/>
<path d="M174.03 40.6624H178.025V62.0872C178.025 64.9826 177.156 67.2477 175.417 68.8824C173.691 70.5171 171.387 71.3345 168.502 71.3345C165.507 71.3345 163.175 70.5656 161.505 69.0279C159.835 67.4901 159 65.3359 159 62.5651H162.975C162.975 64.2968 163.444 65.6476 164.382 66.6173C165.335 67.5871 166.708 68.072 168.502 68.072C170.145 68.072 171.469 67.5525 172.477 66.5134C173.498 65.4744 174.016 64.0198 174.03 62.1495V40.6624Z" fill="black"/>
<path d="M194.337 71.3345C191.301 71.3345 188.831 70.3371 186.926 68.3421C185.021 66.3333 184.069 63.6526 184.069 60.3001V59.5935C184.069 57.3631 184.49 55.3751 185.332 53.6295C186.188 51.8701 187.375 50.4986 188.893 49.515C190.425 48.5175 192.081 48.0188 193.861 48.0188C196.773 48.0188 199.037 48.9816 200.651 50.9072C202.266 52.8329 203.073 55.5898 203.073 59.1779V60.778H187.899C187.954 62.9946 188.596 64.7886 189.824 66.1602C191.066 67.5178 192.64 68.1967 194.544 68.1967C195.897 68.1967 197.042 67.9196 197.981 67.3654C198.919 66.8113 199.74 66.077 200.444 65.1627L202.784 66.9914C200.907 69.8868 198.091 71.3345 194.337 71.3345ZM193.861 51.1774C192.315 51.1774 191.018 51.7454 189.969 52.8814C188.92 54.0035 188.272 55.5829 188.023 57.6194H199.244V57.3284C199.133 55.3751 198.609 53.865 197.67 52.7983C196.732 51.7177 195.462 51.1774 193.861 51.1774Z" fill="black"/>
<path d="M213.569 42.9899V48.4344H217.75V51.406H213.569V65.3497C213.569 66.2502 213.755 66.929 214.127 67.3862C214.5 67.8295 215.135 68.0512 216.032 68.0512C216.474 68.0512 217.081 67.9681 217.854 67.8018V70.9189C216.846 71.196 215.866 71.3345 214.914 71.3345C213.203 71.3345 211.912 70.815 211.043 69.776C210.173 68.7369 209.739 67.2615 209.739 65.3497V51.406H205.66V48.4344H209.739V42.9899H213.569Z" fill="black"/>
<path d="M247.497 64.9549C247.497 63.9159 247.104 63.1124 246.317 62.5443C245.544 61.9625 244.185 61.4638 242.239 61.0482C240.307 60.6325 238.768 60.1338 237.622 59.552C236.491 58.9701 235.649 58.2774 235.097 57.4739C234.559 56.6704 234.289 55.7145 234.289 54.6062C234.289 52.7636 235.062 51.2051 236.608 49.9306C238.168 48.656 240.155 48.0188 242.57 48.0188C245.11 48.0188 247.166 48.6768 248.739 49.9929C250.326 51.309 251.12 52.9922 251.12 55.0426H247.27C247.27 53.9897 246.821 53.0823 245.924 52.3203C245.041 51.5584 243.923 51.1774 242.57 51.1774C241.176 51.1774 240.086 51.4822 239.299 52.0917C238.513 52.7013 238.119 53.4979 238.119 54.4815C238.119 55.4097 238.485 56.1093 239.216 56.5803C239.948 57.0514 241.266 57.5016 243.171 57.9311C245.089 58.3605 246.642 58.8731 247.828 59.4688C249.015 60.0645 249.892 60.7849 250.458 61.63C251.037 62.4612 251.327 63.4795 251.327 64.6847C251.327 66.6935 250.527 68.3075 248.926 69.5266C247.325 70.7319 245.248 71.3345 242.694 71.3345C240.9 71.3345 239.313 71.0159 237.933 70.3786C236.553 69.7413 235.469 68.8547 234.683 67.7187C233.91 66.5688 233.523 65.3289 233.523 63.999H237.353C237.422 65.2874 237.933 66.3126 238.885 67.0745C239.851 67.8226 241.121 68.1967 242.694 68.1967C244.144 68.1967 245.303 67.9057 246.172 67.3239C247.056 66.7282 247.497 65.9385 247.497 64.9549Z" fill="black"/>
<path d="M262.36 42.9899V48.4344H266.542V51.406H262.36V65.3497C262.36 66.2502 262.547 66.929 262.919 67.3862C263.292 67.8295 263.927 68.0512 264.824 68.0512C265.266 68.0512 265.873 67.9681 266.646 67.8018V70.9189C265.638 71.196 264.658 71.3345 263.706 71.3345C261.995 71.3345 260.704 70.815 259.835 69.776C258.965 68.7369 258.531 67.2615 258.531 65.3497V51.406H254.452V48.4344H258.531V42.9899H262.36Z" fill="black"/>
<path d="M279.211 65.2874L284.428 48.4344H288.527L279.521 74.3893C278.127 78.1298 275.912 80 272.876 80L272.152 79.9377L270.723 79.6675V76.5504L271.758 76.6336C273.056 76.6336 274.063 76.3703 274.781 75.8439C275.512 75.3175 276.112 74.3546 276.582 72.9554L277.431 70.6695L269.44 48.4344H273.621L279.211 65.2874Z" fill="black"/>
<path d="M296.972 70.9189H293.142V39H296.972V70.9189Z" fill="black"/>
<path d="M313.264 71.3345C310.228 71.3345 307.757 70.3371 305.853 68.3421C303.948 66.3333 302.996 63.6526 302.996 60.3001V59.5935C302.996 57.3631 303.417 55.3751 304.258 53.6295C305.114 51.8701 306.301 50.4986 307.819 49.515C309.351 48.5175 311.007 48.0188 312.788 48.0188C315.7 48.0188 317.963 48.9816 319.578 50.9072C321.193 52.8329 322 55.5898 322 59.1779V60.778H306.826C306.881 62.9946 307.522 64.7886 308.751 66.1602C309.993 67.5178 311.566 68.1967 313.471 68.1967C314.823 68.1967 315.969 67.9196 316.907 67.3654C317.846 66.8113 318.667 66.077 319.371 65.1627L321.71 66.9914C319.833 69.8868 317.018 71.3345 313.264 71.3345ZM312.788 51.1774C311.242 51.1774 309.945 51.7454 308.896 52.8814C307.847 54.0035 307.198 55.5829 306.95 57.6194H318.17V57.3284C318.06 55.3751 317.535 53.865 316.597 52.7983C315.658 51.7177 314.389 51.1774 312.788 51.1774Z" fill="black"/>
</svg>
